<?xml version="1.0" encoding="UTF-8" standalone="no"?>
<!-- Created with Inkscape (http://www.inkscape.org/) -->

<svg
   xmlns:dc="http://purl.org/dc/elements/1.1/"
   xmlns:cc="http://creativecommons.org/ns#"
   xmlns:rdf="http://www.w3.org/1999/02/22-rdf-syntax-ns#"
   xmlns:svg="http://www.w3.org/2000/svg"
   xmlns="http://www.w3.org/2000/svg"
   xmlns:sodipodi="http://sodipodi.sourceforge.net/DTD/sodipodi-0.dtd"
   xmlns:inkscape="http://www.inkscape.org/namespaces/inkscape"
   width="500"
   height="500"
   viewBox="0 0 132.29166 132.29167"
   version="1.1"
   id="svg8"
   inkscape:version="0.92.3 (2405546, 2018-03-11)"
   sodipodi:docname="app_logo.svg">
  <defs
     id="defs2" />
  <sodipodi:namedview
     id="base"
     pagecolor="#ffffff"
     bordercolor="#666666"
     borderopacity="1.0"
     inkscape:pageopacity="0.0"
     inkscape:pageshadow="2"
     inkscape:zoom="0.7"
     inkscape:cx="200.6206"
     inkscape:cy="161.13204"
     inkscape:document-units="mm"
     inkscape:current-layer="layer1"
     showgrid="false"
     units="px"
     inkscape:window-width="1920"
     inkscape:window-height="1015"
     inkscape:window-x="0"
     inkscape:window-y="0"
     inkscape:window-maximized="1" />
  <metadata
     id="metadata5">
    <rdf:RDF>
      <cc:Work
         rdf:about="">
        <dc:format>image/svg+xml</dc:format>
        <dc:type
           rdf:resource="http://purl.org/dc/dcmitype/StillImage" />
        <dc:title></dc:title>
      </cc:Work>
    </rdf:RDF>
  </metadata>
  <g
     inkscape:label="Layer 1"
     inkscape:groupmode="layer"
     id="layer1"
     transform="translate(0,-164.70832)">
    <rect
       style="opacity:0.98999999;fill:#002b94;fill-opacity:1;stroke:none;stroke-width:4.09136772;stroke-miterlimit:4;stroke-dasharray:none;stroke-opacity:1"
       id="rect861"
       width="132.70383"
       height="132.54541"
       x="0.39639625"
       y="164.69949" />
    <path
       style="fill:none;stroke:#ffffff;stroke-width:4.72804689;stroke-linecap:butt;stroke-linejoin:miter;stroke-miterlimit:4;stroke-dasharray:none;stroke-opacity:0.98550726"
       d="M 11.714375,235.65533 7.4420141,172.55584 c 0,0 22.0702959,3.28528 33.1929669,3.94372 16.840872,0.99695 33.751419,0.60136 50.611047,0 10.756202,-0.38366 32.207042,-2.30051 32.207042,-2.30051 l -5.58694,62.44221 c 0,0 -12.40437,-6.86664 -19.15356,-8.8397 -10.901921,-3.18706 -33.758001,-4.63466 -33.758001,-4.63466 0,0 -22.740289,0.8634 -33.628948,3.81472 -6.898985,1.86993 -19.611246,8.67371 -19.611246,8.67371 z"
       id="path832"
       inkscape:connector-curvature="0"
       sodipodi:nodetypes="ccaaccacac" />
    <g
       id="g873"
       transform="matrix(0.93035168,0,0,0.93035168,11.522369,5.3975134)">
      <ellipse
         ry="16.610922"
         rx="42.190182"
         cy="274.57434"
         cx="55.961628"
         id="path828"
         style="opacity:0.98999999;fill:none;stroke:#ffffff;stroke-width:6.19648504;stroke-miterlimit:4;stroke-dasharray:none;stroke-opacity:0.98550726" />
      <g
         style="fill:none;stroke:#ffffff;stroke-opacity:0.98550726"
         transform="matrix(1.1568249,0,0,1.1568249,193.58539,-20.030391)"
         id="g845">
        <path
           sodipodi:nodetypes="cccc"
           style="fill:none;stroke:#ffffff;stroke-width:3.2650001;stroke-linecap:butt;stroke-linejoin:miter;stroke-miterlimit:4;stroke-dasharray:none;stroke-opacity:0.98550726"
           d="m -142.72193,263.85856 5.61266,-32.87415 6.94901,-35.54684 11.82467,-0.26727"
           id="path836"
           inkscape:connector-curvature="0" />
        <path
           style="fill:none;stroke:#ffffff;stroke-width:3.2650001;stroke-linecap:butt;stroke-linejoin:miter;stroke-miterlimit:4;stroke-dasharray:none;stroke-opacity:0.98550726"
           d="m -154.48178,254.50413 c 0,0 0.42811,-10.08227 1.48295,-14.99193 0.90646,-4.21903 4.1297,-12.26956 4.1297,-12.26956 0,0 3.89065,-9.43268 6.40554,-13.8561 3.58506,-6.30576 12.30333,-17.94897 12.30333,-17.94897"
           id="path838"
           inkscape:connector-curvature="0"
           sodipodi:nodetypes="cacac" />
        <path
           style="fill:none;stroke:#ffffff;stroke-width:3.2650001;stroke-linecap:butt;stroke-linejoin:miter;stroke-miterlimit:4;stroke-dasharray:none;stroke-opacity:0.98550726"
           d="m -148.86913,227.24264 11.49259,3.20723"
           id="path840"
           inkscape:connector-curvature="0" />
      </g>
      <g
         style="fill:none;stroke:#ffffff;stroke-opacity:0.98550726"
         id="g853"
         transform="matrix(-1.1568249,0,0,1.1568249,-80.168475,-20.030391)">
        <path
           sodipodi:nodetypes="cccc"
           inkscape:connector-curvature="0"
           id="path847"
           d="m -142.72193,263.85856 5.61266,-32.87415 6.94901,-35.54684 12.19465,-0.26727"
           style="fill:none;stroke:#ffffff;stroke-width:3.2650001;stroke-linecap:butt;stroke-linejoin:miter;stroke-miterlimit:4;stroke-dasharray:none;stroke-opacity:0.98550726" />
        <path
           sodipodi:nodetypes="cacac"
           inkscape:connector-curvature="0"
           id="path849"
           d="m -154.48178,254.50413 c 0,0 0.42811,-10.08227 1.48295,-14.99193 0.90646,-4.21903 4.1297,-12.26956 4.1297,-12.26956 0,0 3.89065,-9.43268 6.40554,-13.8561 3.58506,-6.30576 12.30333,-17.94897 12.30333,-17.94897"
           style="fill:none;stroke:#ffffff;stroke-width:3.2650001;stroke-linecap:butt;stroke-linejoin:miter;stroke-miterlimit:4;stroke-dasharray:none;stroke-opacity:0.98550726" />
        <path
           inkscape:connector-curvature="0"
           id="path851"
           d="m -148.86913,227.24264 11.49259,3.20723"
           style="fill:none;stroke:#ffffff;stroke-width:3.2650001;stroke-linecap:butt;stroke-linejoin:miter;stroke-miterlimit:4;stroke-dasharray:none;stroke-opacity:0.98550726" />
      </g>
    </g>
    <path
       style="fill:#ffffff;stroke:none;stroke-width:0.35065064px;stroke-linecap:butt;stroke-linejoin:miter;stroke-opacity:1"
       d="m 34.493582,277.02636 c 0,0 2.081306,1.24007 3.192762,1.71243 1.040391,0.44216 3.228214,1.03917 3.228214,1.03917 l -5.134133,22.59633 -6.846196,-1.7594 5.559353,-23.58853"
       id="path877"
       inkscape:connector-curvature="0"
       sodipodi:nodetypes="cacccc" />
    <path
       sodipodi:nodetypes="cacccc"
       inkscape:connector-curvature="0"
       id="path881"
       d="m 96.587349,277.02636 c 0,0 -2.081306,1.24007 -3.192762,1.71243 -1.040391,0.44216 -3.228215,1.03917 -3.228215,1.03917 l 5.134134,22.59633 6.846194,-1.7594 -5.559351,-23.58853"
       style="fill:#ffffff;stroke:none;stroke-width:0.35065064px;stroke-linecap:butt;stroke-linejoin:miter;stroke-opacity:1" />
  </g>
</svg>
