<?xml version="1.0" encoding="UTF-8" standalone="no"?>
<svg
   xmlns:dc="http://purl.org/dc/elements/1.1/"
   xmlns:cc="http://creativecommons.org/ns#"
   xmlns:rdf="http://www.w3.org/1999/02/22-rdf-syntax-ns#"
   xmlns:svg="http://www.w3.org/2000/svg"
   xmlns="http://www.w3.org/2000/svg"
   xmlns:sodipodi="http://sodipodi.sourceforge.net/DTD/sodipodi-0.dtd"
   xmlns:inkscape="http://www.inkscape.org/namespaces/inkscape"
   viewBox="0 0 986.4425 464.73598"
   height="464.73599"
   width="986.4425"
   xml:space="preserve"
   id="svg2"
   version="1.1"
   sodipodi:docname="cimvhr.svg"
   inkscape:version="0.92.2 5c3e80d, 2017-08-06"><sodipodi:namedview
     pagecolor="#ffffff"
     bordercolor="#666666"
     borderopacity="1"
     objecttolerance="10"
     gridtolerance="10"
     guidetolerance="10"
     inkscape:pageopacity="0"
     inkscape:pageshadow="2"
     inkscape:window-width="1548"
     inkscape:window-height="763"
     id="namedview274"
     showgrid="false"
     fit-margin-top="0"
     fit-margin-left="0"
     fit-margin-right="0"
     fit-margin-bottom="0"
     inkscape:zoom="0.27502955"
     inkscape:cx="-179.18867"
     inkscape:cy="-204.17979"
     inkscape:window-x="0"
     inkscape:window-y="0"
     inkscape:window-maximized="0"
     inkscape:current-layer="svg2" /><metadata
     id="metadata8"><rdf:RDF><cc:Work
         rdf:about=""><dc:format>image/svg+xml</dc:format><dc:type
           rdf:resource="http://purl.org/dc/dcmitype/StillImage" /><dc:title></dc:title></cc:Work></rdf:RDF></metadata><defs
     id="defs6"><clipPath
       id="clipPath26"
       clipPathUnits="userSpaceOnUse"><path
         id="path24"
         d="M 94.092,575.422 H 520.067 V 743.6 H 94.092 Z"
         inkscape:connector-curvature="0" /></clipPath><clipPath
       id="clipPath38"
       clipPathUnits="userSpaceOnUse"><path
         id="path36"
         d="m 131.717,634.416 h 121.319 v 99.873 H 131.717 Z"
         inkscape:connector-curvature="0" /></clipPath><clipPath
       id="clipPath54"
       clipPathUnits="userSpaceOnUse"><path
         id="path52"
         d="M 94.092,575.422 H 520.067 V 743.6 H 94.092 Z"
         inkscape:connector-curvature="0" /></clipPath><clipPath
       id="clipPath74"
       clipPathUnits="userSpaceOnUse"><path
         id="path72"
         d="M 0,0 H 612 V 792 H 0 Z"
         inkscape:connector-curvature="0" /></clipPath><clipPath
       id="clipPath82"
       clipPathUnits="userSpaceOnUse"><path
         id="path80"
         d="M -23.7693,322.74 H 635.929 V -12 H -23.7693 Z"
         inkscape:connector-curvature="0" /></clipPath><clipPath
       id="clipPath100"
       clipPathUnits="userSpaceOnUse"><path
         id="path98"
         d="m 0,318.24 h 612 v 237.6 H 0 Z"
         inkscape:connector-curvature="0" /></clipPath><clipPath
       id="clipPath148"
       clipPathUnits="userSpaceOnUse"><path
         id="path146"
         d="m 0,318.24 h 612 v 237.6 H 0 Z"
         inkscape:connector-curvature="0" /></clipPath><clipPath
       id="clipPath190"
       clipPathUnits="userSpaceOnUse"><path
         id="path188"
         d="m 131.98,54 h 166.795 v 78.581 H 131.98 Z"
         inkscape:connector-curvature="0" /></clipPath><clipPath
       id="clipPath692"
       clipPathUnits="userSpaceOnUse"><path
         id="path690"
         d="M 352.74,53 H 462.18 V 98.085 H 352.74 Z"
         inkscape:connector-curvature="0" /></clipPath></defs><g
     transform="matrix(5.9141012,0,0,-5.9141012,-780.54308,784.09745)"
     id="g10"
     style="stroke-width:0.22544986"><path
       id="path182"
       style="fill:#6d6e71;fill-opacity:1;fill-rule:nonzero;stroke:none;stroke-width:0.22544986"
       d="m 220.086,69.804 h -2.346 v 9.994 h 2.346 z"
       inkscape:connector-curvature="0" /><g
       id="g184"
       style="stroke-width:0.22544986"><g
         clip-path="url(#clipPath190)"
         id="g186"
         style="stroke-width:0.22544986"><g
           transform="translate(230.254,70.9913)"
           id="g192"
           style="stroke-width:0.22544986"><path
             id="path194"
             style="fill:#6d6e71;fill-opacity:1;fill-rule:nonzero;stroke:none;stroke-width:0.22544986"
             d="m 0,0 c -0.508,-0.523 -1.565,-1.362 -3.607,-1.362 -2.94,0 -5.242,1.942 -5.242,5.156 0,3.23 2.331,5.156 5.242,5.156 2.057,0 3.172,-0.855 3.433,-1.13 L -0.898,5.879 c -0.189,0.247 -1.26,1.044 -2.579,1.044 -1.694,0 -2.997,-1.13 -2.997,-3.084 0,-1.957 1.361,-3.072 2.997,-3.072 1.246,0 2.144,0.492 2.694,1.057 z"
             inkscape:connector-curvature="0" /></g><g
           transform="translate(235.7875,77.7251)"
           id="g196"
           style="stroke-width:0.22544986"><path
             id="path198"
             style="fill:#6d6e71;fill-opacity:1;fill-rule:nonzero;stroke:none;stroke-width:0.22544986"
             d="m 0,0 c -0.29,0.217 -0.666,0.261 -1.202,0.261 h -0.927 v -2.564 h 0.927 c 0.536,0 0.912,0.058 1.202,0.276 0.304,0.216 0.506,0.492 0.506,1.014 C 0.506,-0.506 0.304,-0.217 0,0 M 3.447,-7.921 H 0.724 l -2.1,3.822 h -0.738 v -3.822 h -2.347 v 9.994 h 3.591 c 1.116,0 1.985,-0.233 2.637,-0.712 0.666,-0.492 1.1,-1.289 1.1,-2.287 0,-1.897 -1.216,-2.637 -1.955,-2.869 z"
             inkscape:connector-curvature="0" /></g><g
           transform="translate(245.5934,70.4552)"
           id="g200"
           style="stroke-width:0.22544986"><path
             id="path202"
             style="fill:#6d6e71;fill-opacity:1;fill-rule:nonzero;stroke:none;stroke-width:0.22544986"
             d="m 0,0 c -0.709,-0.565 -1.637,-0.826 -2.708,-0.826 -1.448,0 -2.738,0.753 -3.548,1.507 l 1.158,1.709 c 0.724,-0.754 1.838,-1.26 2.607,-1.26 0.753,0 1.332,0.361 1.332,1.028 0,0.68 -0.738,0.941 -1.173,1.1 -0.434,0.16 -1.187,0.42 -1.521,0.564 -0.246,0.117 -0.752,0.306 -1.187,0.725 -0.435,0.406 -0.782,0.985 -0.782,1.926 0,0.957 0.463,1.71 1.043,2.188 0.564,0.478 1.476,0.796 2.636,0.796 1.159,0 2.491,-0.549 3.171,-1.231 L 0.029,6.59 c -0.579,0.578 -1.477,1.014 -2.231,1.014 -0.752,0 -1.302,-0.29 -1.302,-0.899 0,-0.607 0.564,-0.839 1.013,-1.014 C -2.057,5.518 -1.318,5.258 -0.999,5.127 -0.724,5.025 -0.058,4.765 0.391,4.315 0.811,3.895 1.174,3.287 1.174,2.39 1.174,1.433 0.724,0.564 0,0"
             inkscape:connector-curvature="0" /></g><g
           transform="translate(259.2234,69.8039)"
           id="g204"
           style="stroke-width:0.22544986"><path
             id="path206"
             style="fill:#6d6e71;fill-opacity:1;fill-rule:nonzero;stroke:none;stroke-width:0.22544986"
             d="M 0,0 H -2.303 L -2.694,6.806 H -2.723 L -4.867,0 H -6.72 L -8.879,6.806 H -8.922 L -9.284,0 h -2.302 l 0.753,9.994 h 2.955 l 2.084,-6.576 h 0.03 l 2.056,6.576 h 2.969 z"
             inkscape:connector-curvature="0" /></g><g
           transform="translate(269.349,79.7979)"
           id="g208"
           style="stroke-width:0.22544986"><path
             id="path210"
             style="fill:#6d6e71;fill-opacity:1;fill-rule:nonzero;stroke:none;stroke-width:0.22544986"
             d="m 0,0 -3.708,-9.994 h -2.23 L -9.647,0 h 2.492 L -4.809,-6.881 -2.477,0 Z"
             inkscape:connector-curvature="0" /></g><g
           transform="translate(219.7214,62.1955)"
           id="g212"
           style="stroke-width:0.22544986"><path
             id="path214"
             style="fill:#6d6e71;fill-opacity:1;fill-rule:nonzero;stroke:none;stroke-width:0.22544986"
             d="m 0,0 h -1.783 v 3.621 h 0.508 V 0.436 H 0 Z"
             inkscape:connector-curvature="0" /></g><g
           transform="translate(220.7439,65.8166)"
           id="g216"
           style="stroke-width:0.22544986"><path
             id="path218"
             style="fill:#6d6e71;fill-opacity:1;fill-rule:nonzero;stroke:none;stroke-width:0.22544986"
             d="M 0,0 -0.466,-1.123 H -0.865 L -0.514,0 Z"
             inkscape:connector-curvature="0" /></g><path
           id="path220"
           style="fill:#6d6e71;fill-opacity:1;fill-rule:nonzero;stroke:none;stroke-width:0.22544986"
           d="m 222.056,62.195 h -0.509 v 3.621 h 0.509 z"
           inkscape:connector-curvature="0" /><g
           transform="translate(224.9682,62.1955)"
           id="g222"
           style="stroke-width:0.22544986"><path
             id="path224"
             style="fill:#6d6e71;fill-opacity:1;fill-rule:nonzero;stroke:none;stroke-width:0.22544986"
             d="m 0,0 h -0.504 v 1.391 c 0,0.42 -0.073,0.735 -0.519,0.735 -0.467,0 -0.64,-0.394 -0.64,-0.872 V 0 h -0.504 v 2.494 h 0.504 L -1.669,2.1 h 0.016 c 0.131,0.247 0.399,0.441 0.761,0.441 C -0.184,2.541 0,2.073 0,1.475 Z"
             inkscape:connector-curvature="0" /></g><g
           transform="translate(227.061,62.3592)"
           id="g226"
           style="stroke-width:0.22544986"><path
             id="path228"
             style="fill:#6d6e71;fill-opacity:1;fill-rule:nonzero;stroke:none;stroke-width:0.22544986"
             d="m 0,0 c -0.174,-0.143 -0.404,-0.221 -0.693,-0.221 -0.419,0 -0.76,0.173 -0.971,0.447 l 0.241,0.294 c 0.19,-0.231 0.505,-0.357 0.735,-0.357 0.231,0 0.478,0.083 0.478,0.357 0,0.273 -0.394,0.357 -0.561,0.414 -0.168,0.059 -0.226,0.068 -0.341,0.131 -0.158,0.079 -0.394,0.242 -0.394,0.597 0,0.463 0.399,0.715 0.84,0.715 0.44,0 0.692,-0.157 0.85,-0.327 l -0.21,-0.308 c -0.148,0.152 -0.389,0.268 -0.63,0.268 -0.241,0 -0.399,-0.106 -0.399,-0.31 0,-0.206 0.242,-0.294 0.489,-0.372 0.136,-0.049 0.231,-0.079 0.335,-0.121 0.1,-0.042 0.215,-0.106 0.289,-0.179 0.094,-0.09 0.2,-0.235 0.2,-0.462 C 0.258,0.324 0.163,0.136 0,0"
             inkscape:connector-curvature="0" /></g><g
           transform="translate(229.0231,62.2217)"
           id="g230"
           style="stroke-width:0.22544986"><path
             id="path232"
             style="fill:#6d6e71;fill-opacity:1;fill-rule:nonzero;stroke:none;stroke-width:0.22544986"
             d="m 0,0 c 0,0 -0.194,-0.083 -0.457,-0.083 -0.262,0 -0.425,0.099 -0.53,0.256 -0.105,0.158 -0.125,0.353 -0.125,0.745 v 1.14 H -1.48 v 0.404 h 0.368 v 0.744 h 0.504 V 2.462 h 0.597 V 2.058 H -0.608 V 0.93 c 0,-0.21 0.004,-0.353 0.062,-0.457 0.047,-0.078 0.116,-0.125 0.258,-0.125 0.147,0 0.257,0.057 0.257,0.057 z"
             inkscape:connector-curvature="0" /></g><path
           id="path234"
           style="fill:#6d6e71;fill-opacity:1;fill-rule:nonzero;stroke:none;stroke-width:0.22544986"
           d="m 229.967,62.195 h -0.503 v 2.494 h 0.503 z m -0.252,3.003 c -0.194,0 -0.331,0.131 -0.331,0.308 0,0.18 0.137,0.311 0.331,0.311 0.189,0 0.326,-0.131 0.326,-0.311 0,-0.177 -0.137,-0.308 -0.326,-0.308"
           inkscape:connector-curvature="0" /><g
           transform="translate(231.8924,62.2217)"
           id="g236"
           style="stroke-width:0.22544986"><path
             id="path238"
             style="fill:#6d6e71;fill-opacity:1;fill-rule:nonzero;stroke:none;stroke-width:0.22544986"
             d="m 0,0 c 0,0 -0.194,-0.083 -0.457,-0.083 -0.262,0 -0.425,0.099 -0.53,0.256 -0.105,0.158 -0.125,0.353 -0.125,0.745 v 1.14 H -1.48 v 0.404 h 0.368 v 0.744 h 0.503 V 2.462 h 0.598 V 2.058 H -0.609 V 0.93 c 0,-0.21 0.005,-0.353 0.063,-0.457 0.047,-0.078 0.116,-0.125 0.258,-0.125 0.146,0 0.257,0.057 0.257,0.057 z"
             inkscape:connector-curvature="0" /></g><g
           transform="translate(234.4314,62.1955)"
           id="g240"
           style="stroke-width:0.22544986"><path
             id="path242"
             style="fill:#6d6e71;fill-opacity:1;fill-rule:nonzero;stroke:none;stroke-width:0.22544986"
             d="m 0,0 h -0.487 l -0.007,0.358 c -0.136,-0.242 -0.419,-0.415 -0.77,-0.415 -0.357,0 -0.562,0.121 -0.693,0.289 -0.126,0.168 -0.184,0.414 -0.184,0.771 v 1.495 h 0.499 V 1.025 c 0,-0.341 0.073,-0.661 0.52,-0.661 0.44,0 0.618,0.377 0.618,0.797 V 2.498 H 0 Z"
             inkscape:connector-curvature="0" /></g><g
           transform="translate(236.3359,62.2217)"
           id="g244"
           style="stroke-width:0.22544986"><path
             id="path246"
             style="fill:#6d6e71;fill-opacity:1;fill-rule:nonzero;stroke:none;stroke-width:0.22544986"
             d="m 0,0 c 0,0 -0.195,-0.083 -0.457,-0.083 -0.262,0 -0.425,0.099 -0.53,0.256 -0.105,0.158 -0.125,0.353 -0.125,0.745 v 1.14 H -1.48 v 0.404 h 0.368 v 0.744 h 0.503 V 2.462 h 0.598 V 2.058 H -0.609 V 0.93 c 0,-0.21 0.005,-0.353 0.063,-0.457 0.046,-0.078 0.116,-0.125 0.257,-0.125 0.147,0 0.257,0.057 0.257,0.057 z"
             inkscape:connector-curvature="0" /></g><g
           transform="translate(239.8877,62.5158)"
           id="g248"
           style="stroke-width:0.22544986"><path
             id="path250"
             style="fill:#6d6e71;fill-opacity:1;fill-rule:nonzero;stroke:none;stroke-width:0.22544986"
             d="m 0,0 c -0.073,-0.073 -0.331,-0.377 -0.998,-0.377 -0.671,0 -1.259,0.503 -1.259,1.302 0,0.801 0.615,1.295 1.275,1.295 0.667,0 0.94,-0.326 0.966,-0.357 L -0.195,1.495 c -0.083,0.086 -0.304,0.306 -0.745,0.306 -0.44,0 -0.807,-0.336 -0.807,-0.861 0,-0.524 0.33,-0.886 0.813,-0.886 0.487,0 0.755,0.314 0.755,0.314 z"
             inkscape:connector-curvature="0" /></g><g
           transform="translate(241.7285,63.3934)"
           id="g252"
           style="stroke-width:0.22544986"><path
             id="path254"
             style="fill:#6d6e71;fill-opacity:1;fill-rule:nonzero;stroke:none;stroke-width:0.22544986"
             d="m 0,0 -0.582,-0.037 c -0.404,-0.021 -0.567,-0.195 -0.567,-0.431 0,-0.237 0.183,-0.43 0.514,-0.43 0.325,0 0.54,0.221 0.635,0.361 z M 0.499,-1.198 H 0.011 l -0.006,0.316 c -0.1,-0.105 -0.335,-0.373 -0.793,-0.373 -0.461,0 -0.86,0.289 -0.86,0.772 0,0.488 0.399,0.733 0.976,0.76 l 0.667,0.027 v 0.099 c 0,0.377 -0.258,0.567 -0.62,0.567 -0.361,0 -0.666,-0.163 -0.75,-0.216 l -0.152,0.337 c 0.183,0.104 0.52,0.252 0.934,0.252 0.415,0 0.656,-0.116 0.824,-0.284 C 0.399,0.886 0.499,0.676 0.499,0.25 Z"
             inkscape:connector-curvature="0" /></g><g
           transform="translate(245.0389,62.1955)"
           id="g256"
           style="stroke-width:0.22544986"><path
             id="path258"
             style="fill:#6d6e71;fill-opacity:1;fill-rule:nonzero;stroke:none;stroke-width:0.22544986"
             d="m 0,0 h -0.504 v 1.391 c 0,0.42 -0.073,0.735 -0.519,0.735 -0.467,0 -0.641,-0.394 -0.641,-0.872 V 0 h -0.503 v 2.494 h 0.503 L -1.669,2.1 h 0.016 c 0.131,0.247 0.399,0.441 0.761,0.441 C -0.184,2.541 0,2.073 0,1.475 Z"
             inkscape:connector-curvature="0" /></g><g
           transform="translate(247.1479,63.3934)"
           id="g260"
           style="stroke-width:0.22544986"><path
             id="path262"
             style="fill:#6d6e71;fill-opacity:1;fill-rule:nonzero;stroke:none;stroke-width:0.22544986"
             d="m 0,0 -0.582,-0.037 c -0.405,-0.021 -0.568,-0.195 -0.568,-0.431 0,-0.237 0.184,-0.43 0.514,-0.43 0.326,0 0.541,0.221 0.636,0.361 z M 0.498,-1.198 H 0.01 l -0.005,0.316 c -0.1,-0.105 -0.336,-0.373 -0.792,-0.373 -0.462,0 -0.861,0.289 -0.861,0.772 0,0.488 0.399,0.733 0.976,0.76 l 0.666,0.027 v 0.099 c 0,0.377 -0.256,0.567 -0.619,0.567 -0.362,0 -0.666,-0.163 -0.75,-0.216 l -0.152,0.337 c 0.183,0.104 0.52,0.252 0.933,0.252 0.415,0 0.657,-0.116 0.824,-0.284 C 0.399,0.886 0.498,0.676 0.498,0.25 Z"
             inkscape:connector-curvature="0" /></g><g
           transform="translate(249.4298,64.3269)"
           id="g264"
           style="stroke-width:0.22544986"><path
             id="path266"
             style="fill:#6d6e71;fill-opacity:1;fill-rule:nonzero;stroke:none;stroke-width:0.22544986"
             d="m 0,0 c -0.499,0 -0.793,-0.378 -0.793,-0.877 0,-0.498 0.294,-0.88 0.793,-0.88 0.498,0 0.792,0.382 0.792,0.88 C 0.792,-0.378 0.498,0 0,0 M 1.275,-2.131 H 0.792 v 0.399 H 0.781 c -0.204,-0.305 -0.514,-0.456 -0.876,-0.456 -0.74,0 -1.212,0.566 -1.212,1.306 0,0.734 0.472,1.291 1.202,1.291 0.405,0 0.698,-0.179 0.871,-0.436 h 0.01 V 1.49 h 0.499 z"
             inkscape:connector-curvature="0" /></g><path
           id="path268"
           style="fill:#6d6e71;fill-opacity:1;fill-rule:nonzero;stroke:none;stroke-width:0.22544986"
           d="m 251.947,62.195 h -0.504 v 2.494 h 0.504 z m -0.251,3.003 c -0.195,0 -0.331,0.131 -0.331,0.308 0,0.18 0.136,0.311 0.331,0.311 0.188,0 0.325,-0.131 0.325,-0.311 0,-0.177 -0.137,-0.308 -0.325,-0.308"
           inkscape:connector-curvature="0" /><g
           transform="translate(254.4602,63.6595)"
           id="g270"
           style="stroke-width:0.22544986"><path
             id="path272"
             style="fill:#6d6e71;fill-opacity:1;fill-rule:nonzero;stroke:none;stroke-width:0.22544986"
             d="M 0,0 C -0.004,0.279 -0.215,0.715 -0.718,0.715 -1.217,0.715 -1.438,0.3 -1.453,0 Z m 0.462,-0.335 h -1.92 c 0.025,-0.493 0.34,-0.793 0.802,-0.793 0.468,0 0.766,0.252 0.824,0.289 l 0.21,-0.289 c -0.031,-0.026 -0.352,-0.393 -1.096,-0.393 -0.74,0 -1.25,0.515 -1.25,1.307 0,0.787 0.573,1.291 1.265,1.291 0.692,0 1.181,-0.495 1.181,-1.191 0,-0.096 -0.016,-0.221 -0.016,-0.221"
             inkscape:connector-curvature="0" /></g><g
           transform="translate(257.6034,62.1955)"
           id="g274"
           style="stroke-width:0.22544986"><path
             id="path276"
             style="fill:#6d6e71;fill-opacity:1;fill-rule:nonzero;stroke:none;stroke-width:0.22544986"
             d="m 0,0 h -0.504 v 1.391 c 0,0.42 -0.073,0.735 -0.52,0.735 -0.467,0 -0.64,-0.394 -0.64,-0.872 V 0 h -0.503 v 2.494 h 0.503 L -1.669,2.1 h 0.015 c 0.131,0.247 0.399,0.441 0.761,0.441 C -0.184,2.541 0,2.073 0,1.475 Z"
             inkscape:connector-curvature="0" /></g><g
           transform="translate(260.4559,64.3269)"
           id="g278"
           style="stroke-width:0.22544986"><path
             id="path280"
             style="fill:#6d6e71;fill-opacity:1;fill-rule:nonzero;stroke:none;stroke-width:0.22544986"
             d="m 0,0 c -0.499,0 -0.792,-0.378 -0.792,-0.877 0,-0.498 0.293,-0.88 0.792,-0.88 0.499,0 0.793,0.382 0.793,0.88 C 0.793,-0.378 0.499,0 0,0 M 1.276,-2.131 H 0.793 v 0.399 H 0.782 c -0.205,-0.305 -0.514,-0.456 -0.876,-0.456 -0.74,0 -1.212,0.566 -1.212,1.306 0,0.734 0.472,1.291 1.202,1.291 0.404,0 0.697,-0.179 0.87,-0.436 H 0.777 V 1.49 h 0.499 z"
             inkscape:connector-curvature="0" /></g><g
           transform="translate(264.2493,63.6595)"
           id="g282"
           style="stroke-width:0.22544986"><path
             id="path284"
             style="fill:#6d6e71;fill-opacity:1;fill-rule:nonzero;stroke:none;stroke-width:0.22544986"
             d="M 0,0 C -0.006,0.279 -0.215,0.715 -0.719,0.715 -1.217,0.715 -1.438,0.3 -1.453,0 Z m 0.462,-0.335 h -1.921 c 0.026,-0.493 0.342,-0.793 0.803,-0.793 0.467,0 0.766,0.252 0.824,0.289 l 0.21,-0.289 c -0.031,-0.026 -0.352,-0.393 -1.097,-0.393 -0.74,0 -1.249,0.515 -1.249,1.307 0,0.787 0.572,1.291 1.265,1.291 0.693,0 1.181,-0.495 1.181,-1.191 0,-0.096 -0.016,-0.221 -0.016,-0.221"
             inkscape:connector-curvature="0" /></g><g
           transform="translate(267.6273,64.228)"
           id="g286"
           style="stroke-width:0.22544986"><path
             id="path288"
             style="fill:#6d6e71;fill-opacity:1;fill-rule:nonzero;stroke:none;stroke-width:0.22544986"
             d="m 0,0 h -0.02 c -0.048,0.02 -0.138,0.051 -0.273,0.051 -0.221,0 -0.357,-0.142 -0.41,-0.209 -0.047,-0.068 -0.152,-0.263 -0.152,-0.63 v -1.245 h -0.503 v 2.494 h 0.503 L -0.86,0.077 h 0.016 c 0.121,0.284 0.346,0.431 0.614,0.431 0.167,0 0.262,-0.042 0.262,-0.042 z"
             inkscape:connector-curvature="0" /></g><g
           transform="translate(269.7464,63.6595)"
           id="g290"
           style="stroke-width:0.22544986"><path
             id="path292"
             style="fill:#6d6e71;fill-opacity:1;fill-rule:nonzero;stroke:none;stroke-width:0.22544986"
             d="M 0,0 C -0.004,0.279 -0.214,0.715 -0.718,0.715 -1.217,0.715 -1.437,0.3 -1.453,0 Z m 0.462,-0.335 h -1.92 c 0.026,-0.493 0.342,-0.793 0.803,-0.793 0.467,0 0.766,0.252 0.823,0.289 l 0.211,-0.289 c -0.032,-0.026 -0.352,-0.393 -1.097,-0.393 -0.74,0 -1.249,0.515 -1.249,1.307 0,0.787 0.572,1.291 1.265,1.291 0.693,0 1.18,-0.495 1.18,-1.191 0,-0.096 -0.016,-0.221 -0.016,-0.221"
             inkscape:connector-curvature="0" /></g><g
           transform="translate(272.8109,62.5158)"
           id="g294"
           style="stroke-width:0.22544986"><path
             id="path296"
             style="fill:#6d6e71;fill-opacity:1;fill-rule:nonzero;stroke:none;stroke-width:0.22544986"
             d="m 0,0 c -0.073,-0.073 -0.33,-0.377 -0.997,-0.377 -0.671,0 -1.259,0.503 -1.259,1.302 0,0.801 0.614,1.295 1.275,1.295 0.666,0 0.94,-0.326 0.966,-0.357 L -0.194,1.495 c -0.084,0.086 -0.304,0.306 -0.746,0.306 -0.44,0 -0.807,-0.336 -0.807,-0.861 0,-0.524 0.33,-0.886 0.813,-0.886 0.488,0 0.756,0.314 0.756,0.314 z"
             inkscape:connector-curvature="0" /></g><g
           transform="translate(275.4079,62.1955)"
           id="g298"
           style="stroke-width:0.22544986"><path
             id="path300"
             style="fill:#6d6e71;fill-opacity:1;fill-rule:nonzero;stroke:none;stroke-width:0.22544986"
             d="m 0,0 h -0.504 v 1.413 c 0,0.356 -0.058,0.713 -0.515,0.713 -0.456,0 -0.65,-0.394 -0.65,-0.893 V 0 h -0.498 v 3.621 h 0.498 V 2.1 h 0.01 c 0.132,0.247 0.405,0.441 0.766,0.441 C -0.174,2.541 0,2.079 0,1.486 Z"
             inkscape:connector-curvature="0" /></g><g
           transform="translate(277.8887,63.6595)"
           id="g302"
           style="stroke-width:0.22544986"><path
             id="path304"
             style="fill:#6d6e71;fill-opacity:1;fill-rule:nonzero;stroke:none;stroke-width:0.22544986"
             d="M 0,0 C -0.006,0.279 -0.215,0.715 -0.719,0.715 -1.217,0.715 -1.438,0.3 -1.453,0 Z m 0.462,-0.335 h -1.92 c 0.026,-0.493 0.34,-0.793 0.802,-0.793 0.468,0 0.766,0.252 0.824,0.289 l 0.21,-0.289 c -0.031,-0.026 -0.352,-0.393 -1.097,-0.393 -0.739,0 -1.249,0.515 -1.249,1.307 0,0.787 0.572,1.291 1.265,1.291 0.692,0 1.18,-0.495 1.18,-1.191 0,-0.096 -0.015,-0.221 -0.015,-0.221"
             inkscape:connector-curvature="0" /></g><g
           transform="translate(280.2237,64.228)"
           id="g306"
           style="stroke-width:0.22544986"><path
             id="path308"
             style="fill:#6d6e71;fill-opacity:1;fill-rule:nonzero;stroke:none;stroke-width:0.22544986"
             d="m 0,0 h -0.021 c -0.048,0.02 -0.137,0.051 -0.273,0.051 -0.221,0 -0.357,-0.142 -0.409,-0.209 -0.048,-0.068 -0.153,-0.263 -0.153,-0.63 v -1.245 h -0.503 v 2.494 h 0.503 L -0.861,0.077 h 0.016 c 0.12,0.284 0.346,0.431 0.613,0.431 0.168,0 0.263,-0.042 0.263,-0.042 z"
             inkscape:connector-curvature="0" /></g><g
           transform="translate(282.6318,62.5158)"
           id="g310"
           style="stroke-width:0.22544986"><path
             id="path312"
             style="fill:#6d6e71;fill-opacity:1;fill-rule:nonzero;stroke:none;stroke-width:0.22544986"
             d="m 0,0 c -0.074,-0.073 -0.33,-0.377 -0.997,-0.377 -0.672,0 -1.26,0.503 -1.26,1.302 0,0.801 0.615,1.295 1.275,1.295 0.667,0 0.939,-0.326 0.966,-0.357 L -0.195,1.495 c -0.083,0.086 -0.304,0.306 -0.745,0.306 -0.441,0 -0.808,-0.336 -0.808,-0.861 0,-0.524 0.331,-0.886 0.813,-0.886 0.488,0 0.756,0.314 0.756,0.314 z"
             inkscape:connector-curvature="0" /></g><g
           transform="translate(285.2283,62.1955)"
           id="g314"
           style="stroke-width:0.22544986"><path
             id="path316"
             style="fill:#6d6e71;fill-opacity:1;fill-rule:nonzero;stroke:none;stroke-width:0.22544986"
             d="m 0,0 h -0.504 v 1.413 c 0,0.356 -0.058,0.713 -0.514,0.713 -0.457,0 -0.651,-0.394 -0.651,-0.893 V 0 h -0.498 v 3.621 h 0.498 V 2.1 h 0.011 c 0.13,0.247 0.404,0.441 0.766,0.441 C -0.173,2.541 0,2.079 0,1.486 Z"
             inkscape:connector-curvature="0" /></g><g
           transform="translate(287.7092,63.6595)"
           id="g318"
           style="stroke-width:0.22544986"><path
             id="path320"
             style="fill:#6d6e71;fill-opacity:1;fill-rule:nonzero;stroke:none;stroke-width:0.22544986"
             d="M 0,0 C -0.005,0.279 -0.215,0.715 -0.718,0.715 -1.217,0.715 -1.437,0.3 -1.453,0 Z m 0.462,-0.335 h -1.92 c 0.026,-0.493 0.341,-0.793 0.802,-0.793 0.468,0 0.766,0.252 0.824,0.289 l 0.21,-0.289 c -0.032,-0.026 -0.352,-0.393 -1.096,-0.393 -0.74,0 -1.249,0.515 -1.249,1.307 0,0.787 0.571,1.291 1.264,1.291 0.692,0 1.18,-0.495 1.18,-1.191 0,-0.096 -0.015,-0.221 -0.015,-0.221"
             inkscape:connector-curvature="0" /></g><g
           transform="translate(291.1503,62.3592)"
           id="g322"
           style="stroke-width:0.22544986"><path
             id="path324"
             style="fill:#6d6e71;fill-opacity:1;fill-rule:nonzero;stroke:none;stroke-width:0.22544986"
             d="m 0,0 c -0.172,-0.143 -0.404,-0.221 -0.693,-0.221 -0.419,0 -0.76,0.173 -0.969,0.447 l 0.241,0.294 c 0.188,-0.231 0.504,-0.357 0.733,-0.357 0.232,0 0.479,0.083 0.479,0.357 0,0.273 -0.394,0.357 -0.562,0.414 -0.168,0.059 -0.225,0.068 -0.341,0.131 -0.157,0.079 -0.393,0.242 -0.393,0.597 0,0.463 0.398,0.715 0.839,0.715 0.441,0 0.693,-0.157 0.85,-0.327 l -0.21,-0.308 c -0.146,0.152 -0.388,0.268 -0.63,0.268 -0.241,0 -0.399,-0.106 -0.399,-0.31 0,-0.206 0.242,-0.294 0.489,-0.372 C -0.43,1.279 -0.335,1.249 -0.23,1.207 -0.131,1.165 -0.015,1.101 0.058,1.028 0.153,0.938 0.258,0.793 0.258,0.566 0.258,0.324 0.163,0.136 0,0"
             inkscape:connector-curvature="0" /></g><g
           transform="translate(294.0208,62.1955)"
           id="g326"
           style="stroke-width:0.22544986"><path
             id="path328"
             style="fill:#6d6e71;fill-opacity:1;fill-rule:nonzero;stroke:none;stroke-width:0.22544986"
             d="m 0,0 h -0.488 l -0.005,0.358 c -0.137,-0.242 -0.42,-0.415 -0.772,-0.415 -0.357,0 -0.562,0.121 -0.693,0.289 -0.126,0.168 -0.183,0.414 -0.183,0.771 v 1.495 h 0.498 V 1.025 c 0,-0.341 0.074,-0.661 0.52,-0.661 0.44,0 0.619,0.377 0.619,0.797 V 2.498 H 0 Z"
             inkscape:connector-curvature="0" /></g><g
           transform="translate(296.0712,64.228)"
           id="g330"
           style="stroke-width:0.22544986"><path
             id="path332"
             style="fill:#6d6e71;fill-opacity:1;fill-rule:nonzero;stroke:none;stroke-width:0.22544986"
             d="m 0,0 h -0.021 c -0.047,0.02 -0.137,0.051 -0.273,0.051 -0.22,0 -0.357,-0.142 -0.409,-0.209 -0.047,-0.068 -0.152,-0.263 -0.152,-0.63 v -1.245 h -0.504 v 2.494 h 0.504 L -0.861,0.077 h 0.016 c 0.122,0.284 0.347,0.431 0.614,0.431 0.168,0 0.262,-0.042 0.262,-0.042 z"
             inkscape:connector-curvature="0" /></g><path
           id="path334"
           style="fill:#6d6e71;fill-opacity:1;fill-rule:nonzero;stroke:none;stroke-width:0.22544986"
           d="m 218.27,55.901 h -0.499 v 3.621 h 0.499 z"
           inkscape:connector-curvature="0" /><g
           transform="translate(220.4275,57.0969)"
           id="g336"
           style="stroke-width:0.22544986"><path
             id="path338"
             style="fill:#6d6e71;fill-opacity:1;fill-rule:nonzero;stroke:none;stroke-width:0.22544986"
             d="m 0,0 -0.582,-0.036 c -0.405,-0.021 -0.568,-0.195 -0.568,-0.43 0,-0.237 0.183,-0.431 0.514,-0.431 0.326,0 0.541,0.221 0.636,0.363 z M 0.497,-1.196 H 0.009 l -0.005,0.314 c -0.099,-0.105 -0.335,-0.372 -0.792,-0.372 -0.461,0 -0.861,0.289 -0.861,0.772 0,0.488 0.4,0.735 0.977,0.76 l 0.666,0.027 v 0.099 c 0,0.379 -0.257,0.568 -0.62,0.568 -0.361,0 -0.666,-0.165 -0.749,-0.216 l -0.153,0.335 c 0.184,0.105 0.52,0.253 0.934,0.253 0.415,0 0.656,-0.115 0.824,-0.284 C 0.398,0.887 0.497,0.678 0.497,0.253 Z"
             inkscape:connector-curvature="0" /></g><g
           transform="translate(224.0358,56.0639)"
           id="g340"
           style="stroke-width:0.22544986"><path
             id="path342"
             style="fill:#6d6e71;fill-opacity:1;fill-rule:nonzero;stroke:none;stroke-width:0.22544986"
             d="m 0,0 c -0.173,-0.142 -0.404,-0.221 -0.693,-0.221 -0.42,0 -0.76,0.172 -0.97,0.447 l 0.241,0.294 c 0.189,-0.232 0.504,-0.357 0.734,-0.357 0.231,0 0.478,0.084 0.478,0.357 0,0.272 -0.393,0.356 -0.561,0.414 -0.168,0.058 -0.226,0.068 -0.342,0.132 -0.157,0.077 -0.394,0.24 -0.394,0.598 0,0.46 0.4,0.713 0.841,0.713 0.44,0 0.693,-0.157 0.85,-0.325 l -0.21,-0.31 c -0.147,0.152 -0.389,0.268 -0.63,0.268 -0.242,0 -0.399,-0.106 -0.399,-0.31 0,-0.205 0.242,-0.295 0.489,-0.372 0.136,-0.049 0.23,-0.08 0.335,-0.121 0.1,-0.042 0.216,-0.105 0.289,-0.178 C 0.152,0.939 0.257,0.792 0.257,0.567 0.257,0.324 0.162,0.136 0,0"
             inkscape:connector-curvature="0" /></g><g
           transform="translate(226.2237,57.0969)"
           id="g344"
           style="stroke-width:0.22544986"><path
             id="path346"
             style="fill:#6d6e71;fill-opacity:1;fill-rule:nonzero;stroke:none;stroke-width:0.22544986"
             d="m 0,0 -0.582,-0.036 c -0.405,-0.021 -0.567,-0.195 -0.567,-0.43 0,-0.237 0.183,-0.431 0.514,-0.431 0.325,0 0.541,0.221 0.635,0.363 z M 0.498,-1.196 H 0.011 l -0.006,0.314 c -0.099,-0.105 -0.336,-0.372 -0.793,-0.372 -0.461,0 -0.86,0.289 -0.86,0.772 0,0.488 0.399,0.735 0.976,0.76 l 0.666,0.027 v 0.099 c 0,0.379 -0.257,0.568 -0.618,0.568 -0.363,0 -0.667,-0.165 -0.752,-0.216 l -0.151,0.335 c 0.184,0.105 0.519,0.253 0.934,0.253 0.414,0 0.656,-0.115 0.823,-0.284 C 0.399,0.887 0.498,0.678 0.498,0.253 Z"
             inkscape:connector-curvature="0" /></g><g
           transform="translate(229.534,55.9006)"
           id="g348"
           style="stroke-width:0.22544986"><path
             id="path350"
             style="fill:#6d6e71;fill-opacity:1;fill-rule:nonzero;stroke:none;stroke-width:0.22544986"
             d="m 0,0 h -0.504 v 1.391 c 0,0.42 -0.074,0.734 -0.519,0.734 -0.468,0 -0.641,-0.392 -0.641,-0.871 V 0 h -0.503 v 2.493 h 0.503 L -1.669,2.099 h 0.016 c 0.13,0.247 0.399,0.441 0.76,0.441 C -0.184,2.54 0,2.073 0,1.475 Z"
             inkscape:connector-curvature="0" /></g><g
           transform="translate(231.4167,55.9269)"
           id="g352"
           style="stroke-width:0.22544986"><path
             id="path354"
             style="fill:#6d6e71;fill-opacity:1;fill-rule:nonzero;stroke:none;stroke-width:0.22544986"
             d="m 0,0 c 0,0 -0.195,-0.084 -0.457,-0.084 -0.261,0 -0.425,0.1 -0.53,0.258 -0.105,0.156 -0.125,0.351 -0.125,0.745 V 2.057 H -1.48 v 0.405 h 0.368 v 0.744 h 0.504 V 2.462 h 0.597 V 2.057 H -0.608 V 0.929 c 0,-0.21 0.005,-0.352 0.062,-0.456 0.047,-0.079 0.116,-0.126 0.258,-0.126 0.146,0 0.257,0.057 0.257,0.057 z"
             inkscape:connector-curvature="0" /></g><g
           transform="translate(233.5415,59.5212)"
           id="g356"
           style="stroke-width:0.22544986"><path
             id="path358"
             style="fill:#6d6e71;fill-opacity:1;fill-rule:nonzero;stroke:none;stroke-width:0.22544986"
             d="M 0,0 -0.577,-0.76 H -0.96 L -0.493,0 Z m 0.042,-2.157 c -0.005,0.279 -0.215,0.715 -0.718,0.715 -0.5,0 -0.719,-0.415 -0.735,-0.715 z m 0.462,-0.335 h -1.921 c 0.027,-0.493 0.341,-0.793 0.803,-0.793 0.467,0 0.766,0.252 0.824,0.289 L 0.419,-3.285 C 0.388,-3.31 0.068,-3.678 -0.676,-3.678 c -0.741,0 -1.25,0.514 -1.25,1.306 0,0.788 0.573,1.291 1.265,1.291 0.692,0 1.18,-0.493 1.18,-1.191 0,-0.095 -0.015,-0.22 -0.015,-0.22"
             inkscape:connector-curvature="0" /></g><g
           transform="translate(236.7417,58.0304)"
           id="g360"
           style="stroke-width:0.22544986"><path
             id="path362"
             style="fill:#6d6e71;fill-opacity:1;fill-rule:nonzero;stroke:none;stroke-width:0.22544986"
             d="m 0,0 c -0.499,0 -0.792,-0.377 -0.792,-0.876 0,-0.497 0.293,-0.881 0.792,-0.881 0.498,0 0.792,0.384 0.792,0.881 C 0.792,-0.377 0.498,0 0,0 M 1.275,-2.13 H 0.792 v 0.399 H 0.781 c -0.204,-0.303 -0.514,-0.456 -0.876,-0.456 -0.74,0 -1.212,0.566 -1.212,1.306 0,0.735 0.472,1.291 1.202,1.291 0.404,0 0.698,-0.178 0.871,-0.436 h 0.01 v 1.517 h 0.499 z"
             inkscape:connector-curvature="0" /></g><g
           transform="translate(240.5339,57.3646)"
           id="g364"
           style="stroke-width:0.22544986"><path
             id="path366"
             style="fill:#6d6e71;fill-opacity:1;fill-rule:nonzero;stroke:none;stroke-width:0.22544986"
             d="M 0,0 C -0.005,0.279 -0.215,0.714 -0.718,0.714 -1.217,0.714 -1.437,0.3 -1.453,0 Z m 0.462,-0.335 h -1.92 c 0.026,-0.493 0.341,-0.794 0.802,-0.794 0.467,0 0.767,0.252 0.824,0.29 l 0.21,-0.29 c -0.032,-0.025 -0.352,-0.393 -1.096,-0.393 -0.74,0 -1.249,0.515 -1.249,1.307 0,0.787 0.571,1.291 1.264,1.291 0.693,0 1.18,-0.493 1.18,-1.191 0,-0.095 -0.015,-0.22 -0.015,-0.22"
             inkscape:connector-curvature="0" /></g><g
           transform="translate(242.932,56.0639)"
           id="g368"
           style="stroke-width:0.22544986"><path
             id="path370"
             style="fill:#6d6e71;fill-opacity:1;fill-rule:nonzero;stroke:none;stroke-width:0.22544986"
             d="m 0,0 c -0.173,-0.142 -0.404,-0.221 -0.693,-0.221 -0.42,0 -0.76,0.172 -0.971,0.447 l 0.241,0.294 c 0.19,-0.232 0.504,-0.357 0.735,-0.357 0.231,0 0.477,0.084 0.477,0.357 0,0.272 -0.393,0.356 -0.561,0.414 -0.167,0.058 -0.225,0.068 -0.341,0.132 -0.157,0.077 -0.393,0.24 -0.393,0.598 0,0.46 0.399,0.713 0.839,0.713 0.441,0 0.693,-0.157 0.85,-0.325 l -0.21,-0.31 c -0.146,0.152 -0.388,0.268 -0.629,0.268 -0.242,0 -0.399,-0.106 -0.399,-0.31 0,-0.205 0.241,-0.295 0.488,-0.372 0.137,-0.049 0.23,-0.08 0.336,-0.121 0.1,-0.042 0.215,-0.105 0.289,-0.178 C 0.152,0.939 0.257,0.792 0.257,0.567 0.257,0.324 0.162,0.136 0,0"
             inkscape:connector-curvature="0" /></g><g
           transform="translate(248.3358,55.9006)"
           id="g372"
           style="stroke-width:0.22544986"><path
             id="path374"
             style="fill:#6d6e71;fill-opacity:1;fill-rule:nonzero;stroke:none;stroke-width:0.22544986"
             d="m 0,0 h -0.499 v 1.454 c 0,0.289 -0.052,0.671 -0.456,0.671 -0.399,0 -0.598,-0.382 -0.598,-0.828 V 0 h -0.504 v 1.454 c 0,0.367 -0.089,0.671 -0.451,0.671 -0.399,0 -0.598,-0.382 -0.598,-0.828 V 0 h -0.505 v 2.493 h 0.505 L -3.112,2.099 h 0.016 c 0.115,0.23 0.388,0.441 0.719,0.441 0.367,0 0.624,-0.168 0.74,-0.493 0.167,0.315 0.44,0.493 0.792,0.493 C -0.179,2.54 0,2.052 0,1.512 Z"
             inkscape:connector-curvature="0" /></g><path
           id="path376"
           style="fill:#6d6e71;fill-opacity:1;fill-rule:nonzero;stroke:none;stroke-width:0.22544986"
           d="m 249.531,55.901 h -0.504 v 2.493 h 0.504 z m -0.252,3.003 c -0.195,0 -0.331,0.131 -0.331,0.308 0,0.178 0.136,0.309 0.331,0.309 0.189,0 0.325,-0.131 0.325,-0.309 0,-0.177 -0.136,-0.308 -0.325,-0.308"
           inkscape:connector-curvature="0" /><path
           id="path378"
           style="fill:#6d6e71;fill-opacity:1;fill-rule:nonzero;stroke:none;stroke-width:0.22544986"
           d="m 250.769,55.901 h -0.498 v 3.621 h 0.498 z"
           inkscape:connector-curvature="0" /><path
           id="path380"
           style="fill:#6d6e71;fill-opacity:1;fill-rule:nonzero;stroke:none;stroke-width:0.22544986"
           d="m 252.012,55.901 h -0.504 v 2.493 h 0.504 z m -0.252,3.003 c -0.194,0 -0.33,0.131 -0.33,0.308 0,0.178 0.136,0.309 0.33,0.309 0.189,0 0.326,-0.131 0.326,-0.309 0,-0.177 -0.137,-0.308 -0.326,-0.308"
           inkscape:connector-curvature="0" /><g
           transform="translate(253.938,55.9269)"
           id="g382"
           style="stroke-width:0.22544986"><path
             id="path384"
             style="fill:#6d6e71;fill-opacity:1;fill-rule:nonzero;stroke:none;stroke-width:0.22544986"
             d="m 0,0 c 0,0 -0.195,-0.084 -0.457,-0.084 -0.262,0 -0.425,0.1 -0.53,0.258 -0.105,0.156 -0.125,0.351 -0.125,0.745 V 2.057 H -1.48 v 0.405 h 0.368 v 0.744 h 0.503 V 2.462 h 0.598 V 2.057 H -0.609 V 0.929 c 0,-0.21 0.005,-0.352 0.063,-0.456 0.047,-0.079 0.116,-0.126 0.257,-0.126 0.147,0 0.258,0.057 0.258,0.057 z"
             inkscape:connector-curvature="0" /></g><g
           transform="translate(255.795,57.0969)"
           id="g386"
           style="stroke-width:0.22544986"><path
             id="path388"
             style="fill:#6d6e71;fill-opacity:1;fill-rule:nonzero;stroke:none;stroke-width:0.22544986"
             d="m 0,0 -0.583,-0.036 c -0.404,-0.021 -0.567,-0.195 -0.567,-0.43 0,-0.237 0.184,-0.431 0.515,-0.431 0.325,0 0.54,0.221 0.635,0.363 z M 0.499,-1.196 H 0.01 l -0.005,0.314 c -0.1,-0.105 -0.336,-0.372 -0.793,-0.372 -0.461,0 -0.86,0.289 -0.86,0.772 0,0.488 0.399,0.735 0.976,0.76 l 0.667,0.027 v 0.099 c 0,0.379 -0.257,0.568 -0.62,0.568 -0.362,0 -0.666,-0.165 -0.75,-0.216 l -0.152,0.335 c 0.184,0.105 0.519,0.253 0.934,0.253 0.415,0 0.656,-0.115 0.824,-0.284 C 0.399,0.887 0.499,0.678 0.499,0.253 Z"
             inkscape:connector-curvature="0" /></g><path
           id="path390"
           style="fill:#6d6e71;fill-opacity:1;fill-rule:nonzero;stroke:none;stroke-width:0.22544986"
           d="m 257.463,55.901 h -0.504 v 2.493 h 0.504 z m -0.253,3.003 c -0.194,0 -0.33,0.131 -0.33,0.308 0,0.178 0.136,0.309 0.33,0.309 0.19,0 0.326,-0.131 0.326,-0.309 0,-0.177 -0.136,-0.308 -0.326,-0.308"
           inkscape:connector-curvature="0" /><g
           transform="translate(259.5347,57.932)"
           id="g392"
           style="stroke-width:0.22544986"><path
             id="path394"
             style="fill:#6d6e71;fill-opacity:1;fill-rule:nonzero;stroke:none;stroke-width:0.22544986"
             d="m 0,0 h -0.021 c -0.047,0.021 -0.137,0.052 -0.272,0.052 -0.221,0 -0.358,-0.143 -0.41,-0.21 -0.047,-0.067 -0.152,-0.262 -0.152,-0.629 v -1.244 h -0.503 v 2.492 h 0.503 L -0.86,0.079 h 0.016 c 0.121,0.282 0.346,0.43 0.613,0.43 0.168,0 0.262,-0.042 0.262,-0.042 z"
             inkscape:connector-curvature="0" /></g><g
           transform="translate(261.655,57.3646)"
           id="g396"
           style="stroke-width:0.22544986"><path
             id="path398"
             style="fill:#6d6e71;fill-opacity:1;fill-rule:nonzero;stroke:none;stroke-width:0.22544986"
             d="M 0,0 C -0.006,0.279 -0.215,0.714 -0.72,0.714 -1.217,0.714 -1.438,0.3 -1.454,0 Z m 0.461,-0.335 h -1.92 c 0.026,-0.493 0.341,-0.794 0.803,-0.794 0.467,0 0.766,0.252 0.824,0.29 l 0.209,-0.29 C 0.346,-1.154 0.026,-1.522 -0.72,-1.522 c -0.739,0 -1.248,0.515 -1.248,1.307 0,0.787 0.572,1.291 1.265,1.291 0.692,0 1.18,-0.493 1.18,-1.191 0,-0.095 -0.016,-0.22 -0.016,-0.22"
             inkscape:connector-curvature="0" /></g><g
           transform="translate(264.0519,56.0639)"
           id="g400"
           style="stroke-width:0.22544986"><path
             id="path402"
             style="fill:#6d6e71;fill-opacity:1;fill-rule:nonzero;stroke:none;stroke-width:0.22544986"
             d="m 0,0 c -0.174,-0.142 -0.405,-0.221 -0.693,-0.221 -0.419,0 -0.761,0.172 -0.971,0.447 l 0.242,0.294 c 0.188,-0.232 0.503,-0.357 0.734,-0.357 0.231,0 0.478,0.084 0.478,0.357 0,0.272 -0.394,0.356 -0.561,0.414 -0.169,0.058 -0.226,0.068 -0.341,0.132 -0.158,0.077 -0.394,0.24 -0.394,0.598 0,0.46 0.399,0.713 0.839,0.713 0.441,0 0.693,-0.157 0.851,-0.325 l -0.21,-0.31 c -0.148,0.152 -0.389,0.268 -0.63,0.268 -0.241,0 -0.399,-0.106 -0.399,-0.31 0,-0.205 0.241,-0.295 0.488,-0.372 0.137,-0.049 0.23,-0.08 0.336,-0.121 0.1,-0.042 0.215,-0.105 0.289,-0.178 C 0.152,0.939 0.257,0.792 0.257,0.567 0.257,0.324 0.163,0.136 0,0"
             inkscape:connector-curvature="0" /></g><g
           transform="translate(267.6452,57.3646)"
           id="g404"
           style="stroke-width:0.22544986"><path
             id="path406"
             style="fill:#6d6e71;fill-opacity:1;fill-rule:nonzero;stroke:none;stroke-width:0.22544986"
             d="M 0,0 C -0.005,0.279 -0.215,0.714 -0.718,0.714 -1.217,0.714 -1.438,0.3 -1.453,0 Z m 0.461,-0.335 h -1.919 c 0.025,-0.493 0.341,-0.794 0.802,-0.794 0.468,0 0.766,0.252 0.824,0.29 l 0.21,-0.29 c -0.032,-0.025 -0.352,-0.393 -1.096,-0.393 -0.74,0 -1.249,0.515 -1.249,1.307 0,0.787 0.571,1.291 1.263,1.291 0.693,0 1.181,-0.493 1.181,-1.191 0,-0.095 -0.016,-0.22 -0.016,-0.22"
             inkscape:connector-curvature="0" /></g><g
           transform="translate(269.8325,55.9269)"
           id="g408"
           style="stroke-width:0.22544986"><path
             id="path410"
             style="fill:#6d6e71;fill-opacity:1;fill-rule:nonzero;stroke:none;stroke-width:0.22544986"
             d="m 0,0 c 0,0 -0.193,-0.084 -0.456,-0.084 -0.262,0 -0.425,0.1 -0.53,0.258 -0.105,0.156 -0.126,0.351 -0.126,0.745 V 2.057 H -1.48 v 0.405 h 0.368 v 0.744 h 0.503 V 2.462 H -0.01 V 2.057 H -0.609 V 0.929 c 0,-0.21 0.006,-0.352 0.063,-0.456 0.047,-0.079 0.116,-0.126 0.258,-0.126 0.146,0 0.257,0.057 0.257,0.057 z"
             inkscape:connector-curvature="0" /></g><g
           transform="translate(272.4352,58.0304)"
           id="g412"
           style="stroke-width:0.22544986"><path
             id="path414"
             style="fill:#6d6e71;fill-opacity:1;fill-rule:nonzero;stroke:none;stroke-width:0.22544986"
             d="m 0,0 c -0.499,0 -0.793,-0.377 -0.793,-0.876 0,-0.497 0.294,-0.881 0.793,-0.881 0.498,0 0.792,0.384 0.792,0.881 C 0.792,-0.377 0.498,0 0,0 M 1.275,-2.13 H 0.792 v 0.399 H 0.781 c -0.205,-0.303 -0.514,-0.456 -0.876,-0.456 -0.74,0 -1.211,0.566 -1.211,1.306 0,0.735 0.471,1.291 1.201,1.291 0.404,0 0.697,-0.178 0.871,-0.436 h 0.01 v 1.517 h 0.499 z"
             inkscape:connector-curvature="0" /></g><g
           transform="translate(276.2269,57.3646)"
           id="g416"
           style="stroke-width:0.22544986"><path
             id="path418"
             style="fill:#6d6e71;fill-opacity:1;fill-rule:nonzero;stroke:none;stroke-width:0.22544986"
             d="M 0,0 C -0.004,0.279 -0.214,0.714 -0.718,0.714 -1.216,0.714 -1.437,0.3 -1.452,0 Z m 0.463,-0.335 h -1.921 c 0.026,-0.493 0.342,-0.794 0.803,-0.794 0.467,0 0.767,0.252 0.824,0.29 l 0.21,-0.29 c -0.032,-0.025 -0.352,-0.393 -1.097,-0.393 -0.74,0 -1.249,0.515 -1.249,1.307 0,0.787 0.572,1.291 1.265,1.291 0.692,0 1.181,-0.493 1.181,-1.191 0,-0.095 -0.016,-0.22 -0.016,-0.22"
             inkscape:connector-curvature="0" /></g><g
           transform="translate(278.6249,56.0639)"
           id="g420"
           style="stroke-width:0.22544986"><path
             id="path422"
             style="fill:#6d6e71;fill-opacity:1;fill-rule:nonzero;stroke:none;stroke-width:0.22544986"
             d="m 0,0 c -0.173,-0.142 -0.404,-0.221 -0.693,-0.221 -0.419,0 -0.76,0.172 -0.971,0.447 l 0.242,0.294 c 0.189,-0.232 0.504,-0.357 0.734,-0.357 0.231,0 0.478,0.084 0.478,0.357 0,0.272 -0.393,0.356 -0.561,0.414 -0.168,0.058 -0.226,0.068 -0.341,0.132 -0.158,0.077 -0.394,0.24 -0.394,0.598 0,0.46 0.399,0.713 0.839,0.713 0.442,0 0.693,-0.157 0.851,-0.325 l -0.21,-0.31 c -0.147,0.152 -0.388,0.268 -0.63,0.268 -0.241,0 -0.399,-0.106 -0.399,-0.31 0,-0.205 0.242,-0.295 0.488,-0.372 C -0.43,1.279 -0.335,1.248 -0.23,1.207 -0.131,1.165 -0.016,1.102 0.058,1.029 0.152,0.939 0.258,0.792 0.258,0.567 0.258,0.324 0.163,0.136 0,0"
             inkscape:connector-curvature="0" /></g><g
           transform="translate(282.5966,58.3932)"
           id="g424"
           style="stroke-width:0.22544986"><path
             id="path426"
             style="fill:#6d6e71;fill-opacity:1;fill-rule:nonzero;stroke:none;stroke-width:0.22544986"
             d="M 0,0 -1.04,-2.493 H -1.48 L -2.519,0 h 0.524 L -1.254,-1.878 -0.52,0 Z"
             inkscape:connector-curvature="0" /></g><g
           transform="translate(284.6526,59.5212)"
           id="g428"
           style="stroke-width:0.22544986"><path
             id="path430"
             style="fill:#6d6e71;fill-opacity:1;fill-rule:nonzero;stroke:none;stroke-width:0.22544986"
             d="M 0,0 -0.577,-0.76 H -0.96 L -0.493,0 Z m 0.042,-2.157 c -0.005,0.279 -0.215,0.715 -0.718,0.715 -0.499,0 -0.719,-0.415 -0.735,-0.715 z m 0.462,-0.335 h -1.92 c 0.026,-0.493 0.341,-0.793 0.802,-0.793 0.468,0 0.767,0.252 0.824,0.289 L 0.42,-3.285 C 0.389,-3.31 0.069,-3.678 -0.676,-3.678 c -0.74,0 -1.249,0.514 -1.249,1.306 0,0.788 0.571,1.291 1.264,1.291 0.693,0 1.181,-0.493 1.181,-1.191 0,-0.095 -0.016,-0.22 -0.016,-0.22"
             inkscape:connector-curvature="0" /></g><g
           transform="translate(286.8818,55.9269)"
           id="g432"
           style="stroke-width:0.22544986"><path
             id="path434"
             style="fill:#6d6e71;fill-opacity:1;fill-rule:nonzero;stroke:none;stroke-width:0.22544986"
             d="m 0,0 c 0,0 -0.194,-0.084 -0.456,-0.084 -0.263,0 -0.426,0.1 -0.53,0.258 -0.105,0.156 -0.126,0.351 -0.126,0.745 V 2.057 H -1.48 v 0.405 h 0.368 v 0.744 h 0.503 V 2.462 H -0.01 V 2.057 H -0.609 V 0.929 c 0,-0.21 0.006,-0.352 0.063,-0.456 0.048,-0.079 0.117,-0.126 0.258,-0.126 0.146,0 0.256,0.057 0.256,0.057 z"
             inkscape:connector-curvature="0" /></g><g
           transform="translate(289.0066,59.5212)"
           id="g436"
           style="stroke-width:0.22544986"><path
             id="path438"
             style="fill:#6d6e71;fill-opacity:1;fill-rule:nonzero;stroke:none;stroke-width:0.22544986"
             d="M 0,0 -0.577,-0.76 H -0.961 L -0.493,0 Z m 0.042,-2.157 c -0.005,0.279 -0.215,0.715 -0.719,0.715 -0.499,0 -0.718,-0.415 -0.735,-0.715 z m 0.462,-0.335 h -1.921 c 0.026,-0.493 0.341,-0.793 0.803,-0.793 0.467,0 0.766,0.252 0.824,0.289 L 0.42,-3.285 C 0.388,-3.31 0.068,-3.678 -0.677,-3.678 c -0.74,0 -1.249,0.514 -1.249,1.306 0,0.788 0.572,1.291 1.266,1.291 0.692,0 1.18,-0.493 1.18,-1.191 0,-0.095 -0.016,-0.22 -0.016,-0.22"
             inkscape:connector-curvature="0" /></g><g
           transform="translate(291.3834,57.932)"
           id="g440"
           style="stroke-width:0.22544986"><path
             id="path442"
             style="fill:#6d6e71;fill-opacity:1;fill-rule:nonzero;stroke:none;stroke-width:0.22544986"
             d="m 0,0 h -0.021 c -0.048,0.021 -0.137,0.052 -0.273,0.052 -0.22,0 -0.357,-0.143 -0.409,-0.21 -0.047,-0.067 -0.152,-0.262 -0.152,-0.629 v -1.244 h -0.504 v 2.492 h 0.504 L -0.861,0.079 h 0.016 c 0.121,0.282 0.346,0.43 0.614,0.43 0.167,0 0.262,-0.042 0.262,-0.042 z"
             inkscape:connector-curvature="0" /></g><g
           transform="translate(293.1141,57.0969)"
           id="g444"
           style="stroke-width:0.22544986"><path
             id="path446"
             style="fill:#6d6e71;fill-opacity:1;fill-rule:nonzero;stroke:none;stroke-width:0.22544986"
             d="m 0,0 -0.582,-0.036 c -0.404,-0.021 -0.567,-0.195 -0.567,-0.43 0,-0.237 0.184,-0.431 0.515,-0.431 0.324,0 0.54,0.221 0.634,0.363 z M 0.499,-1.196 H 0.011 l -0.005,0.314 c -0.1,-0.105 -0.336,-0.372 -0.792,-0.372 -0.462,0 -0.861,0.289 -0.861,0.772 0,0.488 0.399,0.735 0.976,0.76 l 0.667,0.027 v 0.099 c 0,0.379 -0.258,0.568 -0.62,0.568 -0.362,0 -0.666,-0.165 -0.751,-0.216 l -0.152,0.335 c 0.184,0.105 0.52,0.253 0.935,0.253 0.414,0 0.655,-0.115 0.823,-0.284 C 0.399,0.887 0.499,0.678 0.499,0.253 Z"
             inkscape:connector-curvature="0" /></g><g
           transform="translate(296.4244,55.9006)"
           id="g448"
           style="stroke-width:0.22544986"><path
             id="path450"
             style="fill:#6d6e71;fill-opacity:1;fill-rule:nonzero;stroke:none;stroke-width:0.22544986"
             d="m 0,0 h -0.504 v 1.391 c 0,0.42 -0.073,0.734 -0.519,0.734 -0.467,0 -0.639,-0.392 -0.639,-0.871 V 0 h -0.505 v 2.493 h 0.505 L -1.668,2.099 h 0.015 C -1.522,2.346 -1.254,2.54 -0.892,2.54 -0.183,2.54 0,2.073 0,1.475 Z"
             inkscape:connector-curvature="0" /></g><g
           transform="translate(298.5173,56.0639)"
           id="g452"
           style="stroke-width:0.22544986"><path
             id="path454"
             style="fill:#6d6e71;fill-opacity:1;fill-rule:nonzero;stroke:none;stroke-width:0.22544986"
             d="m 0,0 c -0.173,-0.142 -0.404,-0.221 -0.692,-0.221 -0.42,0 -0.761,0.172 -0.972,0.447 l 0.242,0.294 c 0.189,-0.232 0.504,-0.357 0.735,-0.357 0.231,0 0.477,0.084 0.477,0.357 0,0.272 -0.393,0.356 -0.561,0.414 -0.168,0.058 -0.226,0.068 -0.341,0.132 -0.158,0.077 -0.394,0.24 -0.394,0.598 0,0.46 0.399,0.713 0.84,0.713 0.441,0 0.693,-0.157 0.85,-0.325 l -0.21,-0.31 C -0.173,1.894 -0.414,2.01 -0.655,2.01 -0.897,2.01 -1.054,1.904 -1.054,1.7 -1.054,1.495 -0.813,1.405 -0.566,1.328 -0.43,1.279 -0.335,1.248 -0.23,1.207 -0.131,1.165 -0.016,1.102 0.058,1.029 0.153,0.939 0.258,0.792 0.258,0.567 0.258,0.324 0.163,0.136 0,0"
             inkscape:connector-curvature="0" /></g><g
           transform="translate(151.0467,70.9913)"
           id="g456"
           style="stroke-width:0.22544986"><path
             id="path458"
             style="fill:#6d6e71;fill-opacity:1;fill-rule:nonzero;stroke:none;stroke-width:0.22544986"
             d="m 0,0 c -0.507,-0.523 -1.565,-1.362 -3.606,-1.362 -2.94,0 -5.243,1.942 -5.243,5.156 0,3.23 2.332,5.156 5.243,5.156 2.056,0 3.172,-0.855 3.432,-1.13 L -0.898,5.879 c -0.188,0.247 -1.26,1.044 -2.578,1.044 -1.695,0 -2.998,-1.13 -2.998,-3.084 0,-1.957 1.361,-3.072 2.998,-3.072 1.246,0 2.144,0.492 2.694,1.057 z"
             inkscape:connector-curvature="0" /></g><path
           id="path460"
           style="fill:#6d6e71;fill-opacity:1;fill-rule:nonzero;stroke:none;stroke-width:0.22544986"
           d="m 154.466,69.804 h -2.346 v 9.994 h 2.346 z"
           inkscape:connector-curvature="0" /><g
           transform="translate(167.5015,69.8039)"
           id="g462"
           style="stroke-width:0.22544986"><path
             id="path464"
             style="fill:#6d6e71;fill-opacity:1;fill-rule:nonzero;stroke:none;stroke-width:0.22544986"
             d="m 0,0 h -2.304 l -0.39,6.806 H -2.723 L -4.867,0 H -6.721 L -8.879,6.806 H -8.922 L -9.284,0 h -2.303 l 0.753,9.994 h 2.955 l 2.086,-6.576 h 0.028 l 2.057,6.576 h 2.969 z"
             inkscape:connector-curvature="0" /></g><g
           transform="translate(177.6268,79.7979)"
           id="g466"
           style="stroke-width:0.22544986"><path
             id="path468"
             style="fill:#6d6e71;fill-opacity:1;fill-rule:nonzero;stroke:none;stroke-width:0.22544986"
             d="m 0,0 -3.708,-9.994 h -2.23 L -9.646,0 h 2.491 L -4.809,-6.881 -2.477,0 Z"
             inkscape:connector-curvature="0" /></g><g
           transform="translate(187.1867,69.8039)"
           id="g470"
           style="stroke-width:0.22544986"><path
             id="path472"
             style="fill:#6d6e71;fill-opacity:1;fill-rule:nonzero;stroke:none;stroke-width:0.22544986"
             d="M 0,0 H -2.347 V 4.184 H -6.358 V 0 h -2.347 v 9.994 h 2.347 V 6.125 h 4.011 V 9.994 H 0 Z"
             inkscape:connector-curvature="0" /></g><g
           transform="translate(193.4733,77.7251)"
           id="g474"
           style="stroke-width:0.22544986"><path
             id="path476"
             style="fill:#6d6e71;fill-opacity:1;fill-rule:nonzero;stroke:none;stroke-width:0.22544986"
             d="m 0,0 c -0.289,0.217 -0.666,0.261 -1.202,0.261 h -0.927 v -2.564 h 0.927 c 0.536,0 0.913,0.058 1.202,0.276 0.305,0.216 0.507,0.492 0.507,1.014 C 0.507,-0.506 0.305,-0.217 0,0 M 3.447,-7.921 H 0.724 l -2.1,3.822 h -0.738 v -3.822 h -2.347 v 9.994 h 3.592 c 1.116,0 1.984,-0.233 2.636,-0.712 0.666,-0.492 1.101,-1.289 1.101,-2.287 0,-1.897 -1.217,-2.637 -1.955,-2.869 z"
             inkscape:connector-curvature="0" /></g><g
           transform="translate(135.1549,62.6684)"
           id="g478"
           style="stroke-width:0.22544986"><path
             id="path480"
             style="fill:#6d6e71;fill-opacity:1;fill-rule:nonzero;stroke:none;stroke-width:0.22544986"
             d="m 0,0 c -0.226,-0.252 -0.636,-0.535 -1.322,-0.535 -1.055,0 -1.853,0.741 -1.853,1.868 0,1.128 0.813,1.868 1.853,1.868 0.676,0 1.086,-0.282 1.284,-0.477 l -0.215,-0.41 c -0.141,0.177 -0.545,0.442 -1.049,0.442 -0.782,0 -1.349,-0.561 -1.349,-1.413 0,-0.85 0.572,-1.411 1.349,-1.411 0.478,0 0.845,0.183 1.081,0.441 z"
             inkscape:connector-curvature="0" /></g><g
           transform="translate(137.0585,63.3934)"
           id="g482"
           style="stroke-width:0.22544986"><path
             id="path484"
             style="fill:#6d6e71;fill-opacity:1;fill-rule:nonzero;stroke:none;stroke-width:0.22544986"
             d="m 0,0 -0.582,-0.037 c -0.404,-0.021 -0.567,-0.195 -0.567,-0.431 0,-0.237 0.183,-0.43 0.514,-0.43 0.325,0 0.541,0.221 0.635,0.361 z M 0.499,-1.198 H 0.011 l -0.006,0.316 c -0.099,-0.105 -0.336,-0.373 -0.792,-0.373 -0.462,0 -0.861,0.289 -0.861,0.772 0,0.488 0.399,0.733 0.977,0.76 l 0.666,0.027 v 0.099 c 0,0.377 -0.258,0.567 -0.619,0.567 -0.362,0 -0.667,-0.163 -0.751,-0.216 l -0.152,0.337 c 0.184,0.104 0.52,0.252 0.934,0.252 0.414,0 0.655,-0.116 0.824,-0.284 C 0.398,0.886 0.499,0.676 0.499,0.25 Z"
             inkscape:connector-curvature="0" /></g><g
           transform="translate(140.3688,62.1955)"
           id="g486"
           style="stroke-width:0.22544986"><path
             id="path488"
             style="fill:#6d6e71;fill-opacity:1;fill-rule:nonzero;stroke:none;stroke-width:0.22544986"
             d="m 0,0 h -0.504 v 1.391 c 0,0.42 -0.073,0.735 -0.519,0.735 -0.468,0 -0.64,-0.394 -0.64,-0.872 V 0 h -0.504 v 2.494 h 0.504 L -1.669,2.1 h 0.016 c 0.131,0.247 0.399,0.441 0.761,0.441 C -0.184,2.541 0,2.073 0,1.475 Z"
             inkscape:connector-curvature="0" /></g><g
           transform="translate(142.4772,63.3934)"
           id="g490"
           style="stroke-width:0.22544986"><path
             id="path492"
             style="fill:#6d6e71;fill-opacity:1;fill-rule:nonzero;stroke:none;stroke-width:0.22544986"
             d="m 0,0 -0.582,-0.037 c -0.405,-0.021 -0.567,-0.195 -0.567,-0.431 0,-0.237 0.184,-0.43 0.514,-0.43 0.326,0 0.541,0.221 0.635,0.361 z M 0.499,-1.198 H 0.011 l -0.006,0.316 c -0.099,-0.105 -0.336,-0.373 -0.792,-0.373 -0.462,0 -0.861,0.289 -0.861,0.772 0,0.488 0.399,0.733 0.976,0.76 l 0.667,0.027 v 0.099 c 0,0.377 -0.258,0.567 -0.619,0.567 -0.363,0 -0.666,-0.163 -0.751,-0.216 l -0.152,0.337 c 0.184,0.104 0.519,0.252 0.934,0.252 0.415,0 0.656,-0.116 0.824,-0.284 C 0.399,0.886 0.499,0.676 0.499,0.25 Z"
             inkscape:connector-curvature="0" /></g><g
           transform="translate(144.7588,64.3269)"
           id="g494"
           style="stroke-width:0.22544986"><path
             id="path496"
             style="fill:#6d6e71;fill-opacity:1;fill-rule:nonzero;stroke:none;stroke-width:0.22544986"
             d="m 0,0 c -0.498,0 -0.792,-0.378 -0.792,-0.877 0,-0.498 0.294,-0.88 0.792,-0.88 0.499,0 0.793,0.382 0.793,0.88 C 0.793,-0.378 0.499,0 0,0 M 1.276,-2.131 H 0.793 v 0.399 h -0.01 c -0.205,-0.305 -0.515,-0.456 -0.877,-0.456 -0.74,0 -1.212,0.566 -1.212,1.306 0,0.734 0.472,1.291 1.202,1.291 0.404,0 0.697,-0.179 0.87,-0.436 H 0.777 V 1.49 h 0.499 z"
             inkscape:connector-curvature="0" /></g><path
           id="path498"
           style="fill:#6d6e71;fill-opacity:1;fill-rule:nonzero;stroke:none;stroke-width:0.22544986"
           d="m 147.278,62.195 h -0.504 v 2.494 h 0.504 z m -0.252,3.003 c -0.195,0 -0.331,0.131 -0.331,0.308 0,0.18 0.136,0.311 0.331,0.311 0.188,0 0.325,-0.131 0.325,-0.311 0,-0.177 -0.137,-0.308 -0.325,-0.308"
           inkscape:connector-curvature="0" /><g
           transform="translate(149.4284,63.3934)"
           id="g500"
           style="stroke-width:0.22544986"><path
             id="path502"
             style="fill:#6d6e71;fill-opacity:1;fill-rule:nonzero;stroke:none;stroke-width:0.22544986"
             d="m 0,0 -0.582,-0.037 c -0.405,-0.021 -0.567,-0.195 -0.567,-0.431 0,-0.237 0.184,-0.43 0.514,-0.43 0.325,0 0.541,0.221 0.635,0.361 z M 0.498,-1.198 H 0.011 l -0.006,0.316 c -0.099,-0.105 -0.336,-0.373 -0.792,-0.373 -0.462,0 -0.862,0.289 -0.862,0.772 0,0.488 0.4,0.733 0.977,0.76 l 0.667,0.027 v 0.099 c 0,0.377 -0.257,0.567 -0.62,0.567 -0.362,0 -0.666,-0.163 -0.75,-0.216 l -0.152,0.337 c 0.184,0.104 0.52,0.252 0.934,0.252 0.414,0 0.655,-0.116 0.824,-0.284 C 0.399,0.886 0.498,0.676 0.498,0.25 Z"
             inkscape:connector-curvature="0" /></g><g
           transform="translate(152.7389,62.1955)"
           id="g504"
           style="stroke-width:0.22544986"><path
             id="path506"
             style="fill:#6d6e71;fill-opacity:1;fill-rule:nonzero;stroke:none;stroke-width:0.22544986"
             d="m 0,0 h -0.504 v 1.391 c 0,0.42 -0.074,0.735 -0.519,0.735 -0.468,0 -0.641,-0.394 -0.641,-0.872 V 0 h -0.503 v 2.494 h 0.503 L -1.669,2.1 h 0.016 c 0.131,0.247 0.399,0.441 0.761,0.441 C -0.184,2.541 0,2.073 0,1.475 Z"
             inkscape:connector-curvature="0" /></g><path
           id="path508"
           style="fill:#6d6e71;fill-opacity:1;fill-rule:nonzero;stroke:none;stroke-width:0.22544986"
           d="m 155.015,62.195 h -0.509 v 3.621 h 0.509 z"
           inkscape:connector-curvature="0" /><g
           transform="translate(157.9266,62.1955)"
           id="g510"
           style="stroke-width:0.22544986"><path
             id="path512"
             style="fill:#6d6e71;fill-opacity:1;fill-rule:nonzero;stroke:none;stroke-width:0.22544986"
             d="m 0,0 h -0.504 v 1.391 c 0,0.42 -0.074,0.735 -0.519,0.735 -0.467,0 -0.641,-0.394 -0.641,-0.872 V 0 h -0.503 v 2.494 h 0.503 L -1.669,2.1 h 0.017 c 0.13,0.247 0.398,0.441 0.759,0.441 C -0.184,2.541 0,2.073 0,1.475 Z"
             inkscape:connector-curvature="0" /></g><g
           transform="translate(160.0201,62.3592)"
           id="g514"
           style="stroke-width:0.22544986"><path
             id="path516"
             style="fill:#6d6e71;fill-opacity:1;fill-rule:nonzero;stroke:none;stroke-width:0.22544986"
             d="m 0,0 c -0.174,-0.143 -0.404,-0.221 -0.693,-0.221 -0.42,0 -0.761,0.173 -0.971,0.447 l 0.242,0.294 c 0.188,-0.231 0.503,-0.357 0.735,-0.357 0.23,0 0.477,0.083 0.477,0.357 0,0.273 -0.394,0.357 -0.562,0.414 -0.168,0.059 -0.225,0.068 -0.341,0.131 -0.157,0.079 -0.393,0.242 -0.393,0.597 0,0.463 0.399,0.715 0.839,0.715 0.441,0 0.693,-0.157 0.85,-0.327 L -0.026,1.742 c -0.148,0.152 -0.389,0.268 -0.63,0.268 -0.241,0 -0.399,-0.106 -0.399,-0.31 0,-0.206 0.241,-0.294 0.488,-0.372 0.136,-0.049 0.231,-0.079 0.336,-0.121 0.1,-0.042 0.215,-0.106 0.289,-0.179 C 0.151,0.938 0.257,0.793 0.257,0.566 0.257,0.324 0.162,0.136 0,0"
             inkscape:connector-curvature="0" /></g><g
           transform="translate(161.9812,62.2217)"
           id="g518"
           style="stroke-width:0.22544986"><path
             id="path520"
             style="fill:#6d6e71;fill-opacity:1;fill-rule:nonzero;stroke:none;stroke-width:0.22544986"
             d="m 0,0 c 0,0 -0.194,-0.083 -0.456,-0.083 -0.263,0 -0.425,0.099 -0.53,0.256 -0.105,0.158 -0.126,0.353 -0.126,0.745 v 1.14 H -1.48 v 0.404 h 0.368 v 0.744 h 0.504 V 2.462 H -0.01 V 2.058 H -0.608 V 0.93 c 0,-0.21 0.005,-0.353 0.062,-0.457 0.047,-0.078 0.116,-0.125 0.258,-0.125 0.147,0 0.257,0.057 0.257,0.057 z"
             inkscape:connector-curvature="0" /></g><path
           id="path522"
           style="fill:#6d6e71;fill-opacity:1;fill-rule:nonzero;stroke:none;stroke-width:0.22544986"
           d="m 162.926,62.195 h -0.504 v 2.494 h 0.504 z m -0.252,3.003 c -0.194,0 -0.33,0.131 -0.33,0.308 0,0.18 0.136,0.311 0.33,0.311 0.189,0 0.325,-0.131 0.325,-0.311 0,-0.177 -0.136,-0.308 -0.325,-0.308"
           inkscape:connector-curvature="0" /><g
           transform="translate(164.8509,62.2217)"
           id="g524"
           style="stroke-width:0.22544986"><path
             id="path526"
             style="fill:#6d6e71;fill-opacity:1;fill-rule:nonzero;stroke:none;stroke-width:0.22544986"
             d="m 0,0 c 0,0 -0.194,-0.083 -0.456,-0.083 -0.263,0 -0.425,0.099 -0.53,0.256 -0.105,0.158 -0.127,0.353 -0.127,0.745 v 1.14 h -0.366 v 0.404 h 0.366 v 0.744 h 0.504 V 2.462 H -0.01 V 2.058 H -0.609 V 0.93 c 0,-0.21 0.006,-0.353 0.064,-0.457 0.047,-0.078 0.115,-0.125 0.256,-0.125 0.148,0 0.258,0.057 0.258,0.057 z"
             inkscape:connector-curvature="0" /></g><g
           transform="translate(167.3907,62.1955)"
           id="g528"
           style="stroke-width:0.22544986"><path
             id="path530"
             style="fill:#6d6e71;fill-opacity:1;fill-rule:nonzero;stroke:none;stroke-width:0.22544986"
             d="m 0,0 h -0.489 l -0.005,0.358 c -0.136,-0.242 -0.42,-0.415 -0.771,-0.415 -0.356,0 -0.561,0.121 -0.692,0.289 -0.127,0.168 -0.184,0.414 -0.184,0.771 v 1.495 h 0.498 V 1.025 c 0,-0.341 0.073,-0.661 0.52,-0.661 0.44,0 0.619,0.377 0.619,0.797 V 2.498 H 0 Z"
             inkscape:connector-curvature="0" /></g><g
           transform="translate(169.2943,62.2217)"
           id="g532"
           style="stroke-width:0.22544986"><path
             id="path534"
             style="fill:#6d6e71;fill-opacity:1;fill-rule:nonzero;stroke:none;stroke-width:0.22544986"
             d="m 0,0 c 0,0 -0.194,-0.083 -0.456,-0.083 -0.263,0 -0.425,0.099 -0.53,0.256 -0.105,0.158 -0.127,0.353 -0.127,0.745 v 1.14 H -1.48 v 0.404 h 0.367 v 0.744 h 0.504 V 2.462 H -0.01 V 2.058 H -0.609 V 0.93 c 0,-0.21 0.006,-0.353 0.064,-0.457 0.046,-0.078 0.115,-0.125 0.256,-0.125 0.148,0 0.258,0.057 0.258,0.057 z"
             inkscape:connector-curvature="0" /></g><g
           transform="translate(171.4609,63.6595)"
           id="g536"
           style="stroke-width:0.22544986"><path
             id="path538"
             style="fill:#6d6e71;fill-opacity:1;fill-rule:nonzero;stroke:none;stroke-width:0.22544986"
             d="M 0,0 C -0.005,0.279 -0.214,0.715 -0.718,0.715 -1.217,0.715 -1.437,0.3 -1.453,0 Z m 0.462,-0.335 h -1.92 c 0.026,-0.493 0.341,-0.793 0.802,-0.793 0.468,0 0.767,0.252 0.824,0.289 l 0.21,-0.289 c -0.032,-0.026 -0.351,-0.393 -1.096,-0.393 -0.74,0 -1.249,0.515 -1.249,1.307 0,0.787 0.571,1.291 1.264,1.291 0.692,0 1.181,-0.495 1.181,-1.191 0,-0.096 -0.016,-0.221 -0.016,-0.221"
             inkscape:connector-curvature="0" /></g><g
           transform="translate(174.7401,65.4438)"
           id="g540"
           style="stroke-width:0.22544986"><path
             id="path542"
             style="fill:#6d6e71;fill-opacity:1;fill-rule:nonzero;stroke:none;stroke-width:0.22544986"
             d="m 0,0 c 0,0 -0.142,0.048 -0.284,0.048 -0.331,0 -0.382,-0.246 -0.382,-0.53 V -0.76 h 0.592 v -0.404 h -0.592 v -2.084 h -0.499 v 2.084 h -0.357 v 0.404 h 0.357 v 0.252 c 0,0.324 0.063,0.534 0.167,0.665 0.11,0.138 0.31,0.274 0.599,0.274 0.288,0 0.43,-0.058 0.43,-0.058 z"
             inkscape:connector-curvature="0" /></g><g
           transform="translate(176.0617,64.3269)"
           id="g544"
           style="stroke-width:0.22544986"><path
             id="path546"
             style="fill:#6d6e71;fill-opacity:1;fill-rule:nonzero;stroke:none;stroke-width:0.22544986"
             d="m 0,0 c -0.504,0 -0.813,-0.388 -0.813,-0.877 0,-0.494 0.309,-0.88 0.813,-0.88 0.498,0 0.808,0.386 0.808,0.88 C 0.808,-0.388 0.498,0 0,0 m 0,-2.188 c -0.745,0 -1.322,0.519 -1.322,1.296 0,0.772 0.577,1.301 1.322,1.301 0.739,0 1.317,-0.529 1.317,-1.301 0,-0.777 -0.578,-1.296 -1.317,-1.296"
             inkscape:connector-curvature="0" /></g><g
           transform="translate(179.262,64.228)"
           id="g548"
           style="stroke-width:0.22544986"><path
             id="path550"
             style="fill:#6d6e71;fill-opacity:1;fill-rule:nonzero;stroke:none;stroke-width:0.22544986"
             d="m 0,0 h -0.021 c -0.048,0.02 -0.136,0.051 -0.273,0.051 -0.221,0 -0.357,-0.142 -0.41,-0.209 -0.047,-0.068 -0.151,-0.263 -0.151,-0.63 v -1.245 h -0.504 v 2.494 h 0.504 L -0.861,0.077 h 0.016 c 0.121,0.284 0.346,0.431 0.614,0.431 0.167,0 0.262,-0.042 0.262,-0.042 z"
             inkscape:connector-curvature="0" /></g><g
           transform="translate(184.6027,62.1955)"
           id="g552"
           style="stroke-width:0.22544986"><path
             id="path554"
             style="fill:#6d6e71;fill-opacity:1;fill-rule:nonzero;stroke:none;stroke-width:0.22544986"
             d="M 0,0 H -0.504 L -0.74,2.861 h -0.016 l -1.106,-2.892 h -0.29 L -3.259,2.861 H -3.275 L -3.505,0 h -0.504 l 0.325,3.621 h 0.63 L -2.01,0.825 h 0.011 l 1.044,2.796 h 0.624 z"
             inkscape:connector-curvature="0" /></g><path
           id="path556"
           style="fill:#6d6e71;fill-opacity:1;fill-rule:nonzero;stroke:none;stroke-width:0.22544986"
           d="m 185.709,62.195 h -0.504 v 2.494 h 0.504 z m -0.252,3.003 c -0.194,0 -0.33,0.131 -0.33,0.308 0,0.18 0.136,0.311 0.33,0.311 0.189,0 0.325,-0.131 0.325,-0.311 0,-0.177 -0.136,-0.308 -0.325,-0.308"
           inkscape:connector-curvature="0" /><path
           id="path558"
           style="fill:#6d6e71;fill-opacity:1;fill-rule:nonzero;stroke:none;stroke-width:0.22544986"
           d="m 186.947,62.195 h -0.498 v 3.621 h 0.498 z"
           inkscape:connector-curvature="0" /><path
           id="path560"
           style="fill:#6d6e71;fill-opacity:1;fill-rule:nonzero;stroke:none;stroke-width:0.22544986"
           d="m 188.19,62.195 h -0.504 v 2.494 h 0.504 z m -0.252,3.003 c -0.194,0 -0.33,0.131 -0.33,0.308 0,0.18 0.136,0.311 0.33,0.311 0.189,0 0.325,-0.131 0.325,-0.311 0,-0.177 -0.136,-0.308 -0.325,-0.308"
           inkscape:connector-curvature="0" /><g
           transform="translate(190.1154,62.2217)"
           id="g562"
           style="stroke-width:0.22544986"><path
             id="path564"
             style="fill:#6d6e71;fill-opacity:1;fill-rule:nonzero;stroke:none;stroke-width:0.22544986"
             d="m 0,0 c 0,0 -0.195,-0.083 -0.456,-0.083 -0.263,0 -0.425,0.099 -0.53,0.256 -0.106,0.158 -0.126,0.353 -0.126,0.745 v 1.14 H -1.48 v 0.404 h 0.368 v 0.744 h 0.504 V 2.462 H -0.01 V 2.058 H -0.608 V 0.93 c 0,-0.21 0.005,-0.353 0.062,-0.457 0.047,-0.078 0.116,-0.125 0.258,-0.125 0.146,0 0.257,0.057 0.257,0.057 z"
             inkscape:connector-curvature="0" /></g><g
           transform="translate(191.973,63.3934)"
           id="g566"
           style="stroke-width:0.22544986"><path
             id="path568"
             style="fill:#6d6e71;fill-opacity:1;fill-rule:nonzero;stroke:none;stroke-width:0.22544986"
             d="m 0,0 -0.582,-0.037 c -0.405,-0.021 -0.567,-0.195 -0.567,-0.431 0,-0.237 0.183,-0.43 0.513,-0.43 0.326,0 0.542,0.221 0.636,0.361 z M 0.498,-1.198 H 0.011 l -0.005,0.316 c -0.1,-0.105 -0.337,-0.373 -0.794,-0.373 -0.461,0 -0.86,0.289 -0.86,0.772 0,0.488 0.399,0.733 0.976,0.76 l 0.666,0.027 v 0.099 c 0,0.377 -0.257,0.567 -0.618,0.567 -0.363,0 -0.667,-0.163 -0.751,-0.216 l -0.152,0.337 c 0.184,0.104 0.519,0.252 0.934,0.252 0.415,0 0.656,-0.116 0.823,-0.284 C 0.399,0.886 0.498,0.676 0.498,0.25 Z"
             inkscape:connector-curvature="0" /></g><g
           transform="translate(194.475,64.228)"
           id="g570"
           style="stroke-width:0.22544986"><path
             id="path572"
             style="fill:#6d6e71;fill-opacity:1;fill-rule:nonzero;stroke:none;stroke-width:0.22544986"
             d="m 0,0 h -0.021 c -0.047,0.02 -0.136,0.051 -0.273,0.051 -0.22,0 -0.357,-0.142 -0.409,-0.209 -0.047,-0.068 -0.152,-0.263 -0.152,-0.63 v -1.245 h -0.504 v 2.494 h 0.504 L -0.86,0.077 h 0.016 c 0.12,0.284 0.346,0.431 0.613,0.431 0.168,0 0.262,-0.042 0.262,-0.042 z"
             inkscape:connector-curvature="0" /></g><g
           transform="translate(197.0503,64.6891)"
           id="g574"
           style="stroke-width:0.22544986"><path
             id="path576"
             style="fill:#6d6e71;fill-opacity:1;fill-rule:nonzero;stroke:none;stroke-width:0.22544986"
             d="m 0,0 -1.201,-2.929 c -0.173,-0.43 -0.378,-0.577 -0.657,-0.577 -0.277,0 -0.472,0.089 -0.472,0.089 l 0.1,0.41 c 0,0 0.137,-0.058 0.263,-0.058 0.105,0 0.215,-0.01 0.325,0.294 L -1.521,-2.44 -2.518,0.004 -1.993,0 l 0.74,-1.936 0.734,1.94 z"
             inkscape:connector-curvature="0" /></g><g
           transform="translate(135.4737,57.0969)"
           id="g578"
           style="stroke-width:0.22544986"><path
             id="path580"
             style="fill:#6d6e71;fill-opacity:1;fill-rule:nonzero;stroke:none;stroke-width:0.22544986"
             d="m 0,0 -0.582,-0.036 c -0.405,-0.021 -0.568,-0.195 -0.568,-0.43 0,-0.237 0.184,-0.431 0.515,-0.431 0.325,0 0.54,0.221 0.635,0.363 z M 0.498,-1.196 H 0.01 l -0.005,0.314 c -0.1,-0.105 -0.336,-0.372 -0.792,-0.372 -0.462,0 -0.861,0.289 -0.861,0.772 0,0.488 0.399,0.735 0.976,0.76 l 0.666,0.027 v 0.099 c 0,0.379 -0.256,0.568 -0.619,0.568 -0.362,0 -0.666,-0.165 -0.75,-0.216 l -0.152,0.335 c 0.183,0.105 0.52,0.253 0.934,0.253 0.414,0 0.655,-0.115 0.824,-0.284 C 0.399,0.887 0.498,0.678 0.498,0.253 Z"
             inkscape:connector-curvature="0" /></g><g
           transform="translate(138.7834,55.9006)"
           id="g582"
           style="stroke-width:0.22544986"><path
             id="path584"
             style="fill:#6d6e71;fill-opacity:1;fill-rule:nonzero;stroke:none;stroke-width:0.22544986"
             d="m 0,0 h -0.504 v 1.391 c 0,0.42 -0.073,0.734 -0.519,0.734 -0.467,0 -0.64,-0.392 -0.64,-0.871 V 0 h -0.504 v 2.493 h 0.504 L -1.668,2.099 h 0.016 C -1.521,2.346 -1.254,2.54 -0.891,2.54 -0.183,2.54 0,2.073 0,1.475 Z"
             inkscape:connector-curvature="0" /></g><g
           transform="translate(140.5934,58.0304)"
           id="g586"
           style="stroke-width:0.22544986"><path
             id="path588"
             style="fill:#6d6e71;fill-opacity:1;fill-rule:nonzero;stroke:none;stroke-width:0.22544986"
             d="m 0,0 c -0.498,0 -0.793,-0.377 -0.793,-0.876 0,-0.497 0.295,-0.881 0.793,-0.881 0.499,0 0.792,0.384 0.792,0.881 C 0.792,-0.377 0.499,0 0,0 M 1.275,-2.13 H 0.792 v 0.399 h -0.01 c -0.205,-0.303 -0.515,-0.456 -0.876,-0.456 -0.74,0 -1.212,0.566 -1.212,1.306 0,0.735 0.472,1.291 1.201,1.291 0.404,0 0.698,-0.178 0.871,-0.436 h 0.011 v 1.517 h 0.498 z"
             inkscape:connector-curvature="0" /></g><g
           transform="translate(146.4066,59.5212)"
           id="g590"
           style="stroke-width:0.22544986"><path
             id="path592"
             style="fill:#6d6e71;fill-opacity:1;fill-rule:nonzero;stroke:none;stroke-width:0.22544986"
             d="M 0,0 -1.333,-3.625 H -1.785 L -3.117,0 h 0.545 L -1.554,-2.885 -0.536,0 Z"
             inkscape:connector-curvature="0" /></g><g
           transform="translate(148.2951,57.3646)"
           id="g594"
           style="stroke-width:0.22544986"><path
             id="path596"
             style="fill:#6d6e71;fill-opacity:1;fill-rule:nonzero;stroke:none;stroke-width:0.22544986"
             d="M 0,0 C -0.006,0.279 -0.216,0.714 -0.719,0.714 -1.217,0.714 -1.439,0.3 -1.454,0 Z m 0.461,-0.335 h -1.92 c 0.026,-0.493 0.341,-0.794 0.803,-0.794 0.467,0 0.766,0.252 0.823,0.29 l 0.211,-0.29 c -0.032,-0.025 -0.352,-0.393 -1.097,-0.393 -0.74,0 -1.249,0.515 -1.249,1.307 0,0.787 0.572,1.291 1.264,1.291 0.693,0 1.181,-0.493 1.181,-1.191 0,-0.095 -0.016,-0.22 -0.016,-0.22"
             inkscape:connector-curvature="0" /></g><g
           transform="translate(150.4825,55.9269)"
           id="g598"
           style="stroke-width:0.22544986"><path
             id="path600"
             style="fill:#6d6e71;fill-opacity:1;fill-rule:nonzero;stroke:none;stroke-width:0.22544986"
             d="m 0,0 c 0,0 -0.194,-0.084 -0.456,-0.084 -0.263,0 -0.426,0.1 -0.531,0.258 -0.105,0.156 -0.126,0.351 -0.126,0.745 V 2.057 H -1.48 v 0.405 h 0.367 v 0.744 h 0.504 V 2.462 h 0.598 V 2.057 H -0.609 V 0.929 c 0,-0.21 0.005,-0.352 0.063,-0.456 0.047,-0.079 0.116,-0.126 0.257,-0.126 0.147,0 0.258,0.057 0.258,0.057 z"
             inkscape:connector-curvature="0" /></g><g
           transform="translate(152.6491,57.3646)"
           id="g602"
           style="stroke-width:0.22544986"><path
             id="path604"
             style="fill:#6d6e71;fill-opacity:1;fill-rule:nonzero;stroke:none;stroke-width:0.22544986"
             d="M 0,0 C -0.005,0.279 -0.216,0.714 -0.719,0.714 -1.218,0.714 -1.438,0.3 -1.454,0 Z m 0.462,-0.335 h -1.921 c 0.026,-0.493 0.341,-0.794 0.803,-0.794 0.467,0 0.767,0.252 0.823,0.29 l 0.211,-0.29 c -0.032,-0.025 -0.352,-0.393 -1.097,-0.393 -0.74,0 -1.249,0.515 -1.249,1.307 0,0.787 0.572,1.291 1.265,1.291 0.692,0 1.18,-0.493 1.18,-1.191 0,-0.095 -0.015,-0.22 -0.015,-0.22"
             inkscape:connector-curvature="0" /></g><g
           transform="translate(154.9831,57.932)"
           id="g606"
           style="stroke-width:0.22544986"><path
             id="path608"
             style="fill:#6d6e71;fill-opacity:1;fill-rule:nonzero;stroke:none;stroke-width:0.22544986"
             d="m 0,0 h -0.021 c -0.048,0.021 -0.136,0.052 -0.273,0.052 -0.22,0 -0.357,-0.143 -0.41,-0.21 -0.046,-0.067 -0.151,-0.262 -0.151,-0.629 v -1.244 h -0.504 v 2.492 h 0.504 L -0.861,0.079 h 0.016 c 0.121,0.282 0.346,0.43 0.614,0.43 0.168,0 0.262,-0.042 0.262,-0.042 z"
             inkscape:connector-curvature="0" /></g><g
           transform="translate(156.7144,57.0969)"
           id="g610"
           style="stroke-width:0.22544986"><path
             id="path612"
             style="fill:#6d6e71;fill-opacity:1;fill-rule:nonzero;stroke:none;stroke-width:0.22544986"
             d="m 0,0 -0.582,-0.036 c -0.405,-0.021 -0.567,-0.195 -0.567,-0.43 0,-0.237 0.183,-0.431 0.514,-0.431 0.325,0 0.54,0.221 0.635,0.363 z M 0.499,-1.196 H 0.011 l -0.006,0.314 c -0.1,-0.105 -0.336,-0.372 -0.792,-0.372 -0.462,0 -0.861,0.289 -0.861,0.772 0,0.488 0.399,0.735 0.976,0.76 l 0.667,0.027 v 0.099 c 0,0.379 -0.258,0.568 -0.62,0.568 -0.362,0 -0.666,-0.165 -0.75,-0.216 l -0.152,0.335 c 0.183,0.105 0.52,0.253 0.934,0.253 0.414,0 0.655,-0.115 0.824,-0.284 C 0.399,0.887 0.499,0.678 0.499,0.253 Z"
             inkscape:connector-curvature="0" /></g><g
           transform="translate(160.0247,55.9006)"
           id="g614"
           style="stroke-width:0.22544986"><path
             id="path616"
             style="fill:#6d6e71;fill-opacity:1;fill-rule:nonzero;stroke:none;stroke-width:0.22544986"
             d="m 0,0 h -0.504 v 1.391 c 0,0.42 -0.073,0.734 -0.519,0.734 -0.467,0 -0.64,-0.392 -0.64,-0.871 V 0 h -0.504 v 2.493 h 0.504 L -1.668,2.099 h 0.016 c 0.13,0.247 0.398,0.441 0.76,0.441 C -0.183,2.54 0,2.073 0,1.475 Z"
             inkscape:connector-curvature="0" /></g><g
           transform="translate(164.7361,55.9006)"
           id="g618"
           style="stroke-width:0.22544986"><path
             id="path620"
             style="fill:#6d6e71;fill-opacity:1;fill-rule:nonzero;stroke:none;stroke-width:0.22544986"
             d="M 0,0 H -0.509 V 1.69 H -2.435 V 0 h -0.509 v 3.621 h 0.509 V 2.125 h 1.926 V 3.621 H 0 Z"
             inkscape:connector-curvature="0" /></g><g
           transform="translate(167.2845,57.3646)"
           id="g622"
           style="stroke-width:0.22544986"><path
             id="path624"
             style="fill:#6d6e71;fill-opacity:1;fill-rule:nonzero;stroke:none;stroke-width:0.22544986"
             d="M 0,0 C -0.005,0.279 -0.215,0.714 -0.718,0.714 -1.217,0.714 -1.437,0.3 -1.453,0 Z m 0.463,-0.335 h -1.921 c 0.026,-0.493 0.341,-0.794 0.803,-0.794 0.466,0 0.765,0.252 0.823,0.29 l 0.211,-0.29 c -0.033,-0.025 -0.352,-0.393 -1.097,-0.393 -0.74,0 -1.249,0.515 -1.249,1.307 0,0.787 0.572,1.291 1.265,1.291 0.692,0 1.18,-0.493 1.18,-1.191 0,-0.095 -0.015,-0.22 -0.015,-0.22"
             inkscape:connector-curvature="0" /></g><g
           transform="translate(169.6982,57.0969)"
           id="g626"
           style="stroke-width:0.22544986"><path
             id="path628"
             style="fill:#6d6e71;fill-opacity:1;fill-rule:nonzero;stroke:none;stroke-width:0.22544986"
             d="m 0,0 -0.582,-0.036 c -0.404,-0.021 -0.567,-0.195 -0.567,-0.43 0,-0.237 0.183,-0.431 0.514,-0.431 0.325,0 0.541,0.221 0.635,0.363 z M 0.499,-1.196 H 0.011 l -0.006,0.314 c -0.099,-0.105 -0.336,-0.372 -0.792,-0.372 -0.462,0 -0.861,0.289 -0.861,0.772 0,0.488 0.399,0.735 0.977,0.76 l 0.666,0.027 v 0.099 c 0,0.379 -0.258,0.568 -0.62,0.568 -0.361,0 -0.665,-0.165 -0.75,-0.216 l -0.152,0.335 c 0.183,0.105 0.52,0.253 0.934,0.253 0.414,0 0.656,-0.115 0.824,-0.284 C 0.399,0.887 0.499,0.678 0.499,0.253 Z"
             inkscape:connector-curvature="0" /></g><path
           id="path630"
           style="fill:#6d6e71;fill-opacity:1;fill-rule:nonzero;stroke:none;stroke-width:0.22544986"
           d="m 171.366,55.901 h -0.498 v 3.621 h 0.498 z"
           inkscape:connector-curvature="0" /><g
           transform="translate(173.2964,55.9269)"
           id="g632"
           style="stroke-width:0.22544986"><path
             id="path634"
             style="fill:#6d6e71;fill-opacity:1;fill-rule:nonzero;stroke:none;stroke-width:0.22544986"
             d="m 0,0 c 0,0 -0.194,-0.084 -0.456,-0.084 -0.263,0 -0.425,0.1 -0.53,0.258 -0.105,0.156 -0.126,0.351 -0.126,0.745 V 2.057 H -1.48 v 0.405 h 0.368 v 0.744 h 0.503 V 2.462 H -0.01 V 2.057 H -0.609 V 0.929 c 0,-0.21 0.006,-0.352 0.064,-0.456 0.046,-0.079 0.115,-0.126 0.257,-0.126 0.147,0 0.257,0.057 0.257,0.057 z"
             inkscape:connector-curvature="0" /></g><g
           transform="translate(175.9094,55.9006)"
           id="g636"
           style="stroke-width:0.22544986"><path
             id="path638"
             style="fill:#6d6e71;fill-opacity:1;fill-rule:nonzero;stroke:none;stroke-width:0.22544986"
             d="m 0,0 h -0.504 v 1.411 c 0,0.357 -0.058,0.714 -0.514,0.714 -0.457,0 -0.65,-0.392 -0.65,-0.892 V 0 h -0.499 v 3.621 h 0.499 V 2.099 h 0.01 C -1.527,2.346 -1.254,2.54 -0.892,2.54 -0.173,2.54 0,2.078 0,1.486 Z"
             inkscape:connector-curvature="0" /></g><g
           transform="translate(179.1774,58.9751)"
           id="g640"
           style="stroke-width:0.22544986"><path
             id="path642"
             style="fill:#6d6e71;fill-opacity:1;fill-rule:nonzero;stroke:none;stroke-width:0.22544986"
             d="m 0,0 c -0.162,0.121 -0.356,0.131 -0.609,0.131 h -0.372 v -1.227 h 0.372 c 0.253,0 0.447,0.012 0.609,0.125 0.163,0.121 0.231,0.269 0.231,0.489 C 0.231,-0.267 0.163,-0.115 0,0 M 0.965,-3.074 H 0.352 l -0.945,1.558 H -0.981 V -3.074 H -1.49 v 3.62 h 1.023 c 0.362,0 0.656,-0.083 0.872,-0.252 0.214,-0.173 0.351,-0.435 0.351,-0.766 0,-0.635 -0.441,-0.917 -0.824,-0.991 z"
             inkscape:connector-curvature="0" /></g><g
           transform="translate(182.2144,57.3646)"
           id="g644"
           style="stroke-width:0.22544986"><path
             id="path646"
             style="fill:#6d6e71;fill-opacity:1;fill-rule:nonzero;stroke:none;stroke-width:0.22544986"
             d="M 0,0 C -0.005,0.279 -0.214,0.714 -0.718,0.714 -1.217,0.714 -1.437,0.3 -1.452,0 Z m 0.463,-0.335 h -1.921 c 0.026,-0.493 0.341,-0.794 0.802,-0.794 0.468,0 0.767,0.252 0.824,0.29 l 0.211,-0.29 c -0.032,-0.025 -0.352,-0.393 -1.097,-0.393 -0.74,0 -1.249,0.515 -1.249,1.307 0,0.787 0.572,1.291 1.265,1.291 0.692,0 1.18,-0.493 1.18,-1.191 0,-0.095 -0.015,-0.22 -0.015,-0.22"
             inkscape:connector-curvature="0" /></g><g
           transform="translate(184.6126,56.0639)"
           id="g648"
           style="stroke-width:0.22544986"><path
             id="path650"
             style="fill:#6d6e71;fill-opacity:1;fill-rule:nonzero;stroke:none;stroke-width:0.22544986"
             d="m 0,0 c -0.173,-0.142 -0.404,-0.221 -0.692,-0.221 -0.421,0 -0.762,0.172 -0.971,0.447 l 0.241,0.294 c 0.189,-0.232 0.504,-0.357 0.735,-0.357 0.23,0 0.477,0.084 0.477,0.357 0,0.272 -0.393,0.356 -0.561,0.414 -0.168,0.058 -0.226,0.068 -0.342,0.132 -0.157,0.077 -0.393,0.24 -0.393,0.598 0,0.46 0.399,0.713 0.839,0.713 0.441,0 0.694,-0.157 0.851,-0.325 l -0.211,-0.31 c -0.146,0.152 -0.387,0.268 -0.629,0.268 -0.241,0 -0.398,-0.106 -0.398,-0.31 0,-0.205 0.241,-0.295 0.487,-0.372 0.136,-0.049 0.231,-0.08 0.336,-0.121 0.1,-0.042 0.215,-0.105 0.289,-0.178 C 0.152,0.939 0.257,0.792 0.257,0.567 0.257,0.324 0.163,0.136 0,0"
             inkscape:connector-curvature="0" /></g><g
           transform="translate(187.1616,57.3646)"
           id="g652"
           style="stroke-width:0.22544986"><path
             id="path654"
             style="fill:#6d6e71;fill-opacity:1;fill-rule:nonzero;stroke:none;stroke-width:0.22544986"
             d="M 0,0 C -0.005,0.279 -0.214,0.714 -0.718,0.714 -1.217,0.714 -1.437,0.3 -1.453,0 Z m 0.462,-0.335 h -1.92 c 0.026,-0.493 0.341,-0.794 0.802,-0.794 0.468,0 0.767,0.252 0.824,0.29 l 0.211,-0.29 c -0.033,-0.025 -0.352,-0.393 -1.097,-0.393 -0.74,0 -1.249,0.515 -1.249,1.307 0,0.787 0.572,1.291 1.264,1.291 0.693,0 1.181,-0.493 1.181,-1.191 0,-0.095 -0.016,-0.22 -0.016,-0.22"
             inkscape:connector-curvature="0" /></g><g
           transform="translate(189.5754,57.0969)"
           id="g656"
           style="stroke-width:0.22544986"><path
             id="path658"
             style="fill:#6d6e71;fill-opacity:1;fill-rule:nonzero;stroke:none;stroke-width:0.22544986"
             d="m 0,0 -0.582,-0.036 c -0.405,-0.021 -0.567,-0.195 -0.567,-0.43 0,-0.237 0.183,-0.431 0.513,-0.431 0.326,0 0.542,0.221 0.636,0.363 z M 0.498,-1.196 H 0.01 l -0.006,0.314 c -0.098,-0.105 -0.334,-0.372 -0.791,-0.372 -0.462,0 -0.861,0.289 -0.861,0.772 0,0.488 0.399,0.735 0.976,0.76 l 0.666,0.027 v 0.099 c 0,0.379 -0.257,0.568 -0.619,0.568 -0.362,0 -0.666,-0.165 -0.75,-0.216 l -0.152,0.335 c 0.184,0.105 0.519,0.253 0.934,0.253 0.414,0 0.656,-0.115 0.824,-0.284 C 0.399,0.887 0.498,0.678 0.498,0.253 Z"
             inkscape:connector-curvature="0" /></g><g
           transform="translate(192.0775,57.932)"
           id="g660"
           style="stroke-width:0.22544986"><path
             id="path662"
             style="fill:#6d6e71;fill-opacity:1;fill-rule:nonzero;stroke:none;stroke-width:0.22544986"
             d="m 0,0 h -0.021 c -0.047,0.021 -0.136,0.052 -0.273,0.052 -0.22,0 -0.357,-0.143 -0.409,-0.21 -0.047,-0.067 -0.152,-0.262 -0.152,-0.629 v -1.244 h -0.503 v 2.492 h 0.503 L -0.86,0.079 h 0.015 c 0.121,0.282 0.347,0.43 0.614,0.43 0.168,0 0.262,-0.042 0.262,-0.042 z"
             inkscape:connector-curvature="0" /></g><g
           transform="translate(194.4851,56.2226)"
           id="g664"
           style="stroke-width:0.22544986"><path
             id="path666"
             style="fill:#6d6e71;fill-opacity:1;fill-rule:nonzero;stroke:none;stroke-width:0.22544986"
             d="m 0,0 c -0.073,-0.075 -0.33,-0.38 -0.997,-0.38 -0.672,0 -1.26,0.504 -1.26,1.302 0,0.803 0.615,1.296 1.277,1.296 0.666,0 0.939,-0.325 0.965,-0.357 L -0.194,1.493 c -0.084,0.086 -0.304,0.305 -0.745,0.305 -0.441,0 -0.808,-0.336 -0.808,-0.86 0,-0.524 0.33,-0.887 0.813,-0.887 0.488,0 0.756,0.315 0.756,0.315 z"
             inkscape:connector-curvature="0" /></g><g
           transform="translate(197.0816,55.9006)"
           id="g668"
           style="stroke-width:0.22544986"><path
             id="path670"
             style="fill:#6d6e71;fill-opacity:1;fill-rule:nonzero;stroke:none;stroke-width:0.22544986"
             d="m 0,0 h -0.504 v 1.411 c 0,0.357 -0.057,0.714 -0.514,0.714 -0.456,0 -0.65,-0.392 -0.65,-0.892 V 0 h -0.499 v 3.621 h 0.499 V 2.099 h 0.011 C -1.527,2.346 -1.253,2.54 -0.892,2.54 -0.172,2.54 0,2.078 0,1.486 Z"
             inkscape:connector-curvature="0" /></g><path
           id="path672"
           style="fill:#6d6e71;fill-opacity:1;fill-rule:nonzero;stroke:none;stroke-width:0.22544986"
           d="M 207.609,54 H 207.1 v 27.375 h 0.509 z"
           inkscape:connector-curvature="0" /><g
           transform="translate(199.5423,112.0405)"
           id="g674"
           style="stroke-width:0.22544986"><path
             id="path676"
             style="fill:#c41230;fill-opacity:1;fill-rule:nonzero;stroke:none;stroke-width:0.22544986"
             d="m 0,0 c 0.086,-0.54 0.475,-0.499 0.586,-0.286 0.363,0.693 -0.504,6.793 -1.111,10.654 2.15,-0.839 4.617,-0.534 6.222,1.271 1.175,1.321 1.578,3.126 2.156,4.925 0.843,-2.272 1.53,-4.643 3.439,-5.946 1.289,-0.88 3.227,-0.827 4.802,-0.179 -0.61,-3.908 -1.535,-10.183 -1.136,-10.718 0.146,-0.199 0.53,-0.208 0.616,0.347 0.692,4.422 2.139,8.088 2.83,12.509 0.097,0.624 -0.657,1.153 -1.209,0.848 -1.558,-0.862 -3.914,-1.868 -5.32,-0.377 C 10.169,14.859 9.37,17.79 8.52,20.065 8.271,20.726 7.132,20.694 6.954,19.995 6.518,18.268 5.914,16.572 5.157,14.962 4.721,14.031 3.986,12.523 2.884,12.256 1.608,11.951 -0.397,12.615 -1.506,13.29 -2.132,13.67 -2.949,13.209 -2.828,12.447 -2.138,8.047 -0.69,4.4 0,0"
             inkscape:connector-curvature="0" /></g><g
           transform="translate(231.5548,104.0443)"
           id="g678"
           style="stroke-width:0.22544986"><path
             id="path680"
             style="fill:#c41230;fill-opacity:1;fill-rule:nonzero;stroke:none;stroke-width:0.22544986"
             d="m 0,0 c -0.745,-0.647 -1.506,-1.274 -2.266,-1.902 -1.842,-1.522 -3.699,-3.024 -5.553,-4.53 -0.776,-0.628 -1.549,-1.258 -2.323,-1.886 -0.713,-0.581 -1.97,-1.265 -2.042,-2.329 -0.062,-0.928 0.175,-1.914 0.495,-2.864 -3.051,0.552 -6.128,0.905 -9.57,1.029 -0.054,3.702 -0.564,7.03 -1.02,9.496 -0.012,0.07 -0.027,0.136 -0.039,0.203 -0.055,0.194 -0.095,0.394 -0.123,0.599 -0.023,0.181 -0.04,0.365 -0.04,0.556 0,1.542 0.822,2.623 2.051,3.64 8.241,5.242 8.948,7.621 11.203,9.712 0.425,-1.643 1.076,-3.858 2.498,-3.793 2.062,0.093 4.155,1.138 6.176,1.845 C -1.027,7.7 -1.546,5.446 -2.041,3.386 -2.193,2.756 -2.517,1.84 -1.983,1.29 -1.376,0.664 -0.781,0.41 0.056,0.051 0.035,0.031 0.016,0.012 0,0 m -26.049,-2.317 c -0.017,-0.116 -0.04,-0.229 -0.067,-0.343 -0.022,-0.107 -0.043,-0.214 -0.065,-0.326 -0.456,-2.466 -0.965,-5.794 -1.018,-9.496 -3.427,-0.124 -6.494,-0.475 -9.533,-1.023 0.443,1.231 0.783,2.6 0.165,3.415 -0.926,1.226 -2.401,2.212 -3.565,3.19 -1.91,1.605 -3.843,3.181 -5.768,4.769 -0.788,0.649 -1.575,1.301 -2.355,1.961 -0.08,0.067 -0.158,0.138 -0.237,0.205 1.444,0.573 2.529,1.207 2.186,2.922 -0.449,2.233 -0.944,4.624 -1.565,6.819 0.97,-0.303 1.927,-0.645 2.89,-0.965 0.994,-0.328 2.397,-1.027 3.48,-0.875 1.246,0.171 1.882,2.231 2.293,3.817 1.664,-1.665 3.639,-4.651 10.992,-9.632 1.484,-1.164 2.229,-2.133 2.229,-3.749 0,-0.236 -0.023,-0.464 -0.062,-0.689 M 1.912,1.165 c -0.37,0.122 -2.713,1.004 -2.698,1.194 0.081,0.909 0.423,1.839 0.66,2.717 0.522,1.929 1.201,3.87 1.527,5.846 C 1.486,11.44 0.922,11.97 0.406,11.837 -1.718,11.289 -3.763,10.446 -5.872,9.835 -6.058,9.782 -6.25,9.733 -6.44,9.692 c -0.144,-0.033 -0.462,0.699 -0.657,1.22 -0.351,0.935 -0.629,1.898 -0.95,2.845 -0.169,0.497 -0.959,0.651 -1.315,0.283 -3.053,-3.128 -5.758,-7.262 -9.532,-9.458 -1.536,-0.892 -3.249,-1.468 -5.234,-1.521 -1.991,0.045 -3.672,0.641 -5.19,1.56 -1.324,0.804 -2.525,1.851 -3.692,3.005 -1.276,1.26 -2.48,2.594 -3.696,3.91 -0.77,0.837 -1.517,1.921 -2.439,2.604 -0.428,0.316 -1.119,0.114 -1.283,-0.401 -0.221,-0.691 -0.43,-1.383 -0.663,-2.07 -0.159,-0.469 -0.337,-0.931 -0.523,-1.39 -0.086,-0.212 -0.183,-0.419 -0.291,-0.62 0,0 -10e-4,-0.002 -10e-4,-0.002 h -0.004 c -2.347,0.384 -4.565,1.574 -6.876,2.139 -0.563,0.138 -1.308,-0.253 -1.13,-0.942 0.546,-2.12 1.188,-4.213 1.75,-6.328 0.162,-0.62 0.334,-1.242 0.446,-1.874 0.024,-0.137 -0.751,-0.675 -1.11,-0.852 -0.519,-0.259 -1.061,-0.483 -1.612,-0.663 -0.465,-0.154 -0.547,-0.742 -0.402,-1.132 0.33,-0.878 1.78,-1.707 2.457,-2.274 1.757,-1.467 3.533,-2.913 5.297,-4.371 1.554,-1.284 3.13,-2.555 4.611,-3.921 0.161,-0.15 0.318,-0.305 0.472,-0.462 0.016,-0.019 0.03,-0.03 0.045,-0.042 -0.009,-0.031 -0.017,-0.072 -0.023,-0.128 -0.09,-0.908 -0.423,-1.824 -0.743,-2.709 -0.109,-0.309 -0.22,-0.616 -0.317,-0.916 -0.071,-0.214 -0.056,-0.413 0.013,-0.587 3.427,0.758 7.207,1.264 11.211,1.455 0.274,0.011 0.55,0.022 0.826,0.032 0.638,0.023 1.068,0.038 1.713,0.046 0.006,0.488 0.43,10.067 1.052,10.067 0.586,0 1.046,-9.579 1.052,-10.067 0.647,-0.008 1.078,-0.023 1.714,-0.046 0.356,-0.014 0.71,-0.027 1.062,-0.047 3.903,-0.196 7.593,-0.692 10.945,-1.434 0.095,0.213 0.113,0.469 0.015,0.717 -0.099,0.257 -0.191,0.517 -0.281,0.777 -0.154,0.44 -0.298,0.888 -0.431,1.335 -0.407,1.374 -0.358,1.819 0.826,2.725 1.655,1.268 3.244,2.635 4.863,3.952 1.615,1.312 3.23,2.628 4.825,3.969 0.672,0.564 1.656,1.186 2.053,1.999 0.2,0.405 -0.093,0.957 -0.501,1.09"
             inkscape:connector-curvature="0" /></g><g
           transform="translate(205.3033,110.1348)"
           id="g682"
           style="stroke-width:0.22544986"><path
             id="path684"
             style="fill:#c41230;fill-opacity:1;fill-rule:nonzero;stroke:none;stroke-width:0.22544986"
             d="m 0,0 c 0,-0.875 0.56,-1.612 1.335,-1.893 0.217,-0.078 0.445,-0.128 0.686,-0.128 0.242,0 0.471,0.05 0.687,0.128 C 3.485,-1.612 4.042,-0.875 4.042,0 4.042,1.116 3.139,2.02 2.021,2.02 0.906,2.02 0,1.116 0,0"
             inkscape:connector-curvature="0" /></g></g></g></g></svg>