<?xml version="1.0" encoding="UTF-8" standalone="no"?>
<svg
   xmlns:dc="http://purl.org/dc/elements/1.1/"
   xmlns:cc="http://creativecommons.org/ns#"
   xmlns:rdf="http://www.w3.org/1999/02/22-rdf-syntax-ns#"
   xmlns:svg="http://www.w3.org/2000/svg"
   xmlns="http://www.w3.org/2000/svg"
   xmlns:sodipodi="http://sodipodi.sourceforge.net/DTD/sodipodi-0.dtd"
   xmlns:inkscape="http://www.inkscape.org/namespaces/inkscape"
   viewBox="0 0 989.8419 276.3565"
   height="276.35651"
   width="989.8418"
   xml:space="preserve"
   id="svg2"
   version="1.1"
   sodipodi:docname="mitacs.svg"
   inkscape:version="0.92.2 5c3e80d, 2017-08-06"><sodipodi:namedview
     pagecolor="#ffffff"
     bordercolor="#666666"
     borderopacity="1"
     objecttolerance="10"
     gridtolerance="10"
     guidetolerance="10"
     inkscape:pageopacity="0"
     inkscape:pageshadow="2"
     inkscape:window-width="2560"
     inkscape:window-height="1386"
     id="namedview189"
     showgrid="false"
     fit-margin-top="0"
     fit-margin-left="0"
     fit-margin-right="0"
     fit-margin-bottom="0"
     inkscape:zoom="0.55614949"
     inkscape:cx="1208.9329"
     inkscape:cy="1066.7772"
     inkscape:window-x="0"
     inkscape:window-y="0"
     inkscape:window-maximized="1"
     inkscape:current-layer="svg2" /><metadata
     id="metadata8"><rdf:RDF><cc:Work
         rdf:about=""><dc:format>image/svg+xml</dc:format><dc:type
           rdf:resource="http://purl.org/dc/dcmitype/StillImage" /><dc:title></dc:title></cc:Work></rdf:RDF></metadata><defs
     id="defs6"><clipPath
       id="clipPath18"
       clipPathUnits="userSpaceOnUse"><path
         id="path16"
         d="M 20.031,769 V 646.267 L 593.153,710.16 V 769 Z"
         inkscape:connector-curvature="0" /></clipPath><clipPath
       id="clipPath32"
       clipPathUnits="userSpaceOnUse"><path
         id="path30"
         d="M 0,792 H 612 V 0 H 0 Z"
         inkscape:connector-curvature="0" /></clipPath><clipPath
       id="clipPath216"
       clipPathUnits="userSpaceOnUse"><path
         id="path214"
         d="M 371.626,620.008 H 591.959 V 324.672 H 371.626 Z"
         inkscape:connector-curvature="0" /></clipPath><clipPath
       id="clipPath272"
       clipPathUnits="userSpaceOnUse"><path
         id="path270"
         d="M 0,792 H 612 V 0 H 0 Z"
         inkscape:connector-curvature="0" /></clipPath><clipPath
       id="clipPath296"
       clipPathUnits="userSpaceOnUse"><path
         id="path294"
         d="M 0,792 H 612 V 0 H 0 Z"
         inkscape:connector-curvature="0" /></clipPath><clipPath
       id="clipPath398"
       clipPathUnits="userSpaceOnUse"><path
         id="path396"
         d="M 0,792 H 612 V 0 H 0 Z"
         inkscape:connector-curvature="0" /></clipPath><clipPath
       id="clipPath462"
       clipPathUnits="userSpaceOnUse"><path
         id="path460"
         d="M 0,792 H 612 V 0 H 0 Z"
         inkscape:connector-curvature="0" /></clipPath><clipPath
       id="clipPath494"
       clipPathUnits="userSpaceOnUse"><path
         id="path492"
         d="M 0,792 H 612 V 0 H 0 Z"
         inkscape:connector-curvature="0" /></clipPath><clipPath
       id="clipPath522"
       clipPathUnits="userSpaceOnUse"><path
         id="path520"
         d="M 0,792 H 612 V 0 H 0 Z"
         inkscape:connector-curvature="0" /></clipPath><clipPath
       id="clipPath558"
       clipPathUnits="userSpaceOnUse"><path
         id="path556"
         d="M 0,792 H 612 V 0 H 0 Z"
         inkscape:connector-curvature="0" /></clipPath><clipPath
       id="clipPath592"
       clipPathUnits="userSpaceOnUse"><path
         id="path590"
         d="M 0,792 H 612 V 0 H 0 Z"
         inkscape:connector-curvature="0" /></clipPath><clipPath
       id="clipPath642"
       clipPathUnits="userSpaceOnUse"><path
         id="path640"
         d="m 410.09,192.049 2.209,1.329 1.217,-0.899 c 0,0 0.713,0.337 0.864,0.439 v 0 l 0.881,-0.982 c 0,0 1.911,-1.598 1.964,-1.598 v 0 c 0.059,0 1.688,1 1.688,1 v 0 l 1.462,1.059 1.271,-0.979 0.959,-0.2 0.971,-0.7 c 0,0 2.363,1.659 2.735,1.86 v 0 c 0,0 1.033,-0.403 1.125,-0.379 v 0 c 0.095,0.02 1.706,1.339 1.706,1.339 v 0 l 1.363,-1.041 c -1.079,4.88 -5.229,8.516 -10.18,8.516 v 0 c -5.036,0 -9.241,-3.758 -10.235,-8.764"
         inkscape:connector-curvature="0" /></clipPath><radialGradient
       id="radialGradient658"
       spreadMethod="pad"
       gradientTransform="matrix(10.206995,0,0,-10.779243,420.29785,190.36932)"
       gradientUnits="userSpaceOnUse"
       r="1"
       cy="0"
       cx="0"
       fy="0"
       fx="0"><stop
         id="stop648"
         offset="0"
         style="stop-opacity:1;stop-color:#ffffff" /><stop
         id="stop650"
         offset="0.3315244"
         style="stop-opacity:1;stop-color:#ffffff" /><stop
         id="stop652"
         offset="0.6"
         style="stop-opacity:1;stop-color:#fcd57a" /><stop
         id="stop654"
         offset="0.74245775"
         style="stop-opacity:1;stop-color:#fab20b" /><stop
         id="stop656"
         offset="1"
         style="stop-opacity:1;stop-color:#fab20b" /></radialGradient><clipPath
       id="clipPath668"
       clipPathUnits="userSpaceOnUse"><path
         id="path666"
         d="m 419.819,200.801 0.249,-5.39 c 0.118,0.008 0.237,0.011 0.358,0.011 v 0 c 0.101,0 0.205,-0.001 0.305,-0.007 v 0 l 0.373,5.368 c -0.26,0.02 -0.517,0.03 -0.779,0.03 v 0 c -0.172,0 -0.337,-0.004 -0.506,-0.012"
         inkscape:connector-curvature="0" /></clipPath><radialGradient
       id="radialGradient690"
       spreadMethod="pad"
       gradientTransform="matrix(9.564167,0,0,-11.044335,420.32886,189.77585)"
       gradientUnits="userSpaceOnUse"
       r="1"
       cy="0"
       cx="0"
       fy="0"
       fx="0"><stop
         id="stop674"
         offset="0"
         style="stop-opacity:1;stop-color:#ffffff" /><stop
         id="stop676"
         offset="0.53"
         style="stop-opacity:1;stop-color:#ffffff" /><stop
         id="stop678"
         offset="0.55771394"
         style="stop-opacity:1;stop-color:#ffffff" /><stop
         id="stop680"
         offset="0.77"
         style="stop-opacity:1;stop-color:#fddd92" /><stop
         id="stop682"
         offset="0.78512579"
         style="stop-opacity:1;stop-color:#fddd92" /><stop
         id="stop684"
         offset="0.88"
         style="stop-opacity:1;stop-color:#fbc33f" /><stop
         id="stop686"
         offset="0.96843557"
         style="stop-opacity:1;stop-color:#fab619" /><stop
         id="stop688"
         offset="1"
         style="stop-opacity:1;stop-color:#fab619" /></radialGradient><clipPath
       id="clipPath700"
       clipPathUnits="userSpaceOnUse"><path
         id="path698"
         d="m 415.928,199.794 2.161,-4.939 c 0.19,0.101 0.396,0.187 0.603,0.262 v 0 l -1.569,5.169 c -0.412,-0.139 -0.809,-0.304 -1.195,-0.492"
         inkscape:connector-curvature="0" /></clipPath><radialGradient
       id="radialGradient722"
       spreadMethod="pad"
       gradientTransform="matrix(8.881959,3.7902613,3.9234958,-10.258007,420.32858,189.77411)"
       gradientUnits="userSpaceOnUse"
       r="1"
       cy="0"
       cx="0"
       fy="0"
       fx="0"><stop
         id="stop706"
         offset="0"
         style="stop-opacity:1;stop-color:#ffffff" /><stop
         id="stop708"
         offset="0.53"
         style="stop-opacity:1;stop-color:#ffffff" /><stop
         id="stop710"
         offset="0.55771394"
         style="stop-opacity:1;stop-color:#ffffff" /><stop
         id="stop712"
         offset="0.77"
         style="stop-opacity:1;stop-color:#fddd92" /><stop
         id="stop714"
         offset="0.78512579"
         style="stop-opacity:1;stop-color:#fddd92" /><stop
         id="stop716"
         offset="0.88"
         style="stop-opacity:1;stop-color:#fbc33f" /><stop
         id="stop718"
         offset="0.96843557"
         style="stop-opacity:1;stop-color:#fab619" /><stop
         id="stop720"
         offset="1"
         style="stop-opacity:1;stop-color:#fab619" /></radialGradient><clipPath
       id="clipPath732"
       clipPathUnits="userSpaceOnUse"><path
         id="path730"
         d="m 412.709,197.336 3.778,-3.753 c 0.145,0.168 0.305,0.334 0.47,0.486 v 0 l -3.312,4.197 c -0.331,-0.289 -0.644,-0.601 -0.936,-0.93"
         inkscape:connector-curvature="0" /></clipPath><radialGradient
       id="radialGradient754"
       spreadMethod="pad"
       gradientTransform="matrix(6.89044,7.0268636,7.277328,-7.9573121,420.32913,189.77545)"
       gradientUnits="userSpaceOnUse"
       r="1"
       cy="0"
       cx="0"
       fy="0"
       fx="0"><stop
         id="stop738"
         offset="0"
         style="stop-opacity:1;stop-color:#ffffff" /><stop
         id="stop740"
         offset="0.53"
         style="stop-opacity:1;stop-color:#ffffff" /><stop
         id="stop742"
         offset="0.55771394"
         style="stop-opacity:1;stop-color:#ffffff" /><stop
         id="stop744"
         offset="0.77"
         style="stop-opacity:1;stop-color:#fddd92" /><stop
         id="stop746"
         offset="0.78512579"
         style="stop-opacity:1;stop-color:#fddd92" /><stop
         id="stop748"
         offset="0.88"
         style="stop-opacity:1;stop-color:#fbc33f" /><stop
         id="stop750"
         offset="0.96843557"
         style="stop-opacity:1;stop-color:#fab619" /><stop
         id="stop752"
         offset="1"
         style="stop-opacity:1;stop-color:#fab619" /></radialGradient><clipPath
       id="clipPath764"
       clipPathUnits="userSpaceOnUse"><path
         id="path762"
         d="m 410.595,193.828 4.869,-1.997 c 0.075,0.215 0.163,0.425 0.263,0.625 v 0 l -4.587,2.596 c -0.175,-0.329 -0.426,-0.893 -0.545,-1.224"
         inkscape:connector-curvature="0" /></clipPath><radialGradient
       id="radialGradient786"
       spreadMethod="pad"
       gradientTransform="matrix(10.467735,0,0,-11.054602,420.32816,189.77275)"
       gradientUnits="userSpaceOnUse"
       r="1"
       cy="0"
       cx="0"
       fy="0"
       fx="0"><stop
         id="stop770"
         offset="0"
         style="stop-opacity:1;stop-color:#ffffff" /><stop
         id="stop772"
         offset="0.53"
         style="stop-opacity:1;stop-color:#ffffff" /><stop
         id="stop774"
         offset="0.55771394"
         style="stop-opacity:1;stop-color:#ffffff" /><stop
         id="stop776"
         offset="0.77"
         style="stop-opacity:1;stop-color:#fddd92" /><stop
         id="stop778"
         offset="0.78512579"
         style="stop-opacity:1;stop-color:#fddd92" /><stop
         id="stop780"
         offset="0.88"
         style="stop-opacity:1;stop-color:#fbc33f" /><stop
         id="stop782"
         offset="0.96843557"
         style="stop-opacity:1;stop-color:#fab619" /><stop
         id="stop784"
         offset="1"
         style="stop-opacity:1;stop-color:#fab619" /></radialGradient><clipPath
       id="clipPath796"
       clipPathUnits="userSpaceOnUse"><path
         id="path794"
         d="m 422.098,195.142 c 0.21,-0.074 0.424,-0.171 0.623,-0.268 v 0 l 2.235,4.801 c -0.384,0.201 -0.782,0.376 -1.187,0.526 v 0 z"
         inkscape:connector-curvature="0" /></clipPath><radialGradient
       id="radialGradient818"
       spreadMethod="pad"
       gradientTransform="matrix(8.8752899,-3.7874153,-3.9205499,-10.250305,420.32831,189.77299)"
       gradientUnits="userSpaceOnUse"
       r="1"
       cy="0"
       cx="0"
       fy="0"
       fx="0"><stop
         id="stop802"
         offset="0"
         style="stop-opacity:1;stop-color:#ffffff" /><stop
         id="stop804"
         offset="0.53"
         style="stop-opacity:1;stop-color:#ffffff" /><stop
         id="stop806"
         offset="0.55771394"
         style="stop-opacity:1;stop-color:#ffffff" /><stop
         id="stop808"
         offset="0.77"
         style="stop-opacity:1;stop-color:#fddd92" /><stop
         id="stop810"
         offset="0.78512579"
         style="stop-opacity:1;stop-color:#fddd92" /><stop
         id="stop812"
         offset="0.88"
         style="stop-opacity:1;stop-color:#fbc33f" /><stop
         id="stop814"
         offset="0.96843557"
         style="stop-opacity:1;stop-color:#fab619" /><stop
         id="stop816"
         offset="1"
         style="stop-opacity:1;stop-color:#fab619" /></radialGradient><clipPath
       id="clipPath828"
       clipPathUnits="userSpaceOnUse"><path
         id="path826"
         d="m 423.854,194.107 c 0.167,-0.155 0.327,-0.315 0.475,-0.488 v 0 l 3.758,3.551 c -0.286,0.333 -0.586,0.647 -0.911,0.941 v 0 z"
         inkscape:connector-curvature="0" /></clipPath><radialGradient
       id="radialGradient850"
       spreadMethod="pad"
       gradientTransform="matrix(6.8700438,-7.0060639,-7.2557864,-7.9337583,420.32605,189.77408)"
       gradientUnits="userSpaceOnUse"
       r="1"
       cy="0"
       cx="0"
       fy="0"
       fx="0"><stop
         id="stop834"
         offset="0"
         style="stop-opacity:1;stop-color:#ffffff" /><stop
         id="stop836"
         offset="0.53"
         style="stop-opacity:1;stop-color:#ffffff" /><stop
         id="stop838"
         offset="0.55771394"
         style="stop-opacity:1;stop-color:#ffffff" /><stop
         id="stop840"
         offset="0.77"
         style="stop-opacity:1;stop-color:#fddd92" /><stop
         id="stop842"
         offset="0.78512579"
         style="stop-opacity:1;stop-color:#fddd92" /><stop
         id="stop844"
         offset="0.88"
         style="stop-opacity:1;stop-color:#fbc33f" /><stop
         id="stop846"
         offset="0.96843557"
         style="stop-opacity:1;stop-color:#fab619" /><stop
         id="stop848"
         offset="1"
         style="stop-opacity:1;stop-color:#fab619" /></radialGradient><clipPath
       id="clipPath860"
       clipPathUnits="userSpaceOnUse"><path
         id="path858"
         d="m 425.134,192.432 c 0.097,-0.205 0.189,-0.413 0.268,-0.632 v 0 l 4.734,1.798 c -0.149,0.422 -0.321,0.831 -0.513,1.227 v 0 z"
         inkscape:connector-curvature="0" /></clipPath><radialGradient
       id="radialGradient882"
       spreadMethod="pad"
       gradientTransform="matrix(3.8764091,-9.1962633,-9.5218611,-4.4766955,420.33212,189.77701)"
       gradientUnits="userSpaceOnUse"
       r="1"
       cy="0"
       cx="0"
       fy="0"
       fx="0"><stop
         id="stop866"
         offset="0"
         style="stop-opacity:1;stop-color:#ffffff" /><stop
         id="stop868"
         offset="0.53"
         style="stop-opacity:1;stop-color:#ffffff" /><stop
         id="stop870"
         offset="0.55771394"
         style="stop-opacity:1;stop-color:#ffffff" /><stop
         id="stop872"
         offset="0.77"
         style="stop-opacity:1;stop-color:#fddd92" /><stop
         id="stop874"
         offset="0.78512579"
         style="stop-opacity:1;stop-color:#fddd92" /><stop
         id="stop876"
         offset="0.88"
         style="stop-opacity:1;stop-color:#fbc33f" /><stop
         id="stop878"
         offset="0.96843557"
         style="stop-opacity:1;stop-color:#fab619" /><stop
         id="stop880"
         offset="1"
         style="stop-opacity:1;stop-color:#fab619" /></radialGradient><clipPath
       id="clipPath892"
       clipPathUnits="userSpaceOnUse"><path
         id="path890"
         d="m 421.273,195.411 c -0.278,0.044 -0.558,0.071 -0.847,0.071 v 0 c -0.307,0 -0.609,-0.03 -0.902,-0.08 v 0 l -1.006,4.538 0.636,-4.619 c -0.548,-0.142 -1.06,-0.368 -1.527,-0.671 v 0 l -2.544,3.812 2.225,-4.032 c -0.445,-0.335 -0.841,-0.743 -1.173,-1.204 v 0 l -3.786,2.578 3.564,-2.912 c -0.207,-0.333 -0.379,-0.693 -0.513,-1.071 v 0 c 0.439,-0.367 1.78,-1.483 1.825,-1.483 v 0 c 0.059,0 1.688,1 1.688,1 v 0 l 1.462,1.059 1.271,-0.979 0.959,-0.2 0.971,-0.7 c 0,0 1.064,0.746 1.874,1.297 v 0 c -0.138,0.393 -0.316,0.762 -0.53,1.104 v 0 l 3.525,2.885 -3.748,-2.555 c -0.34,0.468 -0.74,0.875 -1.195,1.211 v 0 l 2.211,4.002 -2.528,-3.785 c -0.474,0.296 -0.991,0.521 -1.539,0.655 v 0 l 0.629,4.608 z"
         inkscape:connector-curvature="0" /></clipPath><radialGradient
       id="radialGradient906"
       spreadMethod="pad"
       gradientTransform="matrix(10.460684,0,0,-11.047154,420.30731,189.77039)"
       gradientUnits="userSpaceOnUse"
       r="1"
       cy="0"
       cx="0"
       fy="0"
       fx="0"><stop
         id="stop898"
         offset="0"
         style="stop-opacity:1;stop-color:#ffffff" /><stop
         id="stop900"
         offset="0.72"
         style="stop-opacity:1;stop-color:#ffffff" /><stop
         id="stop902"
         offset="0.75850202"
         style="stop-opacity:1;stop-color:#ffffff" /><stop
         id="stop904"
         offset="1"
         style="stop-opacity:1;stop-color:#fde5ac" /></radialGradient><clipPath
       id="clipPath916"
       clipPathUnits="userSpaceOnUse"><path
         id="path914"
         d="M 0,792 H 612 V 0 H 0 Z"
         inkscape:connector-curvature="0" /></clipPath><clipPath
       id="clipPath1182"
       clipPathUnits="userSpaceOnUse"><path
         id="path1180"
         d="m 473.359,152.787 c 0.783,-1.581 0.512,-1.603 0.589,-1.717 v 0 c 2.312,-3.317 2.582,-6.596 2.582,-6.596 v 0 c 0.844,0.71 2.372,-0.308 2.372,-0.308 v 0 c 1.544,1.477 3.676,0.999 3.676,0.999 v 0 c 0,0 0.976,-0.207 1.036,-0.219 v 0 c 2.035,-0.438 3.484,0.182 3.484,0.182 v 0 c 1.093,-0.315 2.353,-0.513 2.353,-0.513 v 0 c 2.587,-0.249 3.291,-0.285 3.291,-0.285 v 0 c -2.4,2.149 -1.764,7.077 -2.22,7.571 v 0 c -0.059,0.061 -0.166,0.039 -0.401,0.016 v 0 c -0.193,-0.018 -0.475,-0.037 -0.888,-0.007 v 0 c -0.484,0.034 -1.687,-0.084 -2.093,-0.194 v 0 c -0.511,-0.139 -0.812,-0.194 -1.645,-0.034 v 0 c -0.414,0.078 -0.737,-0.015 -1.065,-0.107 v 0 c -0.425,-0.119 -0.86,-0.239 -1.512,0.012 v 0 c -2.776,1.071 -6.441,1.225 -8.325,1.225 v 0 c -0.763,0 -1.234,-0.025 -1.234,-0.025"
         inkscape:connector-curvature="0" /></clipPath><linearGradient
       id="linearGradient1206"
       spreadMethod="pad"
       gradientTransform="matrix(14.512892,7.7166419,7.7166419,-14.512892,476.08707,144.85619)"
       gradientUnits="userSpaceOnUse"
       y2="0"
       x2="1"
       y1="0"
       x1="0"><stop
         id="stop1188"
         offset="0"
         style="stop-opacity:1;stop-color:#d3d2d2" /><stop
         id="stop1190"
         offset="0.039326"
         style="stop-opacity:1;stop-color:#d3d2d2" /><stop
         id="stop1192"
         offset="0.196629"
         style="stop-opacity:1;stop-color:#ffffff" /><stop
         id="stop1194"
         offset="0.370786"
         style="stop-opacity:1;stop-color:#c8c7c7" /><stop
         id="stop1196"
         offset="0.53103511"
         style="stop-opacity:1;stop-color:#ffffff" /><stop
         id="stop1198"
         offset="0.623595"
         style="stop-opacity:1;stop-color:#ffffff" /><stop
         id="stop1200"
         offset="0.63332203"
         style="stop-opacity:1;stop-color:#ffffff" /><stop
         id="stop1202"
         offset="0.775281"
         style="stop-opacity:1;stop-color:#cccbcc" /><stop
         id="stop1204"
         offset="1"
         style="stop-opacity:1;stop-color:#ffffff" /></linearGradient><clipPath
       id="clipPath1216"
       clipPathUnits="userSpaceOnUse"><path
         id="path1214"
         d="m 484.682,150.052 c 0,0 0.077,-1.032 0.333,-1.681 v 0 c 0,0 0.372,-0.92 -0.228,-1.597 v 0 c 0,0 2.409,-0.622 4.661,-2.161 v 0 c 0,0 1.53,-0.168 2.582,-0.311 v 0 c 0.159,0.025 0.752,0.042 0.752,0.042 v 0 c -0.384,0.479 -2.284,2.039 -7.314,4.089 v 0 c 0,0 1.081,1.436 5.282,1.916 v 0 c 0,0 0.002,1.239 -0.105,1.639 v 0 c 0,0 -0.123,0.015 -0.35,0.015 v 0 c -0.825,0 -3.021,-0.19 -5.613,-1.951"
         inkscape:connector-curvature="0" /></clipPath><linearGradient
       id="linearGradient1246"
       spreadMethod="pad"
       gradientTransform="matrix(7.2053943,3.3599305,3.3599305,-7.2053943,485.07663,145.58496)"
       gradientUnits="userSpaceOnUse"
       y2="0"
       x2="1"
       y1="0"
       x1="0"><stop
         id="stop1222"
         offset="0"
         style="stop-opacity:1;stop-color:#88a4db" /><stop
         id="stop1224"
         offset="0.033708"
         style="stop-opacity:1;stop-color:#88a4db" /><stop
         id="stop1226"
         offset="0.13492408"
         style="stop-opacity:1;stop-color:#88a4db" /><stop
         id="stop1228"
         offset="0.297753"
         style="stop-opacity:1;stop-color:#467cc8" /><stop
         id="stop1230"
         offset="0.33425668"
         style="stop-opacity:1;stop-color:#467cc8" /><stop
         id="stop1232"
         offset="0.550562"
         style="stop-opacity:1;stop-color:#1a68bb" /><stop
         id="stop1234"
         offset="0.56579488"
         style="stop-opacity:1;stop-color:#1a68bb" /><stop
         id="stop1236"
         offset="0.724719"
         style="stop-opacity:1;stop-color:#5383cc" /><stop
         id="stop1238"
         offset="0.82757233"
         style="stop-opacity:1;stop-color:#789ad7" /><stop
         id="stop1240"
         offset="0.876404"
         style="stop-opacity:1;stop-color:#789ad7" /><stop
         id="stop1242"
         offset="0.95262208"
         style="stop-opacity:1;stop-color:#789ad7" /><stop
         id="stop1244"
         offset="1"
         style="stop-opacity:1;stop-color:#789ad7" /></linearGradient><clipPath
       id="clipPath1256"
       clipPathUnits="userSpaceOnUse"><path
         id="path1254"
         d="M 0,792 H 612 V 0 H 0 Z"
         inkscape:connector-curvature="0" /></clipPath><clipPath
       id="clipPath1268"
       clipPathUnits="userSpaceOnUse"><path
         id="path1266"
         d="m 473.221,152.809 c 0.368,-0.778 0.723,-1.726 0.723,-1.726 v 0 c 4.78,-0.911 6.731,-2.783 6.731,-2.783 v 0 c -2.456,-1.237 -4.145,-3.814 -4.145,-3.814 v 0 c 0.179,-0.486 0.275,-0.914 0.275,-0.914 v 0 c 0.111,0.057 2.094,0.611 2.094,0.611 v 0 c 1.232,2.097 3.309,2.812 3.309,2.812 v 0 c -1.239,0.583 -1.633,3.379 -1.67,3.401 v 0 c -3.535,2.227 -6.218,2.422 -7.048,2.422 v 0 c -0.176,0 -0.269,-0.009 -0.269,-0.009"
         inkscape:connector-curvature="0" /></clipPath><linearGradient
       id="linearGradient1286"
       spreadMethod="pad"
       gradientTransform="matrix(6.1442294,2.8651011,2.8651011,-6.1442294,474.56952,147.80106)"
       gradientUnits="userSpaceOnUse"
       y2="0"
       x2="1"
       y1="0"
       x1="0"><stop
         id="stop1274"
         offset="0"
         style="stop-opacity:1;stop-color:#1a68bb" /><stop
         id="stop1276"
         offset="0.13392611"
         style="stop-opacity:1;stop-color:#1a68bb" /><stop
         id="stop1278"
         offset="0.47191"
         style="stop-opacity:1;stop-color:#94acdf" /><stop
         id="stop1280"
         offset="0.679775"
         style="stop-opacity:1;stop-color:#2b6fc0" /><stop
         id="stop1282"
         offset="0.81802171"
         style="stop-opacity:1;stop-color:#1a68bb" /><stop
         id="stop1284"
         offset="1"
         style="stop-opacity:1;stop-color:#1a68bb" /></linearGradient><clipPath
       id="clipPath1296"
       clipPathUnits="userSpaceOnUse"><path
         id="path1294"
         d="M 0,792 H 612 V 0 H 0 Z"
         inkscape:connector-curvature="0" /></clipPath><clipPath
       id="clipPath1348"
       clipPathUnits="userSpaceOnUse"><path
         id="path1346"
         d="m 480.526,150.534 c 0.205,-1.201 0.582,-2.173 0.582,-2.173 v 0 c 0.562,-1.396 1.854,-1.839 1.854,-1.839 v 0 c 0.703,-0.314 0.827,-0.466 0.827,-0.466 v 0 c 1.975,0.747 1.163,2.498 1.163,2.498 v 0 c -0.254,0.806 -0.253,1.416 -0.253,1.612 v 0 c 0,0 0.007,0.121 -0.061,0.111 v 0 c -0.099,-0.017 -0.199,-0.033 -0.199,-0.033 v 0 c -0.104,-0.02 -0.181,-0.02 -0.204,-0.02 v 0 c -0.403,-0.014 -0.818,0.106 -0.818,0.106 v 0 c -0.841,0.258 -1.363,0.321 -1.363,0.321 v 0 c -0.171,0.022 -0.334,0.031 -0.486,0.031 v 0 c -0.618,0 -1.042,-0.148 -1.042,-0.148"
         inkscape:connector-curvature="0" /></clipPath><linearGradient
       id="linearGradient1366"
       spreadMethod="pad"
       gradientTransform="matrix(4.1173873,2.8830256,2.8830256,-4.1173873,480.96497,147.40454)"
       gradientUnits="userSpaceOnUse"
       y2="0"
       x2="1"
       y1="0"
       x1="0"><stop
         id="stop1354"
         offset="0"
         style="stop-opacity:1;stop-color:#fde064" /><stop
         id="stop1356"
         offset="0.382022"
         style="stop-opacity:1;stop-color:#fde064" /><stop
         id="stop1358"
         offset="0.64787351"
         style="stop-opacity:1;stop-color:#fef5c9" /><stop
         id="stop1360"
         offset="0.713483"
         style="stop-opacity:1;stop-color:#fef5c9" /><stop
         id="stop1362"
         offset="0.81203125"
         style="stop-opacity:1;stop-color:#fef5c9" /><stop
         id="stop1364"
         offset="1"
         style="stop-opacity:1;stop-color:#fde064" /></linearGradient><clipPath
       id="clipPath1376"
       clipPathUnits="userSpaceOnUse"><path
         id="path1374"
         d="M 0,792 H 612 V 0 H 0 Z"
         inkscape:connector-curvature="0" /></clipPath><clipPath
       id="clipPath2158"
       clipPathUnits="userSpaceOnUse"><path
         id="path2156"
         d="M 0,792 H 612 V 0 H 0 Z"
         inkscape:connector-curvature="0" /></clipPath></defs><g
     transform="matrix(8.4855486,0,0,-8.4855486,-374.01583,6313.1591)"
     id="g10"
     style="stroke-width:0.15712988"><g
       style="fill:#4c98d9;fill-opacity:1;stroke-width:0.15712988"
       transform="translate(73.3408,711.7715)"
       id="g298"><path
         id="path300"
         style="fill:#4c98d9;fill-opacity:1;fill-rule:nonzero;stroke:none;stroke-width:0.15712988"
         d="M 0,0 H -7.269 L -3.778,16.631 -11.522,0 h -6.633 L -18.854,16.631 -22.377,0 h -6.887 l 4.507,21.171 h 11.87 l 0.032,-12.506 5.364,12.506 H 4.506 Z"
         inkscape:connector-curvature="0" /></g><g
       style="fill:#4c98d9;fill-opacity:1;stroke-width:0.15712988"
       transform="translate(84.355,711.7715)"
       id="g302"><path
         id="path304"
         style="fill:#4c98d9;fill-opacity:1;fill-rule:nonzero;stroke:none;stroke-width:0.15712988"
         d="m 0,0 h -7.65 l 3.427,16.155 h 7.651 z"
         inkscape:connector-curvature="0" /></g><g
       style="fill:#4c98d9;fill-opacity:1;stroke-width:0.15712988"
       transform="translate(142.8999,722.7856)"
       id="g306"><path
         id="path308"
         style="fill:#4c98d9;fill-opacity:1;fill-rule:nonzero;stroke:none;stroke-width:0.15712988"
         d="m 0,0 c -0.856,0.508 -2.063,0.825 -3.048,0.825 -2.76,0 -4.888,-2.032 -4.888,-4.761 0,-1.903 1.461,-2.794 3.269,-2.794 1.239,0 2.443,0.286 3.524,0.92 l -0.825,-4.791 c -1.872,-0.573 -3.84,-0.763 -5.808,-0.763 -4.19,0 -8.285,1.461 -8.285,6.349 0,7.047 5.333,10.473 11.873,10.473 1.808,0 3.648,-0.158 5.393,-0.698 z"
         inkscape:connector-curvature="0" /></g><g
       style="fill:#4c98d9;fill-opacity:1;stroke-width:0.15712988"
       transform="translate(159.3291,723.3882)"
       id="g310"><path
         id="path312"
         style="fill:#4c98d9;fill-opacity:1;fill-rule:nonzero;stroke:none;stroke-width:0.15712988"
         d="m 0,0 c -1.521,0.603 -3.14,1.016 -4.792,1.016 -0.696,0 -2.571,-0.063 -2.571,-1.078 0,-1.841 7.682,-1.366 7.682,-5.555 0,-5.46 -5.807,-6.349 -10.093,-6.349 -2.222,0 -4.445,0.318 -6.571,0.889 l 1.27,4.411 c 1.524,-0.824 3.268,-1.332 5.015,-1.332 0.792,0 3.015,0.062 3.015,1.206 0,1.523 -7.491,0.983 -7.491,5.554 0,5.078 6.19,6.127 10.124,6.127 1.968,0 3.905,-0.319 5.81,-0.763 z"
         inkscape:connector-curvature="0" /></g><g
       style="fill:#4c98d9;fill-opacity:1;stroke-width:0.15712988"
       transform="translate(118.792,727.9316)"
       id="g314"><path
         id="path316"
         style="fill:#4c98d9;fill-opacity:1;fill-rule:nonzero;stroke:none;stroke-width:0.15712988"
         d="m 0,0 c -0.05,0 -0.075,-0.339 -0.106,-0.562 -1.226,0.527 -2.748,0.79 -4.332,0.79 -1.342,0 -2.589,-0.182 -3.725,-0.512 l 6.024,-4.319 v -0.001 c 1.139,-0.567 1.514,-1.943 1.126,-3.509 -0.525,-2.121 -2.167,-3.753 -4.294,-3.753 -0.634,0 -1.148,0.147 -1.55,0.406 l -0.003,-0.004 -0.017,0.015 c -0.067,0.043 -0.131,0.096 -0.193,0.145 l -7.568,5.709 c -0.385,-0.812 -0.648,-1.672 -0.778,-2.561 -0.682,-4.696 2.382,-8.309 8.556,-8.309 1.057,0 2.39,0.467 3.636,1.22 -0.076,-0.342 -0.144,-0.66 -0.188,-0.915 h 7.904 c 0.095,0.731 0.095,1.554 0.508,3.555 l 2.67,12.6 C 6.324,-0.005 0,0 0,0"
         inkscape:connector-curvature="0" /></g><g
       style="fill:#4c98d9;fill-opacity:1;stroke-width:0.15712988"
       transform="translate(92.6411,730.6562)"
       id="g318"><path
         id="path320"
         style="fill:#4c98d9;fill-opacity:1;fill-rule:nonzero;stroke:none;stroke-width:0.15712988"
         d="m 0,0 -0.573,-2.729 h -2.698 l -0.983,-4.633 h 2.698 l -1.207,-5.618 c -0.159,-0.73 -0.255,-1.461 -0.255,-2.224 0,-3.077 1.968,-4.03 4.761,-4.03 2.35,0 4.349,0.445 5.557,0.794 l 0.792,4.665 c -0.539,-0.19 -1.142,-0.286 -1.715,-0.286 -0.856,0 -1.363,0.319 -1.363,1.24 0,0.284 0.031,0.539 0.095,0.824 l 0.983,4.635 h 3.46 l 0.094,0.448 -9.298,7.016 z"
         inkscape:connector-curvature="0" /></g><g
       style="fill:#4c98d9;fill-opacity:1;stroke-width:0.15712988"
       transform="translate(90.4404,740.1055)"
       id="g322"><path
         id="path324"
         style="fill:#4c98d9;fill-opacity:1;fill-rule:nonzero;stroke:none;stroke-width:0.15712988"
         d="m 0,0 c 0,-2.146 -1.74,-3.886 -3.884,-3.886 -2.146,0 -3.884,1.74 -3.884,3.886 0,2.146 1.738,3.884 3.884,3.884 C -1.74,3.884 0,2.146 0,0"
         inkscape:connector-curvature="0" /></g></g></svg>