<?xml version="1.0" encoding="UTF-8" standalone="no"?>
<svg
   xmlns:dc="http://purl.org/dc/elements/1.1/"
   xmlns:cc="http://creativecommons.org/ns#"
   xmlns:rdf="http://www.w3.org/1999/02/22-rdf-syntax-ns#"
   xmlns:svg="http://www.w3.org/2000/svg"
   xmlns="http://www.w3.org/2000/svg"
   viewBox="0 0 590.66669 148"
   height="148"
   width="590.66669"
   xml:space="preserve"
   id="svg2"
   version="1.1"><metadata
     id="metadata8"><rdf:RDF><cc:Work
         rdf:about=""><dc:format>image/svg+xml</dc:format><dc:type
           rdf:resource="http://purl.org/dc/dcmitype/StillImage" /><dc:title></dc:title></cc:Work></rdf:RDF></metadata><defs
     id="defs6" /><g
     transform="matrix(1.3333333,0,0,-1.3333333,0,148)"
     id="g10"><g
       transform="scale(0.1)"
       id="g12"><path
         id="path14"
         style="fill:#231f20;fill-opacity:1;fill-rule:nonzero;stroke:none"
         d="m 1704.26,870.398 h -27.66 c -3.55,135.462 -58.05,198.082 -184.26,198.082 -181.48,0 -206.32,-157.539 -206.32,-311.402 0,-129.887 14.72,-312.269 190.66,-312.269 128.05,0 195.51,88.089 198.98,219.261 h 27.66 V 481.648 c -82.93,-45.117 -154.77,-65.398 -229.41,-65.398 -199.89,0 -309.5,142.781 -309.5,340.828 0,196.25 122.5,339.962 322.43,339.962 72.77,0 150.15,-22.11 217.42,-53.44 V 870.398" /><path
         id="path16"
         style="fill:#231f20;fill-opacity:1;fill-rule:nonzero;stroke:none"
         d="m 1913.32,693.52 c 37.77,9.218 66.33,17.5 101.33,29.492 v 38.668 c 0,63.601 -11.06,105.039 -71.88,105.039 -46.05,0 -74.18,-13.821 -74.18,-74.61 0,-35.929 -13.82,-52.687 -46.05,-52.687 -23.95,0 -45.59,11.207 -45.59,38.867 0,88.43 89.38,111.441 163.09,111.441 140.94,0 168.55,-58.011 168.55,-134.492 V 521.25 c 0,-70 21.21,-70.93 72.78,-70.93 v -23.05 h -70 c -51.6,0 -87.5,4.652 -102.27,59.921 -35.94,-55.269 -81.05,-70.941 -141.83,-70.941 -95.82,0 -126.22,49.73 -126.22,133.602 0,76.437 39.61,112.339 117,130.777 z m 5.51,-24.84 c -55.28,-16.602 -72.78,-36.879 -72.78,-117.93 0,-56.211 10.16,-105.941 59.89,-105.941 80.15,0 108.71,101.332 108.71,163.98 v 88.441 l -95.82,-28.55" /><path
         id="path18"
         style="fill:#231f20;fill-opacity:1;fill-rule:nonzero;stroke:none"
         d="m 2246.72,855.672 h -79.22 v 23.047 h 173.16 V 772.781 h 1.88 c 19.3,53.399 58.91,116.949 128.94,116.949 54.34,0 83.83,-35 83.83,-88.402 0,-36.867 -14.72,-61.75 -47.89,-61.75 -24.88,0 -46.05,18.434 -46.05,46.992 0,12.891 4.57,35 4.57,46.989 0,12.89 -9.18,23.05 -23.01,23.05 -47.89,0 -102.27,-105.039 -102.27,-204.531 V 450.32 h 76.49 v -23.05 h -248.36 v 23.05 h 77.93 v 405.352" /><path
         id="path20"
         style="fill:#231f20;fill-opacity:1;fill-rule:nonzero;stroke:none"
         d="m 2528.2,1085.98 h 173.21 V 450.32 h 79.21 V 427.27 H 2528.2 v 23.05 h 79.22 v 612.61 h -79.22 v 23.05" /><path
         id="path22"
         style="fill:#231f20;fill-opacity:1;fill-rule:nonzero;stroke:none"
         d="m 2864.22,681.57 v -7.39 c 0,-128.942 17.5,-229.371 136.33,-229.371 83.83,0 126.21,51.562 150.15,117.929 l 20.28,-7.379 C 3131.37,448.48 3068.71,416.25 2967.38,416.25 c -138.16,0 -208.2,106.84 -208.2,236.762 0,124.34 80.16,236.718 214.65,236.718 117.93,0 198.05,-84.73 198.05,-208.16 z m 197.15,28.551 c 0,66.328 -3.71,156.598 -97.66,156.598 -79.22,0 -99.49,-99.489 -99.49,-156.598 h 197.15" /><path
         id="path24"
         style="fill:#231f20;fill-opacity:1;fill-rule:nonzero;stroke:none"
         d="m 3173.01,878.719 h 63.59 v 122.501 h 93.95 V 878.719 h 102.22 V 855.672 H 3330.55 V 535.078 c 0,-54.367 11.05,-80.148 48.83,-80.148 35,0 49.76,25.781 64.49,55.308 l 21.17,-9.258 -8.28,-16.558 c -18.44,-33.172 -49.77,-62.66 -116.1,-62.66 -95.78,0 -104.06,54.379 -104.06,113.316 v 320.594 h -63.59 v 23.047" /><path
         id="path26"
         style="fill:#231f20;fill-opacity:1;fill-rule:nonzero;stroke:none"
         d="m 3669.61,889.73 c 163.98,0 214.65,-143.71 214.65,-236.718 0,-93.043 -50.67,-236.762 -214.65,-236.762 -163.99,0 -214.65,143.719 -214.65,236.762 0,93.008 50.66,236.718 214.65,236.718 z m 0,-450.468 c 108.71,0 109.65,116.988 109.65,213.75 0,96.718 -0.94,213.707 -109.65,213.707 -108.71,0 -109.61,-116.989 -109.61,-213.707 0,-96.762 0.9,-213.75 109.61,-213.75" /><path
         id="path28"
         style="fill:#231f20;fill-opacity:1;fill-rule:nonzero;stroke:none"
         d="m 3962.81,450.32 v 405.352 h -79.22 v 23.047 h 173.21 v -86.61 h 1.83 c 28.56,62.621 83.83,97.621 159.38,97.621 90.27,0 135.43,-37.73 135.43,-129.878 V 450.32 h 72.77 v -23.05 h -239.53 v 23.05 h 72.77 v 304.918 c 0,50.66 -9.22,101.371 -73.71,101.371 -85.66,0 -128.94,-81.097 -128.94,-166.757 V 450.32 h 72.77 v -23.05 h -245.98 v 23.05 h 79.22" /><path
         id="path30"
         style="fill:#231f20;fill-opacity:1;fill-rule:nonzero;stroke:none"
         d="m 1435.31,103.09 c 0,-47.6916 -32.03,-83.09 -93.59,-83.09 -61.88,0 -93.91,35.3984 -93.91,83.09 v 124.18 h 48.99 V 104.809 c 0,-24.8402 18.86,-43.7074 44.92,-43.7074 25.74,0 44.61,18.8672 44.61,43.7074 V 227.27 h 48.98 V 103.09" /><path
         id="path32"
         style="fill:#231f20;fill-opacity:1;fill-rule:nonzero;stroke:none"
         d="m 1621.84,227.27 h 66.6 l 94.53,-140.4692 h 0.62 V 227.27 h 48.99 V 25.1211 h -64.06 l -97.07,143.9099 h -0.63 V 25.1211 h -48.98 V 227.27" /><path
         id="path34"
         style="fill:#231f20;fill-opacity:1;fill-rule:nonzero;stroke:none"
         d="m 2020.04,25.1211 h 48.9805 v 202.148 H 2020.04 Z" /><path
         id="path36"
         style="fill:#231f20;fill-opacity:1;fill-rule:nonzero;stroke:none"
         d="m 2231.37,227.27 h 55.9 l 54.96,-132.4614 h 0.62 l 55.9,132.4614 h 52.46 L 2359.49,25.1211 h -39.26 L 2231.37,227.27" /><path
         id="path38"
         style="fill:#231f20;fill-opacity:1;fill-rule:nonzero;stroke:none"
         d="m 2597.19,227.27 h 151.09 v -41.09 h -102.07 v -37.7 h 96.41 v -41.128 h -96.41 V 66.25 h 107.7 V 25.1211 H 2597.19 V 227.27" /><path
         id="path40"
         style="fill:#231f20;fill-opacity:1;fill-rule:nonzero;stroke:none"
         d="m 2937.58,227.27 h 86.05 c 45.55,0 83.87,-14.258 83.87,-61.372 0,-28.277 -16.64,-50.269 -48.09,-55.386 l 56.57,-85.3909 h -58.75 l -46.49,80.8199 H 2986.6 V 25.1211 h -49.02 z m 49.02,-83.629 h 28.87 c 17.89,0 41.17,0.539 41.17,22.539 0,20.269 -20.16,23.398 -38.01,23.398 h -32.03 v -45.937" /><path
         id="path42"
         style="fill:#231f20;fill-opacity:1;fill-rule:nonzero;stroke:none"
         d="m 3406.45,177.898 c -7.86,9.141 -23.56,13.391 -35.47,13.391 -13.83,0 -33.01,-5.699 -33.01,-20.82 0,-36.828 102.42,-13.16 102.42,-83.9377 C 3440.39,41.4102 3400.51,20 3354.65,20 c -28.6,0 -53.71,7.6992 -74.77,25.3984 l 34.85,34.8399 c 10.07,-11.9883 26.4,-19.1367 42.73,-19.1367 16.02,0 33.91,6.8672 33.91,21.1289 0,37.1095 -104.26,17.1484 -104.26,84.5315 0,43.09 41.13,65.668 84.8,65.668 25.12,0 49.3,-6.02 68.17,-21.141 l -33.63,-33.391" /><path
         id="path44"
         style="fill:#231f20;fill-opacity:1;fill-rule:nonzero;stroke:none"
         d="m 3622.19,25.1211 h 49.0195 v 202.148 H 3622.19 Z" /><path
         id="path46"
         style="fill:#231f20;fill-opacity:1;fill-rule:nonzero;stroke:none"
         d="m 3898.55,187.898 h -63.47 v 39.372 h 175.9 v -39.372 h -63.44 V 25.1211 h -48.99 V 187.898" /><path
         id="path48"
         style="fill:#231f20;fill-opacity:1;fill-rule:nonzero;stroke:none"
         d="m 4228.59,111.371 -83.55,115.899 h 60.94 l 47.11,-75.661 49.96,75.661 h 58.08 L 4277.58,111.371 V 25.1211 h -48.99 v 86.2499" /><path
         id="path50"
         style="fill:#ffffff;fill-opacity:1;fill-rule:nonzero;stroke:none"
         d="m 422.621,10 44.57,14.8906 c 121.598,56.3985 203.59,115.7384 277.579,211.5974 70.07,92.852 96.992,187.692 100.5,312.114 0,0 -1.641,401.679 -2.379,499.568 -43.121,24.65 -302.5,59.53 -420.313,58.48" /><path
         id="path52"
         style="fill:#ffffff;fill-opacity:1;fill-rule:nonzero;stroke:none"
         d="M 422.578,1106.65 C 296.48,1105.51 42.4219,1066.18 1.60156,1050.83 0.0390625,859.73 0.0390625,548.602 0.0390625,548.602 3.05078,429.809 30.5508,329.219 100.551,236.488 174.57,140.512 262.77,80.1602 378.359,24.8516 379.41,24.3398 422.621,10 422.621,10" /><path
         id="path54"
         style="fill:#000000;fill-opacity:1;fill-rule:nonzero;stroke:none"
         d="m 702.27,545.078 -10.629,3.481 -2.301,11.132 -18.289,7.11 c -49.762,17.308 -100.781,31.25 -153.473,36.289 -33.949,3.238 -68.277,0.699 -94.34,-16.09 -26.008,16.789 -60.308,19.328 -94.258,16.09 -52.691,-5.039 -103.781,-18.981 -153.628,-36.289 l -18.282,-7.11 -2.379,-11.132 -10.671,-3.481 -59.5708,-248.937 c 33.6018,6.168 102.8518,16.25 141.2108,20.23 47.738,5.309 88.399,7.348 142.27,5.508 -0.231,-2.149 -0.86,-3.949 0.468,-6.09 6.25,-5.98 18.832,-5.43 28.903,-6.328 10.429,-0.391 15.078,-0.551 25.359,-0.672 10.27,-0.039 14.961,0.281 25.391,0.672 10.039,0.898 22.648,0.348 28.898,6.328 1.332,2.141 0.75,3.941 0.512,6.09 53.91,1.84 94.57,-0.199 142.269,-5.508 38.321,-3.98 107.54,-14.062 141.129,-20.23 z M 416.02,357.699 c -27.739,14.879 -62.391,17.11 -96.098,15.199 C 247.891,368.25 183.09,352.43 115.27,329.301 L 167.191,554.5 c 52.071,19.801 106.789,35.539 163.43,40.352 37.078,2.257 68.988,-2.422 87.309,-15.59 z m 109.64,15.199 c -33.672,1.911 -68.32,-0.32 -96.129,-15.199 l -1.011,221.563 c 18.39,13.168 50.308,17.847 87.378,15.59 C 572.5,590.039 627.191,574.301 679.18,554.5 L 730.121,329.301 C 662.422,352.43 597.73,368.25 525.66,372.898" /><path
         id="path56"
         style="fill:#231f20;fill-opacity:1;fill-rule:nonzero;stroke:none"
         d="m 438.789,1107.08 59.141,-118.908 0.16,-0.434 c 0.23,-0.508 1.051,-2.066 3.16,-5.777 1.949,0.777 3.871,1.519 5.781,2.301 2.66,1.527 99.098,56.368 99.098,56.368 0,0 -42.731,-209.841 -46.91,-230.31 18.941,19.918 95.66,100.621 95.66,100.621 0,0 32.621,-62.031 40.242,-76.519 1.328,0.187 10.5,1.758 10.5,1.758 l -5.23,-0.86 117.578,32.301 -37.379,-131.949 c 0,0 -0.512,-0.863 -0.711,-1.133 h 0.082 c 0,0 -0.43,-1.328 -0.473,-1.57 l 0.352,0.511 c 0,0 -3.078,-9.3 -4.488,-13.441 -0.551,-1.711 -1.832,-5.891 -2.192,-6.988 7.149,-3.672 60.199,-31.051 60.199,-31.051 0,0 -68.668,-60.859 -125.078,-110.859 0.547,-2.621 1.207,-5.743 1.367,-6.45 1.481,-0.511 10.313,-3.402 10.313,-3.402 L 782.66,294.73 c 42.57,76.489 63.36,162.032 62.61,253.872 0,0 -0.309,371.519 -1.559,502.228 -119.762,34.45 -276.91,52.46 -404.922,56.25" /><path
         id="path58"
         style="fill:#231f20;fill-opacity:1;fill-rule:nonzero;stroke:none"
         d="m 422.621,10 c 11.09,4.0313 26.789,7.9688 38.039,12.7383 109.77,45.6211 207.578,114.5317 284.11,213.7497 9.019,11.953 17.378,24.223 25.191,36.723 l -12.891,2.34 c -34.57,6.371 -103.672,16.289 -139.691,20.039 -3.938,0.43 -7.77,0.82 -11.598,1.211 -0.781,0.078 -1.562,0.199 -2.34,0.238 -3.871,0.391 -7.703,0.781 -11.453,1.09 h -0.148 c -3.871,0.351 -7.699,0.66 -11.488,0.98 -0.313,0 -0.622,0.039 -0.942,0.071 -3.898,0.281 -7.73,0.55 -11.601,0.789 -24.957,1.562 -48.938,1.992 -75.661,1.359 -0.347,-0.308 -0.738,-0.699 -0.738,-0.699 -10.672,-10.16 -25.43,-11.02 -36.25,-11.641 l -6.019,-0.386 -6.129,-0.274 -20.512,-0.43 -26.02,0.661 -6.281,0.429 c -10.82,0.621 -25.629,1.481 -36.25,11.684 0,0 -0.398,0.387 -0.711,0.656 -22.687,0.512 -43.398,0.281 -64.449,-0.738 -4.84,-0.231 -9.687,-0.512 -14.57,-0.82 -0.078,0 -0.199,-0.04 -0.27,-0.04 -2.39,-0.152 -4.73,-0.308 -7.148,-0.511 -0.16,0 -0.321,-0.039 -0.473,-0.039 -2.348,-0.149 -4.648,-0.352 -6.988,-0.539 -0.36,0 -0.75,-0.039 -1.141,-0.082 -2.148,-0.2 -4.25,-0.387 -6.437,-0.59 -0.711,-0.071 -1.41,-0.11 -2.114,-0.188 -1.878,-0.16 -3.75,-0.351 -5.668,-0.551 -1.21,-0.121 -2.421,-0.23 -3.671,-0.351 -1.399,-0.16 -2.848,-0.27 -4.289,-0.43 -2.7,-0.308 -5.43,-0.59 -8.211,-0.898 -35.93,-3.711 -105.039,-13.629 -139.5707,-20 l -12.9297,-2.34 c 7.7812,-12.5 16.2109,-24.77 25.2424,-36.723 C 177.07,137.27 274.84,68.3594 384.609,22.7383 395.859,17.9688 411.559,14.0313 422.621,10" /><path
         id="path60"
         style="fill:#231f20;fill-opacity:1;fill-rule:nonzero;stroke:none"
         d="M 406.84,1107.66 C 278.789,1108.25 121.449,1085.32 1.60156,1050.83 0.308594,920.121 0.0390625,548.602 0.0390625,548.602 -0.738281,456.762 20.0391,371.219 62.5781,294.73 L 126.41,561.328 c 0,0 8.942,2.934 10.352,3.363 0.117,0.629 0.66,3.207 1.168,5.629 C 81.3711,620.469 11.9492,682 11.9492,682 c 0,0 53.0508,27.379 60.1992,31.051 -0.3476,1.097 -1.7968,5.629 -2.5,7.89 -1.25,3.75 -2.5781,7.778 -3.3984,10.239 -0.0391,0.039 -0.3516,0.429 -0.3516,0.429 L 27.3398,867.621 144.922,835.32 l -5.121,0.821 c 1.019,-0.2 9.148,-1.532 10.398,-1.719 7.653,14.488 40.231,76.519 40.231,76.519 0,0 76.679,-80.621 95.621,-100.582 -4.172,20.469 -46.871,230.231 -46.871,230.231 0,0 96.441,-54.801 99.101,-56.328 1.918,-0.782 3.828,-1.524 5.778,-2.301 2.191,3.828 2.929,5.348 3.089,5.699 l 0.192,0.469 52.621,105.661 6.879,13.87" /><path
         id="path62"
         style="fill:#e22739;fill-opacity:1;fill-rule:nonzero;stroke:none"
         d="m 98.3984,708.91 c -0.4296,-6.25 -6.289,-13.359 -9.6484,-15.82 l -32.2695,-16.641 104.6095,-92.73 7.031,2.73 0.359,0.121 c 60.231,20.93 110.579,32.77 158.508,37.34 39.422,3.75 71.024,-0.551 96.25,-13.012 25.282,12.461 56.922,16.762 96.332,13.012 47.891,-4.57 98.2,-16.41 158.36,-37.34 l 0.351,-0.16 6.25,-2.422 104.258,92.461 -32.269,16.641 c -3.321,2.461 -9.18,9.57 -9.61,15.82 -0.109,1.879 -0.351,1.641 -0.5,1.09 0,0.16 0.039,0.359 0.07,0.551 0.59,3.668 0,2.929 3.36,12.89 -0.27,-0.269 6.14,19.028 6.332,19.137 l 25.117,88.641 -74.141,-20.391 c -4.058,-0.277 -7.808,-1.68 -11.796,-2.226 -6.993,-1.024 -12.543,-1.954 -16.723,2.648 l -29.719,56.57 -84.648,-89.031 -6.723,-6.68 c -14.258,-10.82 -34.34,0.86 -25.551,31.641 L 570.121,990.941 518.16,961.41 c -6.988,-2.89 -13,-5.269 -22.609,-8.32 -3.172,-0.981 -6.332,1.058 -8.481,3.09 -3.711,6.011 -9.922,16.359 -12.07,21.05 L 422.66,1082.5 370.27,977.23 c -2.11,-4.691 -8.321,-15 -12.032,-21.05 -2.109,-2.032 -5.308,-4.071 -8.468,-3.09 -9.649,3.051 -15.629,5.43 -22.622,8.32 L 275.199,990.941 313.32,803.75 c 8.789,-30.781 -11.332,-42.461 -25.59,-31.641 l -6.679,6.68 -84.602,89.031 -29.769,-56.57 c -4.18,-4.602 -9.801,-3.672 -16.719,-2.648 -3.981,0.546 -7.691,1.949 -11.762,2.226 l -74.1404,20.391 25.082,-88.641 c 0.1992,-0.109 6.5977,-19.406 6.3282,-19.137 3.3593,-9.961 2.7304,-9.222 3.3593,-12.89 0,-0.153 0.043,-0.27 0.043,-0.43 -0.1602,0.469 -0.3516,0.508 -0.4727,-1.211 z M 486.25,956.961 c -2.109,2.258 -2.699,3.867 0,0 z M 359.059,957 c 2.66,3.828 2.113,2.219 0,0" /><path
         id="path64"
         style="fill:#000000;fill-opacity:1;fill-rule:nonzero;stroke:none"
         d="m 387.5,524.262 c -29.609,12.539 -63.949,8.668 -95.23,3.277 -36.961,-6.398 -54.11,-11.051 -94.77,-24.68 l 2.27,10.11 c 0,0 51.25,19.961 120.429,28.051 0,0 39.801,5.039 67.301,-7.149 v -9.609" /><path
         id="path66"
         style="fill:#000000;fill-opacity:1;fill-rule:nonzero;stroke:none"
         d="m 387.5,479.461 c -29.609,12.539 -63.949,8.668 -95.23,3.277 -36.961,-6.41 -63.399,-10.508 -105.321,-24.449 l 2.313,10.152 c 0,0 61.758,19.688 130.937,27.809 0,0 39.801,5 67.301,-7.18 v -9.609" /><path
         id="path68"
         style="fill:#000000;fill-opacity:1;fill-rule:nonzero;stroke:none"
         d="m 387.5,434.07 c -29.609,12.539 -63.949,8.668 -95.23,3.282 -36.961,-6.411 -74.461,-16.293 -116.918,-30.512 L 177.66,417 c 0,0 73.36,25.738 142.539,33.859 0,0 39.801,5 67.301,-7.179 v -9.61" /><path
         id="path70"
         style="fill:#000000;fill-opacity:1;fill-rule:nonzero;stroke:none"
         d="m 456.719,524.262 c 29.609,12.539 63.98,8.668 95.23,3.277 36.961,-6.398 54.102,-11.051 94.813,-24.68 l -2.274,10.11 c 0,0 -51.25,19.961 -120.468,28.051 0,0 -39.758,5.039 -67.301,-7.149 v -9.609" /><path
         id="path72"
         style="fill:#000000;fill-opacity:1;fill-rule:nonzero;stroke:none"
         d="m 456.719,479.461 c 29.609,12.539 63.98,8.668 95.23,3.277 36.961,-6.41 63.442,-10.508 105.321,-24.449 L 655,468.441 c 0,0 -61.762,19.688 -130.98,27.809 0,0 -39.758,5 -67.301,-7.18 v -9.609" /><path
         id="path74"
         style="fill:#000000;fill-opacity:1;fill-rule:nonzero;stroke:none"
         d="m 456.719,434.07 c 29.609,12.539 63.98,8.668 95.23,3.282 36.961,-6.411 74.5,-16.293 116.922,-30.512 L 666.602,417 c 0,0 -73.364,25.738 -142.582,33.859 0,0 -39.758,5 -67.301,-7.179 v -9.61" /></g></g></svg>