<?xml version="1.0" encoding="UTF-8" standalone="no"?>
<svg
   xmlns:dc="http://purl.org/dc/elements/1.1/"
   xmlns:cc="http://creativecommons.org/ns#"
   xmlns:rdf="http://www.w3.org/1999/02/22-rdf-syntax-ns#"
   xmlns:svg="http://www.w3.org/2000/svg"
   xmlns="http://www.w3.org/2000/svg"
   xmlns:sodipodi="http://sodipodi.sourceforge.net/DTD/sodipodi-0.dtd"
   xmlns:inkscape="http://www.inkscape.org/namespaces/inkscape"
   id="Layer_3"
   data-name="Layer 3"
   viewBox="0 0 232 62"
   version="1.1"
   sodipodi:docname="ottawahospital.svg"
   inkscape:version="0.92.2 5c3e80d, 2017-08-06">
  <metadata
     id="metadata83">
    <rdf:RDF>
      <cc:Work
         rdf:about="">
        <dc:format>image/svg+xml</dc:format>
        <dc:type
           rdf:resource="http://purl.org/dc/dcmitype/StillImage" />
      </cc:Work>
    </rdf:RDF>
  </metadata>
  <sodipodi:namedview
     pagecolor="#ffffff"
     bordercolor="#666666"
     borderopacity="1"
     objecttolerance="10"
     gridtolerance="10"
     guidetolerance="10"
     inkscape:pageopacity="0"
     inkscape:pageshadow="2"
     inkscape:window-width="1199"
     inkscape:window-height="640"
     id="namedview81"
     showgrid="false"
     inkscape:zoom="1.4913793"
     inkscape:cx="189.12831"
     inkscape:cy="31"
     inkscape:window-x="296"
     inkscape:window-y="261"
     inkscape:window-maximized="0"
     inkscape:current-layer="Layer_3" />
  <defs
     id="defs4">
    <style
       id="style2">.cls-1,.cls-2{fill:#fff;}.cls-2{fill-rule:evenodd;}</style>
  </defs>
  <title
     id="title6">The Ottawa Hospital Logo</title>
  <polygon
     class="cls-1"
     points="83.7 2.11 86.36 2.11 86.36 12.48 88.63 12.48 88.63 2.11 91.27 2.11 91.27 0.33 83.7 0.33 83.7 2.11 83.7 2.11"
     id="polygon8"
     style="fill:#484848;fill-opacity:1" />
  <path
     class="cls-2"
     d="M94.42,12.48V6.4c0-1,.24-1.72,1-1.69s.89.62.89,1.51v6.26h2.11V5.43A2,2,0,0,0,96.35,3.1a2.07,2.07,0,0,0-1.9,1.18h0v-4H92.31V12.48Z"
     id="path10"
     style="fill:#484848;fill-opacity:1" />
  <path
     class="cls-2"
     d="M102.19,6.73V6.35c0-.83,0-1.64,1-1.64.84,0,1.09.29,1.1,1.21v.79Zm-2.11,2.16c0,2.69.94,3.84,3.37,3.84,2.15,0,3-1.3,2.91-3.34h-2.11c0,1.15-.2,1.72-1,1.72s-1.09-.23-1.1-1.43V8.34h4.21V7.11c0-2.5-.31-4-3.24-4-2.07,0-3.18,1.23-3.08,3.39v2.4Z"
     id="path12"
     style="fill:#484848;fill-opacity:1" />
  <path
     class="cls-2"
     d="M114.5,4.93c0-.94-.15-3.07,1.64-3.07S117.77,4,117.77,5V8.1c0,1.17,0,2.83-1.64,2.83S114.5,9.3,114.5,8.3V4.93Zm-2.34,2.24c0,3.24.24,5.61,4,5.61s4-2.37,4-5.61V5.43c-.1-3.1-.34-5.4-4-5.4s-3.87,2.3-4,5.4V7.16Z"
     id="path14"
     style="fill:#484848;fill-opacity:1" />
  <path
     class="cls-2"
     d="M125,10.86c-.26,0-.84.08-.89-.31V4.88H125V3.34h-.89V.83h-2.12V3.34h-.84V4.88H122v6.19c0,1.7,1.75,1.59,3,1.45V10.86Z"
     id="path16"
     style="fill:#484848;fill-opacity:1" />
  <path
     class="cls-2"
     d="M129.26,10.86c-.26,0-.84.08-.89-.31V4.88h.89V3.34h-.89V.83h-2.12V3.34h-.84V4.88h.86v6.19c0,1.7,1.75,1.59,3,1.45V10.86Z"
     id="path18"
     style="fill:#484848;fill-opacity:1" />
  <path
     class="cls-2"
     d="M134.32,8.66c0,.87.18,2.45-1.07,2.45-.78,0-1-.47-1-1.17a1.39,1.39,0,0,1,.35-1.1c.55-.46,1.18-.81,1.7-1.17v1Zm2.29,3.82a4.88,4.88,0,0,1-.18-1.28V5.8c0-1.2-.15-2.7-3-2.7-2.64,0-3.21,1.21-3.19,2.95h2c0-.83.15-1.33,1.1-1.33.57,0,.89.06,1,.47.18.74-.15,1.15-1,1.52-1.65.68-3.13,1.18-3.13,3.27,0,1.88.74,2.74,2.45,2.74a1.85,1.85,0,0,0,1-.31,2.74,2.74,0,0,0,.84-.87h0a1.69,1.69,0,0,0,.13.94Z"
     id="path20"
     style="fill:#484848;fill-opacity:1" />
  <path
     class="cls-2"
     d="M143.56,3.34h-1.74L140.95,9a16.13,16.13,0,0,0-.21,2h0c0-.41-.13-1.75-.18-2l-.75-5.58h-2.22l1.88,9.14h2.35l.65-3.82a20.06,20.06,0,0,0,.21-2.17h.06a21.32,21.32,0,0,0,.28,2.3l.7,3.7H146l1.85-9.14h-2.12L145,8.88c-.05.27-.18,1.62-.18,2h0a16.19,16.19,0,0,0-.21-2l-1-5.61Z"
     id="path22"
     style="fill:#484848;fill-opacity:1" />
  <path
     class="cls-2"
     d="M152.83,8.66c0,.87.18,2.45-1.07,2.45-.78,0-1-.47-1-1.17a1.41,1.41,0,0,1,.36-1.1c.55-.46,1.18-.81,1.7-1.17v1Zm2.28,3.82a5,5,0,0,1-.18-1.28V5.8c0-1.2-.14-2.7-3-2.7-2.64,0-3.21,1.21-3.19,2.95h2c0-.83.14-1.33,1.1-1.33.57,0,.89.06,1,.47.18.74-.15,1.15-1,1.52-1.65.68-3.13,1.18-3.13,3.27,0,1.88.75,2.74,2.45,2.74a1.86,1.86,0,0,0,1-.31,2.75,2.75,0,0,0,.84-.87h0a1.72,1.72,0,0,0,.13.94Z"
     id="path24"
     style="fill:#484848;fill-opacity:1" />
  <polygon
     class="cls-2"
     points="85.98 30.58 85.98 25.02 89.16 25.02 89.16 30.58 91.43 30.58 91.43 18.43 89.16 18.43 89.16 23.24 85.98 23.24 85.98 18.43 83.72 18.43 83.72 30.58 85.98 30.58 85.98 30.58"
     id="polygon26"
     style="fill:#484848;fill-opacity:1" />
  <path
     class="cls-2"
     d="M96.4,30.82c2.72,0,3.18-1.31,3.16-4.49s0-5.14-3.16-5.14-3.21,2-3.23,5.14.46,4.54,3.23,4.49m-1.12-6.27c0-.86,0-1.74,1.12-1.74s1.06.88,1.06,1.74v3c0,1.12-.08,1.6-1.06,1.6s-1.12-.49-1.12-1.6v-3Z"
     id="path28"
     style="fill:#484848;fill-opacity:1" />
  <path
     class="cls-2"
     d="M100.68,27.56a2.74,2.74,0,0,0,3,3.26c2.92,0,3.31-1.66,3.13-3.25a3.27,3.27,0,0,0-1.44-1.8l-1.72-1.17c-.4-.28-.79-.52-.79-1.05s.39-.75.89-.75c.73,0,1,.39,1,1.41h2.11c0-2-.89-3-2.93-3s-3.14.81-3.14,2.22a3.36,3.36,0,0,0,1.74,2.89l1.15.79c.41.28,1,.57,1,1.09a.81.81,0,0,1-.87,1c-.49,0-1.14,0-1-1.64Z"
     id="path30"
     style="fill:#484848;fill-opacity:1" />
  <path
     class="cls-2"
     d="M110.25,21.44h-2.11V33.63h2v-4h0a2,2,0,0,0,1.93,1.18c1.78,0,2.14-1.59,2.19-3V24.47c0-2.51-.83-3.24-2.19-3.27a1.75,1.75,0,0,0-1.83,1.2h0v-1Zm0,3.4c0-.73,0-2,1-2s.89.86,1,1.77v3c0,.88-.28,1.57-.92,1.57s-1-.57-1-1.62V24.84Z"
     id="path32"
     style="fill:#484848;fill-opacity:1" />
  <path
     class="cls-2"
     d="M118.41,18.43h-2.1v1.91h2.1V18.43Zm0,3h-2.1v9.14h2.1V21.44Z"
     id="path34"
     style="fill:#484848;fill-opacity:1" />
  <path
     class="cls-2"
     d="M123.49,29c-.26,0-.84.08-.89-.31V23h.89V21.44h-.89V18.93h-2.12v2.51h-.84V23h.86v6.19c0,1.71,1.75,1.59,3,1.44V29Z"
     id="path36"
     style="fill:#484848;fill-opacity:1" />
  <path
     class="cls-2"
     d="M128.56,26.75c0,.87.18,2.45-1.07,2.45-.78,0-1-.47-1-1.17a1.41,1.41,0,0,1,.36-1.1c.55-.45,1.18-.81,1.7-1.17v1Zm2.28,3.82a5,5,0,0,1-.18-1.28V23.9c0-1.2-.14-2.71-3-2.71-2.64,0-3.21,1.22-3.19,3h2c0-.83.15-1.33,1.1-1.33.57,0,.89.07,1,.47.18.75-.15,1.15-1,1.52-1.66.68-3.13,1.18-3.13,3.27,0,1.88.75,2.74,2.45,2.74a1.86,1.86,0,0,0,1-.31,2.76,2.76,0,0,0,.84-.88h0a1.68,1.68,0,0,0,.13.94Z"
     id="path38"
     style="fill:#484848;fill-opacity:1" />
  <polygon
     class="cls-2"
     points="134.92 18.43 132.81 18.43 132.81 30.58 134.92 30.58 134.92 18.43 134.92 18.43"
     id="polygon40"
     style="fill:#484848;fill-opacity:1" />
  <polygon
     class="cls-2"
     points="180.17 12.48 180.17 10.7 175.96 10.7 175.96 0.33 173.69 0.33 173.69 12.48 180.17 12.48 180.17 12.48"
     id="polygon42"
     style="fill:#484848;fill-opacity:1" />
  <path
     class="cls-2"
     d="M179.49,4.72c1.51-.24,2-1,2-2.46V.32h-2V2.43h1c.05,1-.34,1.44-1,1.54v.75Z"
     id="path44"
     style="fill:#484848;fill-opacity:1" />
  <polygon
     class="cls-2"
     points="185.86 12.48 185.86 6.92 189.03 6.92 189.03 12.48 191.3 12.48 191.3 0.33 189.03 0.33 189.03 5.14 185.86 5.14 185.86 0.33 183.59 0.33 183.59 12.48 185.86 12.48 185.86 12.48"
     id="polygon46"
     style="fill:#484848;fill-opacity:1" />
  <path
     class="cls-2"
     d="M195.22,0l-1.83,2.37h1.82l1-1.33,1,1.33h1.85L197.24,0Zm1.05,12.72c2.72,0,3.18-1.32,3.16-4.49s0-5.14-3.16-5.14-3.21,2-3.23,5.14.45,4.54,3.23,4.49m-1.12-6.27c0-.86,0-1.73,1.12-1.73s1.05.87,1.05,1.73v3c0,1.12-.08,1.61-1.05,1.61s-1.12-.49-1.12-1.61v-3Z"
     id="path48"
     style="fill:#484848;fill-opacity:1" />
  <path
     class="cls-2"
     d="M203.13,3.34H201V15.53h2v-4h0A2.05,2.05,0,0,0,205,12.73c1.78,0,2.14-1.59,2.19-3V6.37c-.05-2.51-.83-3.24-2.19-3.28a1.75,1.75,0,0,0-1.83,1.2h0v-1Zm0,3.4c0-.73,0-2,1-2s.89.86,1,1.77v3c0,.88-.27,1.57-.92,1.57s-1-.57-1-1.62V6.74Z"
     id="path50"
     style="fill:#484848;fill-opacity:1" />
  <path
     class="cls-2"
     d="M211.29.32h-2.11V2.23h2.11V.32Zm0,3h-2.11v9.14h2.11V3.34Z"
     id="path52"
     style="fill:#484848;fill-opacity:1" />
  <path
     class="cls-2"
     d="M216.37,10.86c-.26,0-.85.08-.89-.31V4.88h.89V3.34h-.89V.83h-2.12V3.34h-.84V4.88h.86v6.19c0,1.7,1.75,1.59,3,1.45V10.86Z"
     id="path54"
     style="fill:#484848;fill-opacity:1" />
  <path
     class="cls-2"
     d="M221.44,8.66c0,.87.18,2.45-1.07,2.45-.78,0-1-.47-1-1.17a1.41,1.41,0,0,1,.36-1.1c.55-.46,1.18-.81,1.7-1.17v1Zm2.28,3.82a4.88,4.88,0,0,1-.18-1.28V5.8c0-1.2-.15-2.7-3-2.7-2.64,0-3.21,1.21-3.19,2.95h2c0-.83.15-1.33,1.1-1.33.57,0,.89.06,1,.47.18.74-.15,1.15-1,1.52-1.65.68-3.13,1.18-3.13,3.27,0,1.88.75,2.74,2.45,2.74a1.85,1.85,0,0,0,1-.31,2.77,2.77,0,0,0,.84-.87h0a1.72,1.72,0,0,0,.13.94Z"
     id="path56"
     style="fill:#484848;fill-opacity:1" />
  <polygon
     class="cls-2"
     points="227.8 0.33 225.69 0.33 225.69 12.48 227.8 12.48 227.8 0.33 227.8 0.33"
     id="polygon58"
     style="fill:#484848;fill-opacity:1" />
  <path
     class="cls-2"
     d="M177.49,30.58h2.11V18.42h-2.11v3.13a4.61,4.61,0,0,0,.07.81h0a1.81,1.81,0,0,0-1.88-1.17c-1.36,0-2.15.73-2.2,3.24v3.31c0,1.46.42,3.08,2.2,3.08a1.84,1.84,0,0,0,1.82-1.22h0v1Zm0-3c0,1.05-.34,1.62-1,1.62s-.87-.7-.92-1.57v-3c.06-.91,0-1.77,1-1.77s1,1.3,1,2v2.74Z"
     id="path60"
     style="fill:#484848;fill-opacity:1" />
  <path
     class="cls-2"
     d="M181.8,22.81c1.51-.24,2-1,2-2.46V18.43h-2v2.11h1c0,1-.34,1.44-1,1.54v.74Z"
     id="path62"
     style="fill:#484848;fill-opacity:1" />
  <path
     class="cls-2"
     d="M188.11,23c0-.94-.14-3.06,1.64-3.06s1.64,2.16,1.64,3.13V26.2c0,1.17,0,2.84-1.64,2.84s-1.64-1.63-1.64-2.64V23Zm-2.33,2.24c0,3.24.24,5.61,4,5.61s4-2.37,4-5.61V23.53c-.1-3.1-.34-5.4-4-5.4s-3.87,2.3-4,5.4v1.73Z"
     id="path64"
     style="fill:#484848;fill-opacity:1" />
  <path
     class="cls-2"
     d="M198.57,29c-.26,0-.84.08-.89-.31V23h.89V21.44h-.89V18.93h-2.12v2.51h-.84V23h.86v6.19c0,1.71,1.75,1.59,3,1.44V29Z"
     id="path66"
     style="fill:#484848;fill-opacity:1" />
  <path
     class="cls-2"
     d="M202.87,29c-.26,0-.84.08-.89-.31V23h.89V21.44H202V18.93h-2.12v2.51H199V23h.86v6.19c0,1.71,1.75,1.59,3,1.44V29Z"
     id="path68"
     style="fill:#484848;fill-opacity:1" />
  <path
     class="cls-2"
     d="M207.94,26.75c0,.87.18,2.45-1.07,2.45-.78,0-1-.47-1-1.17a1.41,1.41,0,0,1,.36-1.1c.55-.45,1.19-.81,1.7-1.17v1Zm2.29,3.82A4.81,4.81,0,0,1,210,29.3V23.9c0-1.2-.15-2.71-3-2.71-2.64,0-3.21,1.22-3.19,3h2c0-.83.15-1.33,1.1-1.33.57,0,.89.07,1,.47.18.75-.15,1.15-1,1.52-1.65.68-3.13,1.18-3.13,3.27,0,1.88.75,2.74,2.44,2.74a1.86,1.86,0,0,0,1-.31,2.76,2.76,0,0,0,.84-.88h0a1.69,1.69,0,0,0,.13.94Z"
     id="path70"
     style="fill:#484848;fill-opacity:1" />
  <path
     class="cls-2"
     d="M217.17,21.44h-1.73l-.87,5.64a15.42,15.42,0,0,0-.21,2h0c0-.4-.13-1.75-.18-2l-.74-5.58h-2.22l1.88,9.14h2.35l.65-3.82a18.61,18.61,0,0,0,.21-2.17h.06a22.29,22.29,0,0,0,.27,2.3l.7,3.69h2.3l1.85-9.14h-2.12l-.7,5.54c0,.27-.18,1.62-.18,2h0a16,16,0,0,0-.21-2l-1-5.61Z"
     id="path72"
     style="fill:#484848;fill-opacity:1" />
  <path
     class="cls-2"
     d="M226.44,26.75c0,.87.18,2.45-1.07,2.45-.78,0-1-.47-1-1.17a1.4,1.4,0,0,1,.35-1.1c.55-.45,1.18-.81,1.7-1.17v1Zm2.29,3.82a4.73,4.73,0,0,1-.18-1.28V23.9c0-1.2-.14-2.71-3-2.71-2.64,0-3.21,1.22-3.19,3h2c0-.83.15-1.33,1.1-1.33.57,0,.89.07,1,.47.18.75-.15,1.15-1,1.52-1.65.68-3.13,1.18-3.13,3.27,0,1.88.75,2.74,2.45,2.74a1.83,1.83,0,0,0,1-.31,2.73,2.73,0,0,0,.85-.88h0a1.74,1.74,0,0,0,.13.94Z"
     id="path74"
     style="fill:#484848;fill-opacity:1" />
  <polygon
     class="cls-1"
     points="164.14 30.54 165.44 30.54 165.44 0.04 164.14 0.04 164.14 30.54 164.14 30.54"
     id="polygon76"
     style="fill:#484848;fill-opacity:1" />
  <path
     class="cls-2"
     d="M22.34,20.44V.09H42.68V20.43H63V40.78H42.68V61.12H22.34c13.16-4.56,22-16.32,20.13-26.94-1.55-8.74-10-13.51-20.11-13.73ZM2,27.2V20.43H20.95a36.46,36.46,0,0,0-5,.45A29.81,29.81,0,0,0,2,27.2M22.34,47.38V40.78H2c0-7.91,6.58-14.16,14.3-15.93s14.92,1.92,15.58,8.4c.55,5.43-3.47,11.1-9.54,14.13"
     id="path78"
     style="fill:#484848;fill-opacity:1" />
</svg>
